<svg width="229" height="219" viewBox="0 0 229 219" fill="none" xmlns="http://www.w3.org/2000/svg">
<path d="M124.741 218.295C113.934 221.451 105.361 213.046 104.365 211.985C99.1745 214.02 88.1444 217.19 74.8531 212.321C51.5539 203.88 40.4189 177.605 38.669 173.227C36.6831 172.568 13.6069 164.735 3.8219 134.974C-5.08485 107.945 4.20203 84.7959 5.42761 81.904C4.6477 78.9024 -0.9559 55.7825 9.2223 36.6672C12.9318 29.7561 18.0898 24.4923 24.1193 21.1173C33.5176 15.8315 44.9869 15.2604 56.2269 20.495C57.0002 18.4817 63.233 3.13673 76.9503 0.413296C88.9046 -1.97337 101.639 6.12372 108.973 20.8976C109.975 19.4847 124.518 -0.238277 146.415 5.67714C151.645 7.10475 156.121 9.60855 159.929 12.6102C170.605 21.2417 175.94 33.6582 176.714 35.5837C195.228 35.2396 209.057 48.6884 210.611 62.5618C211.541 71.2958 207.465 78.7414 205.125 82.2408C206.291 83.0827 229.42 100.47 228.994 120.559C228.699 134.264 217.492 148.855 199.161 154.222C191.29 156.645 182.108 157.296 171.87 155.43C172.46 158.358 174.905 171.873 168.947 184.253C168.548 185.109 168.095 185.988 167.623 186.8C161.699 197.006 151.416 202.035 140.549 200.198C140.163 201.516 136.165 214.869 124.735 218.281L124.741 218.295Z" fill="#444444"/>
<path d="M124.741 218.295C113.934 221.451 105.361 213.046 104.365 211.985C99.1745 214.02 88.1444 217.19 74.8531 212.321C51.5539 203.88 40.4189 177.605 38.669 173.227C36.6831 172.568 13.6069 164.735 3.8219 134.974C-5.08485 107.945 4.20203 84.7959 5.42761 81.904C4.6477 78.9024 -0.9559 55.7825 9.2223 36.6672C12.9318 29.7561 18.0898 24.4923 24.1193 21.1173C33.5176 15.8315 44.9869 15.2604 56.2269 20.495C57.0002 18.4817 63.233 3.13673 76.9503 0.413296C88.9046 -1.97337 101.639 6.12372 108.973 20.8976C109.975 19.4847 124.518 -0.238277 146.415 5.67714C151.645 7.10475 156.121 9.60855 159.929 12.6102C170.605 21.2417 175.94 33.6582 176.714 35.5837C195.228 35.2396 209.057 48.6884 210.611 62.5618C211.541 71.2958 207.465 78.7414 205.125 82.2408C206.291 83.0827 229.42 100.47 228.994 120.559C228.699 134.264 217.492 148.855 199.161 154.222C191.29 156.645 182.108 157.296 171.87 155.43C172.46 158.358 174.905 171.873 168.947 184.253C168.548 185.109 168.095 185.988 167.623 186.8C161.699 197.006 151.416 202.035 140.549 200.198C140.163 201.516 136.165 214.869 124.735 218.281L124.741 218.295Z" fill="url(#paint0_linear_144_2056)" fill-opacity="0.2"/>
<defs>
<linearGradient id="paint0_linear_144_2056" x1="114.5" y1="0" x2="114.5" y2="219" gradientUnits="userSpaceOnUse">
<stop stop-color="white"/>
<stop offset="1" stop-color="white" stop-opacity="0"/>
</linearGradient>
</defs>
</svg>
