<svg width="362" height="275" viewBox="0 0 362 275" fill="none" xmlns="http://www.w3.org/2000/svg">
<path d="M193.428 260.575C176.267 266.106 163.035 257.352 161.504 256.228C153.245 259.503 123.516 280.78 77.4854 272.532C41.041 266.001 24.3923 236.201 21.784 231.202C18.6698 230.729 19.9969 213.786 5.62152 179.494C-7.46613 148.345 7.9999 118.965 10.0366 115.289C8.90657 111.797 0.897613 84.8308 17.6317 60.167C23.7222 51.2485 32.0465 44.0796 41.6848 39.0482C56.6975 31.1755 74.8179 28.6565 92.3601 33.1683C93.6544 30.6164 104.029 11.1288 125.769 5.65668C144.711 0.868618 164.52 8.59661 175.564 25.2299C177.193 23.3686 200.839 -2.72901 235.174 0.90808C243.367 1.79598 250.351 4.09136 256.251 7.10363C272.788 15.7984 280.764 29.9127 281.914 32.1094C311.138 28.7354 332.471 42.7313 334.436 59.2067C335.599 69.5787 333.628 78.8851 329.817 83.4693C331.624 84.2914 362.766 101.872 361.386 126.148C360.44 142.708 342.234 162.084 313.122 171.483C300.619 175.666 286.106 177.909 270.029 177.304C270.85 180.737 274.227 196.633 264.392 212.504C263.728 213.602 262.986 214.733 262.217 215.786C252.506 229.032 236.107 236.733 219.025 236.26C218.368 237.904 211.588 254.643 193.428 260.582V260.575Z" fill="#777777"/>
<path d="M193.428 260.575C176.267 266.106 163.035 257.352 161.504 256.228C153.245 259.503 123.516 280.78 77.4854 272.532C41.041 266.001 24.3923 236.201 21.784 231.202C18.6698 230.729 19.9969 213.786 5.62152 179.494C-7.46613 148.345 7.9999 118.965 10.0366 115.289C8.90657 111.797 0.897613 84.8308 17.6317 60.167C23.7222 51.2485 32.0465 44.0796 41.6848 39.0482C56.6975 31.1755 74.8179 28.6565 92.3601 33.1683C93.6544 30.6164 104.029 11.1288 125.769 5.65668C144.711 0.868618 164.52 8.59661 175.564 25.2299C177.193 23.3686 200.839 -2.72901 235.174 0.90808C243.367 1.79598 250.351 4.09136 256.251 7.10363C272.788 15.7984 280.764 29.9127 281.914 32.1094C311.138 28.7354 332.471 42.7313 334.436 59.2067C335.599 69.5787 333.628 78.8851 329.817 83.4693C331.624 84.2914 362.766 101.872 361.386 126.148C360.44 142.708 342.234 162.084 313.122 171.483C300.619 175.666 286.106 177.909 270.029 177.304C270.85 180.737 274.227 196.633 264.392 212.504C263.728 213.602 262.986 214.733 262.217 215.786C252.506 229.032 236.107 236.733 219.025 236.26C218.368 237.904 211.588 254.643 193.428 260.582V260.575Z" fill="url(#paint0_linear_144_2058)" fill-opacity="0.2"/>
<defs>
<linearGradient id="paint0_linear_144_2058" x1="180.923" y1="0.560913" x2="180.923" y2="274.418" gradientUnits="userSpaceOnUse">
<stop stop-color="white"/>
<stop offset="1" stop-color="white" stop-opacity="0"/>
</linearGradient>
</defs>
</svg>
