<svg width="218" height="172" viewBox="0 0 218 172" fill="none" xmlns="http://www.w3.org/2000/svg">
<path d="M115.967 170.885C105.625 173.66 97.6822 167.268 96.7558 166.459C91.7757 168.195 81.2175 170.99 68.7146 167.511C46.7835 161.48 36.8298 141.071 35.2727 137.664C33.4002 137.197 11.6663 131.633 3.07919 108.443C-4.73266 87.3765 4.6363 68.8886 5.86491 66.5734C5.19476 64.2254 0.424869 46.1584 10.5494 30.8208C14.2352 25.2764 19.2614 20.9947 25.0759 18.1666C34.1295 13.7534 45.0425 12.9971 55.5875 16.8249C56.3693 15.2201 62.6569 2.95399 75.7577 0.448148C87.17 -1.75515 99.075 4.2957 105.691 15.7397C106.677 14.6019 120.96 -1.33422 141.623 2.7501C146.557 3.73665 150.749 5.59138 154.297 7.85387C164.231 14.3717 169.007 24.0202 169.697 25.5132C187.292 24.7502 200.11 34.9775 201.26 45.8756C201.937 52.7288 197.883 58.7073 195.583 61.5289C196.667 62.1603 218.231 75.2485 217.344 91.0925C216.739 101.899 205.741 113.698 188.199 118.42C180.663 120.544 171.924 121.294 162.247 120.097C162.733 122.386 164.737 132.975 158.784 142.893C158.383 143.577 157.937 144.281 157.464 144.932C151.59 153.133 141.702 157.369 131.426 156.212C131.025 157.257 126.913 167.892 115.967 170.885Z" fill="#777777"/>
<path d="M115.967 170.885C105.625 173.66 97.6822 167.268 96.7558 166.459C91.7757 168.195 81.2175 170.99 68.7146 167.511C46.7835 161.48 36.8298 141.071 35.2727 137.664C33.4002 137.197 11.6663 131.633 3.07919 108.443C-4.73266 87.3765 4.6363 68.8886 5.86491 66.5734C5.19476 64.2254 0.424869 46.1584 10.5494 30.8208C14.2352 25.2764 19.2614 20.9947 25.0759 18.1666C34.1295 13.7534 45.0425 12.9971 55.5875 16.8249C56.3693 15.2201 62.6569 2.95399 75.7577 0.448148C87.17 -1.75515 99.075 4.2957 105.691 15.7397C106.677 14.6019 120.96 -1.33422 141.623 2.7501C146.557 3.73665 150.749 5.59138 154.297 7.85387C164.231 14.3717 169.007 24.0202 169.697 25.5132C187.292 24.7502 200.11 34.9775 201.26 45.8756C201.937 52.7288 197.883 58.7073 195.583 61.5289C196.667 62.1603 218.231 75.2485 217.344 91.0925C216.739 101.899 205.741 113.698 188.199 118.42C180.663 120.544 171.924 121.294 162.247 120.097C162.733 122.386 164.737 132.975 158.784 142.893C158.383 143.577 157.937 144.281 157.464 144.932C151.59 153.133 141.702 157.369 131.426 156.212C131.025 157.257 126.913 167.892 115.967 170.885Z" fill="url(#paint0_linear_144_2054)" fill-opacity="0.2"/>
<defs>
<linearGradient id="paint0_linear_144_2054" x1="108.685" y1="0" x2="108.685" y2="171.579" gradientUnits="userSpaceOnUse">
<stop stop-color="white"/>
<stop offset="1" stop-color="white" stop-opacity="0"/>
</linearGradient>
</defs>
</svg>
