<svg width="214" height="183" viewBox="0 0 214 183" fill="none" xmlns="http://www.w3.org/2000/svg">
<path d="M114.169 182.26C103.988 185.22 96.1677 178.402 95.2557 177.539C90.3527 179.391 79.9583 182.372 67.6492 178.661C46.0582 172.229 36.2588 150.462 34.7258 146.828C32.8824 146.33 11.4854 140.396 3.03145 115.661C-4.65929 93.1928 4.56442 73.4742 5.77398 71.0049C5.11422 68.5007 0.418281 49.2309 10.3858 32.8724C14.0145 26.9589 18.9627 22.3923 24.6871 19.3759C33.6004 14.669 44.3441 13.8622 54.7256 17.9449C55.4954 16.2333 61.6855 3.15062 74.5832 0.47798C85.8185 -1.87198 97.5389 4.58164 104.052 16.7874C105.023 15.5739 119.085 -1.42304 139.427 2.93317C144.285 3.98539 148.412 5.96356 151.905 8.37666C161.685 15.3283 166.387 25.6191 167.066 27.2114C184.388 26.3977 197.008 37.3058 198.14 48.9293C198.806 56.2388 194.815 62.6152 192.551 65.6246C193.618 66.298 214.847 80.2575 213.974 97.1562C213.379 108.682 202.551 121.266 185.281 126.303C177.862 128.569 169.259 129.368 159.731 128.092C160.21 130.533 162.183 141.827 156.322 152.405C155.928 153.134 155.488 153.885 155.022 154.579C149.24 163.327 139.505 167.844 129.389 166.61C128.994 167.725 124.945 179.068 114.169 182.26Z" fill="#666666"/>
<path d="M114.169 182.26C103.988 185.22 96.1677 178.402 95.2557 177.539C90.3527 179.391 79.9583 182.372 67.6492 178.661C46.0582 172.229 36.2588 150.462 34.7258 146.828C32.8824 146.33 11.4854 140.396 3.03145 115.661C-4.65929 93.1928 4.56442 73.4742 5.77398 71.0049C5.11422 68.5007 0.418281 49.2309 10.3858 32.8724C14.0145 26.9589 18.9627 22.3923 24.6871 19.3759C33.6004 14.669 44.3441 13.8622 54.7256 17.9449C55.4954 16.2333 61.6855 3.15062 74.5832 0.47798C85.8185 -1.87198 97.5389 4.58164 104.052 16.7874C105.023 15.5739 119.085 -1.42304 139.427 2.93317C144.285 3.98539 148.412 5.96356 151.905 8.37666C161.685 15.3283 166.387 25.6191 167.066 27.2114C184.388 26.3977 197.008 37.3058 198.14 48.9293C198.806 56.2388 194.815 62.6152 192.551 65.6246C193.618 66.298 214.847 80.2575 213.974 97.1562C213.379 108.682 202.551 121.266 185.281 126.303C177.862 128.569 169.259 129.368 159.731 128.092C160.21 130.533 162.183 141.827 156.322 152.405C155.928 153.134 155.488 153.885 155.022 154.579C149.24 163.327 139.505 167.844 129.389 166.61C128.994 167.725 124.945 179.068 114.169 182.26Z" fill="url(#paint0_linear_144_2055)" fill-opacity="0.2"/>
<defs>
<linearGradient id="paint0_linear_144_2055" x1="107" y1="0" x2="107" y2="183" gradientUnits="userSpaceOnUse">
<stop stop-color="white"/>
<stop offset="1" stop-color="white" stop-opacity="0"/>
</linearGradient>
</defs>
</svg>
