<svg width="203" height="141" viewBox="0 0 203 141" fill="none" xmlns="http://www.w3.org/2000/svg">
<path d="M116.027 140.138C107.184 142.94 100.279 138.106 99.4774 137.488C95.2265 139.165 86.1992 141.993 75.4111 139.777C56.4957 135.956 47.6786 119.756 46.2924 117.047C44.6761 116.757 9.68046 122.547 2 104C-4.99059 87.1564 19.0724 62.3061 20.1039 60.3462C19.4929 58.4585 15.1632 43.9102 23.6518 30.8417C26.7463 26.1128 31.0037 22.3508 35.9576 19.7463C43.6709 15.6685 53.0333 14.4978 62.1395 17.0957C62.7899 15.7408 68.0263 5.38204 79.2415 2.65916C89.0112 0.278279 99.3131 4.61913 105.147 13.6559C105.975 12.676 118.031 -1.0963 135.83 1.1925C140.081 1.75154 143.707 3.05379 146.782 4.72435C155.402 9.55188 159.627 17.2075 160.238 18.398C175.336 16.8721 186.479 24.6001 187.609 33.4593C188.279 39.0366 184.882 44.1404 182.938 46.5607C183.877 47.0211 202.562 56.6367 202.017 69.6526C201.643 78.5316 192.352 88.7523 177.353 93.5074C170.914 95.6252 163.418 96.6907 155.093 96.204C155.54 98.0522 157.399 106.622 152.419 115.041C152.084 115.626 151.71 116.224 151.316 116.777C146.381 123.788 137.945 127.761 129.102 127.34C128.774 128.214 125.383 137.133 116.027 140.138Z" fill="#555555"/>
<path d="M116.027 140.138C107.184 142.94 100.279 138.106 99.4774 137.488C95.2265 139.165 86.1992 141.993 75.4111 139.777C56.4957 135.956 47.6786 119.756 46.2924 117.047C44.6761 116.757 9.68046 122.547 2 104C-4.99059 87.1564 19.0724 62.3061 20.1039 60.3462C19.4929 58.4585 15.1632 43.9102 23.6518 30.8417C26.7463 26.1128 31.0037 22.3508 35.9576 19.7463C43.6709 15.6685 53.0333 14.4978 62.1395 17.0957C62.7899 15.7408 68.0263 5.38204 79.2415 2.65916C89.0112 0.278279 99.3131 4.61913 105.147 13.6559C105.975 12.676 118.031 -1.0963 135.83 1.1925C140.081 1.75154 143.707 3.05379 146.782 4.72435C155.402 9.55188 159.627 17.2075 160.238 18.398C175.336 16.8721 186.479 24.6001 187.609 33.4593C188.279 39.0366 184.882 44.1404 182.938 46.5607C183.877 47.0211 202.562 56.6367 202.017 69.6526C201.643 78.5316 192.352 88.7523 177.353 93.5074C170.914 95.6252 163.418 96.6907 155.093 96.204C155.54 98.0522 157.399 106.622 152.419 115.041C152.084 115.626 151.71 116.224 151.316 116.777C146.381 123.788 137.945 127.761 129.102 127.34C128.774 128.214 125.383 137.133 116.027 140.138Z" fill="url(#paint0_linear_144_2057)" fill-opacity="0.2"/>
<defs>
<linearGradient id="paint0_linear_144_2057" x1="101.379" y1="0.936279" x2="101.379" y2="141.005" gradientUnits="userSpaceOnUse">
<stop stop-color="white"/>
<stop offset="1" stop-color="white" stop-opacity="0"/>
</linearGradient>
</defs>
</svg>
