<svg width="167" height="187" viewBox="0 0 167 187" fill="none" xmlns="http://www.w3.org/2000/svg">
<path d="M152.753 144.639C148.417 153.726 139.632 155.174 138.566 155.295C136.737 159.932 132.282 169.19 122.668 175.738C105.849 187.279 86.9181 181.023 83.8188 179.91C82.4172 180.923 66.0127 192.628 46.1075 183.605C28.0185 175.424 21.7344 156.807 20.9842 154.439C19.0891 153.391 4.71132 145.01 0.894786 127.912C-0.4739 121.714 -0.243593 115.387 1.3883 109.46C3.91511 100.216 9.8834 92.0344 18.5627 87.0842C17.9968 85.4865 13.871 73.0897 20.0103 62.2336C25.3469 52.7612 36.2503 48.3032 47.4828 51.0779C47.338 49.6442 45.5877 29.223 60.4129 17.3183C63.9597 14.4866 67.6248 12.7319 71.1716 11.7048C81.213 8.93729 90.2016 11.8403 91.5637 12.3325C101.474 -0.563598 115.588 -2.94596 123.234 3.32377C128.018 7.30387 129.446 14.0444 129.887 17.4966C130.933 17.14 152.043 10.4494 161.65 21.3698C168.204 28.8164 169.25 44.2375 161.9 59.6586C158.8 66.3492 154.122 72.9969 147.634 79.0384C149.384 80.1868 157.34 85.6505 160.163 96.2927C160.367 97.0202 160.551 97.7977 160.689 98.5466C162.459 108.012 159.327 117.734 152.51 124.225C152.944 125.188 157.313 134.995 152.76 144.653L152.753 144.639Z" fill="#888888"/>
<path d="M152.753 144.639C148.417 153.726 139.632 155.174 138.566 155.295C136.737 159.932 132.282 169.19 122.668 175.738C105.849 187.279 86.9181 181.023 83.8188 179.91C82.4172 180.923 66.0127 192.628 46.1075 183.605C28.0185 175.424 21.7344 156.807 20.9842 154.439C19.0891 153.391 4.71132 145.01 0.894786 127.912C-0.4739 121.714 -0.243593 115.387 1.3883 109.46C3.91511 100.216 9.8834 92.0344 18.5627 87.0842C17.9968 85.4865 13.871 73.0897 20.0103 62.2336C25.3469 52.7612 36.2503 48.3032 47.4828 51.0779C47.338 49.6442 45.5877 29.223 60.4129 17.3183C63.9597 14.4866 67.6248 12.7319 71.1716 11.7048C81.213 8.93729 90.2016 11.8403 91.5637 12.3325C101.474 -0.563598 115.588 -2.94596 123.234 3.32377C128.018 7.30387 129.446 14.0444 129.887 17.4966C130.933 17.14 152.043 10.4494 161.65 21.3698C168.204 28.8164 169.25 44.2375 161.9 59.6586C158.8 66.3492 154.122 72.9969 147.634 79.0384C149.384 80.1868 157.34 85.6505 160.163 96.2927C160.367 97.0202 160.551 97.7977 160.689 98.5466C162.459 108.012 159.327 117.734 152.51 124.225C152.944 125.188 157.313 134.995 152.76 144.653L152.753 144.639Z" fill="url(#paint0_linear_144_2059)" fill-opacity="0.2"/>
<defs>
<linearGradient id="paint0_linear_144_2059" x1="83.5" y1="0" x2="83.5" y2="187" gradientUnits="userSpaceOnUse">
<stop stop-color="white"/>
<stop offset="1" stop-color="white" stop-opacity="0"/>
</linearGradient>
</defs>
</svg>
