<svg width="46" height="38" viewBox="0 0 46 38" fill="none" xmlns="http://www.w3.org/2000/svg">
<g clip-path="url(#clip0_162_1579)">
<path d="M32.6512 10.9008C35.6449 10.9008 38.0719 8.46058 38.0719 5.4504C38.0719 2.44023 35.6449 0 32.6512 0C29.6574 0 27.2305 2.44023 27.2305 5.4504C27.2305 8.46058 29.6574 10.9008 32.6512 10.9008Z" fill="white"/>
<path d="M5.4207 10.9008C8.41448 10.9008 10.8414 8.46058 10.8414 5.4504C10.8414 2.44023 8.41448 0 5.4207 0C2.42693 0 0 2.44023 0 5.4504C0 8.46058 2.42693 10.9008 5.4207 10.9008Z" fill="white"/>
<path d="M34.062 23.4059C33.9375 23.4059 33.8401 23.4059 33.7643 23.4059C23.9276 23.3679 15.9316 15.3325 15.9316 5.45649C15.9316 3.50736 17.507 1.92742 19.4505 1.92742C21.394 1.92742 22.9694 3.50736 22.9694 5.45649C22.9694 11.4614 27.8417 16.3478 33.8293 16.3478C33.8834 16.3478 33.9375 16.3478 33.9862 16.3478C33.9862 16.3478 37.5972 16.4183 40.0442 14.0674C41.4463 12.721 43.6767 12.7644 45.0193 14.176C46.3619 15.5822 46.3186 17.8191 44.911 19.1656C40.8183 23.0964 35.6049 23.4059 34.0566 23.4059H34.062Z" fill="white"/>
<path d="M38.2623 27.4725H27.8262V37.9658H38.2623V27.4725Z" fill="white"/>
<path d="M5.03842 23.4005C3.09491 23.4005 1.51953 21.8205 1.51953 19.8714C1.51953 17.9223 3.09491 16.3423 5.03842 16.3423C11.0259 16.3423 15.8983 11.4559 15.8983 5.45106C15.8983 3.50193 17.4736 1.92199 19.4171 1.92199C21.3606 1.92199 22.936 3.50193 22.936 5.45106C22.936 15.3488 14.9075 23.4005 5.03842 23.4005Z" fill="white"/>
</g>
<defs>
<clipPath id="clip0_162_1579">
<rect width="46" height="38" fill="white"/>
</clipPath>
</defs>
</svg>
