<svg width="282" height="186" viewBox="0 0 282 186" fill="none" xmlns="http://www.w3.org/2000/svg">
<g clip-path="url(#clip0_162_1493)">
<path d="M230.178 41.9004C241.781 41.9004 251.187 32.5206 251.187 20.9502C251.187 9.37971 241.781 0 230.178 0C218.576 0 209.17 9.37971 209.17 20.9502C209.17 32.5206 218.576 41.9004 230.178 41.9004Z" fill="#AC70AF"/>
<path d="M124.643 41.9004C136.246 41.9004 145.652 32.5206 145.652 20.9502C145.652 9.37971 136.246 0 124.643 0C113.041 0 103.635 9.37971 103.635 20.9502C103.635 32.5206 113.041 41.9004 124.643 41.9004Z" fill="#FEC240"/>
<path d="M235.649 89.9673C235.166 89.9673 234.789 89.9673 234.495 89.9673C196.372 89.8212 165.383 58.9347 165.383 20.9736C165.383 13.4815 171.488 7.40857 179.021 7.40857C186.553 7.40857 192.658 13.4815 192.658 20.9736C192.658 44.055 211.541 62.8373 234.747 62.8373C234.957 62.8373 235.166 62.8373 235.355 62.8373C235.355 62.8373 249.35 63.1086 258.833 54.0722C264.267 48.8966 272.912 49.0636 278.115 54.4896C283.318 59.8947 283.15 68.4928 277.695 73.6684C261.833 88.7777 241.629 89.9673 235.628 89.9673H235.649Z" fill="#4DC6E0"/>
<path d="M251.925 105.598H211.479V145.932H251.925V105.598Z" fill="#4DC6E0"/>
<path d="M123.163 89.9465C115.631 89.9465 109.525 83.8735 109.525 76.3814C109.525 68.8894 115.631 62.8164 123.163 62.8164C146.368 62.8164 165.251 44.0341 165.251 20.9527C165.251 13.4607 171.357 7.38773 178.889 7.38773C186.422 7.38773 192.527 13.4607 192.527 20.9527C192.527 58.9974 161.412 89.9465 123.163 89.9465Z" fill="#8DC642"/>
</g>
<path d="M181.751 168.721H148.454C147.098 168.721 146.505 167.323 146.505 166.052C146.505 164.866 147.098 163.426 148.454 163.426H181.751C183.106 163.426 183.7 164.866 183.7 166.052C183.7 167.323 183.106 168.721 181.751 168.721ZM178.87 175.965V180.54C178.87 184.649 177.811 185.624 173.532 185.624H156.841C152.563 185.624 151.504 184.649 151.504 180.54V175.965C151.504 171.856 152.563 170.881 156.841 170.881H173.532C177.811 170.881 178.87 171.856 178.87 175.965ZM157.943 177.109V179.396C157.943 180.328 158.07 180.456 159.256 180.456H171.118C172.304 180.456 172.431 180.328 172.431 179.396V177.109C172.431 176.134 172.304 176.007 171.118 176.007H159.256C158.07 176.007 157.943 176.134 157.943 177.109ZM151.25 153.597C151.25 149.022 155.274 145.548 165.145 145.548C175.057 145.548 178.997 149.022 178.997 153.597C178.997 158.173 175.057 161.646 165.145 161.646C155.274 161.646 151.25 158.173 151.25 153.597ZM172.431 153.597C172.431 151.945 170.482 150.674 165.145 150.674C159.849 150.674 157.858 151.945 157.858 153.597C157.858 155.207 159.849 156.52 165.145 156.52C170.482 156.52 172.431 155.207 172.431 153.597Z" fill="#333333"/>
<path d="M141.308 147.582V182.404C141.308 184.226 139.91 185.031 138.131 185.031C136.309 185.031 134.954 184.226 134.954 182.404V147.582C134.954 146.057 136.352 145.167 138.131 145.167C139.868 145.167 141.308 146.057 141.308 147.582ZM119.618 175.499C112.459 175.499 108.773 170.288 108.773 161.562C108.773 152.75 112.459 147.54 119.618 147.54C126.778 147.54 130.463 152.75 130.463 161.562C130.463 170.288 126.778 175.499 119.618 175.499ZM119.618 170.119C122.541 170.119 124.151 167.747 124.151 161.562C124.151 155.334 122.541 152.92 119.618 152.92C116.738 152.92 115.128 155.334 115.128 161.562C115.128 167.747 116.738 170.119 119.618 170.119Z" fill="#333333"/>
<path d="M174.271 114.512C176.268 114.501 177.716 115.919 177.716 117.963C177.716 119.99 176.268 121.42 174.271 121.42C172.267 121.42 170.843 119.99 170.849 117.963C170.843 115.919 172.267 114.501 174.271 114.512ZM172.713 117.963C172.707 119.069 173.35 119.7 174.271 119.7C175.174 119.7 175.817 119.069 175.823 117.963C175.817 116.823 175.174 116.191 174.271 116.191C173.35 116.191 172.707 116.823 172.713 117.963ZM173.402 128.432V122.399H175.469V123.759H181.52V122.399H183.587V128.432H173.402ZM175.469 126.759H181.52V125.41H175.469V126.759ZM178.417 121.698V113.968H180.356V116.805H181.607V113.707H183.587V121.802H181.607V118.508H180.356V121.698H178.417Z" fill="black"/>
<path d="M163.449 114.715V119.492H158.939V121.194C160.989 121.177 162.39 121.09 163.982 120.818L164.214 122.497C162.303 122.833 160.647 122.873 157.995 122.873H156.848V117.928H161.348V116.382H156.837V114.715H163.449ZM158.852 128.316V123.864H160.931V126.614H169.228V128.316H158.852ZM164.318 120.992V119.318H166.767V117.627H164.318V115.966H166.767V113.707H168.852V124.709H166.767V120.992H164.318Z" fill="black"/>
<path d="M155.395 122.063V123.701H149.808V125.537H147.741V123.701H141.8V122.063H155.395ZM142.448 116.504V114.941H147.538V113.609H149.634V114.941H154.683V116.504H142.448ZM143.381 128.339V124.616H145.465V126.689H153.913V128.339H143.381ZM143.577 119.179C143.566 117.697 145.401 116.915 148.586 116.921C151.771 116.915 153.6 117.697 153.6 119.179C153.6 120.667 151.771 121.484 148.586 121.484C145.401 121.484 143.566 120.667 143.577 119.179ZM145.708 119.179C145.702 119.752 146.588 119.99 148.586 119.996C150.566 119.99 151.464 119.752 151.464 119.179C151.464 118.612 150.566 118.369 148.586 118.369C146.588 118.369 145.702 118.612 145.708 119.179Z" fill="black"/>
<path d="M135.962 113.684V128.6H133.848V113.684H135.962ZM123.489 124.379C127.334 122.555 129.031 120.204 129.366 116.892H124.288V115.253H131.497C131.491 119.77 129.905 123.528 124.578 126.041L123.489 124.379Z" fill="black"/>
<path d="M122.569 120.378V122.086H108.95V120.378H122.569ZM110.583 128.415V123.163H120.959V124.831H112.656V126.741H121.087V128.415H110.583ZM110.629 119.336V114.061H120.907V115.769H112.697V117.674H121.058V119.336H110.629Z" fill="black"/>
<path d="M96.0943 117.749C96.0827 120.025 97.2929 122.648 99.7422 123.777L98.5783 125.415C96.9165 124.651 95.7353 123.134 95.0752 121.345C94.4035 123.319 93.176 124.987 91.4621 125.798L90.2461 124.147C92.7301 122.989 93.9808 120.216 93.9924 117.749V116.834H90.8367V115.126H99.0936V116.834H96.0943V117.749ZM100.257 128.6V113.684H102.348V119.382H104.548V121.125H102.348V128.6H100.257Z" fill="black"/>
<path d="M89.6962 120.76V122.428H76.1006V120.76H79.1579V118.965C78.0751 118.484 77.4555 117.737 77.4613 116.782C77.4555 114.987 79.5748 113.91 82.8868 113.904C86.1873 113.91 88.3007 114.987 88.3065 116.782C88.3007 117.755 87.6696 118.502 86.5578 118.982V120.76H89.6962ZM77.6524 125.884C77.6524 124.159 79.6095 123.198 82.8694 123.203C86.0946 123.198 88.0517 124.159 88.0633 125.884C88.0517 127.633 86.0946 128.583 82.8694 128.577C79.6095 128.583 77.6524 127.633 77.6524 125.884ZM79.6327 116.782C79.6211 117.61 80.7849 118.021 82.8868 118.021C84.9713 118.021 86.1525 117.61 86.1525 116.782C86.1525 115.948 84.9713 115.514 82.8868 115.514C80.7849 115.514 79.6211 115.948 79.6327 116.782ZM79.7832 125.884C79.7716 126.637 80.8081 127.025 82.8694 127.019C84.896 127.025 85.9614 126.637 85.9672 125.884C85.9614 125.137 84.896 124.79 82.8694 124.778C80.8081 124.79 79.7716 125.137 79.7832 125.884ZM81.2713 120.76H84.4791V119.503C83.987 119.567 83.4542 119.596 82.8868 119.596C82.3078 119.596 81.7693 119.567 81.2713 119.503V120.76Z" fill="black"/>
<path d="M67.0918 117.066C67.0802 119.735 68.2209 122.428 70.6123 123.586L69.35 125.247C67.7577 124.46 66.6749 122.989 66.0554 121.194C65.4069 123.122 64.2546 124.697 62.5638 125.537L61.2842 123.84C63.803 122.682 64.9957 119.834 65.0015 117.066V114.837H67.0918V117.066ZM71.2724 128.6V113.684H73.3627V119.434H75.563V121.2H73.3627V128.6H71.2724Z" fill="black"/>
<path d="M56.8647 122.022V123.73H51.0397V128.612H48.9725V123.73H43.2344V122.022H56.8647ZM44.6009 117.57C44.5951 115.502 46.8128 114.188 50.009 114.188C53.211 114.188 55.4461 115.502 55.4461 117.57C55.4461 119.602 53.211 120.893 50.009 120.893C46.8128 120.893 44.5951 119.602 44.6009 117.57ZM46.7549 117.57C46.7433 118.641 48.0114 119.243 50.009 119.243C52.024 119.243 53.2863 118.641 53.2863 117.57C53.2863 116.475 52.024 115.861 50.009 115.856C48.0114 115.861 46.7433 116.475 46.7549 117.57Z" fill="black"/>
<path d="M33.2007 114.576C35.4937 114.582 37.2713 116.093 37.2829 118.23C37.2713 120.03 36.0206 121.38 34.2603 121.767V123.811C35.43 123.748 36.6054 123.655 37.7056 123.505L37.8503 125.051C34.7467 125.635 31.3884 125.635 28.858 125.601L28.5801 123.916C29.6513 123.91 30.8846 123.91 32.1758 123.881V121.779C30.3519 121.408 29.0954 120.054 29.107 118.23C29.0954 116.093 30.8441 114.582 33.2007 114.576ZM31.1452 118.23C31.1394 119.405 32.0195 120.117 33.2007 120.106C34.3472 120.117 35.2215 119.405 35.2273 118.23C35.2215 117.043 34.3472 116.354 33.2007 116.348C32.0195 116.354 31.1394 117.043 31.1452 118.23ZM38.4988 128.6V113.684H40.5949V119.538H42.6215V121.293H40.5949V128.6H38.4988Z" fill="black"/>
<path d="M20.9779 122.972C24.232 122.978 26.2876 124.008 26.2992 125.792C26.2876 127.552 24.232 128.6 20.9779 128.594C17.7469 128.6 15.6624 127.552 15.6624 125.792C15.6624 124.008 17.7469 122.978 20.9779 122.972ZM14.2959 122.034V120.349H19.3682V117.732H21.4353V120.349H27.8278V122.034H14.2959ZM15.8187 116V114.362H26.2239V115.583C26.2239 116.759 26.2239 118.039 25.7954 119.567L23.7456 119.37C24.0815 118.021 24.122 117.014 24.1278 116H15.8187ZM17.7585 125.792C17.7469 126.602 18.9281 127.002 20.9779 127.008C23.0276 127.002 24.2204 126.602 24.2262 125.792C24.2204 124.97 23.0276 124.529 20.9779 124.529C18.9281 124.529 17.7469 124.97 17.7585 125.792Z" fill="black"/>
<path d="M12.2465 113.707V124.419H10.1504V113.707H12.2465ZM1.39689e-05 118.409C-0.00577626 116.226 1.78921 114.651 4.07637 114.651C6.36354 114.651 8.14694 116.226 8.14694 118.409C8.14694 120.627 6.36354 122.19 4.07637 122.19C1.78921 122.19 -0.00577626 120.627 1.39689e-05 118.409ZM2.04398 118.409C2.0324 119.654 2.91253 120.372 4.07637 120.372C5.20548 120.372 6.0856 119.654 6.0856 118.409C6.0856 117.199 5.20548 116.469 4.07637 116.469C2.91253 116.469 2.0324 117.199 2.04398 118.409ZM2.25822 128.339V123.337H4.37168V126.654H12.6402V128.339H2.25822Z" fill="black"/>
<path d="M232.913 173.688C232.604 173.688 232.34 173.578 232.119 173.357C231.898 173.136 231.788 172.872 231.788 172.563C231.788 172.239 231.898 171.967 232.119 171.746C232.34 171.526 232.604 171.415 232.913 171.415H237.569C237.466 171.209 237.363 171.003 237.26 170.798C237.172 170.592 237.091 170.408 237.017 170.246C236.87 169.908 236.841 169.562 236.929 169.209C237.017 168.856 237.245 168.598 237.613 168.437H234.259C233.965 168.437 233.708 168.334 233.487 168.128C233.281 167.907 233.178 167.65 233.178 167.356C233.178 167.061 233.281 166.811 233.487 166.605C233.708 166.385 233.965 166.274 234.259 166.274H240.768V165.149C240.768 164.723 240.908 164.377 241.187 164.112C241.482 163.847 241.827 163.715 242.224 163.715C242.622 163.715 242.96 163.847 243.239 164.112C243.534 164.377 243.681 164.723 243.681 165.149V166.274H250.123C250.417 166.274 250.668 166.385 250.873 166.605C251.094 166.811 251.204 167.061 251.204 167.356C251.204 167.65 251.094 167.907 250.873 168.128C250.668 168.334 250.417 168.437 250.123 168.437H246.968C247.306 168.613 247.512 168.871 247.586 169.209C247.659 169.547 247.623 169.878 247.476 170.202C247.402 170.364 247.314 170.555 247.211 170.775C247.108 170.981 247.005 171.195 246.902 171.415H251.469C251.793 171.415 252.065 171.526 252.286 171.746C252.506 171.967 252.617 172.239 252.617 172.563C252.617 172.872 252.506 173.136 252.286 173.357C252.065 173.578 251.793 173.688 251.469 173.688H232.913ZM240.393 184.367C239.187 184.367 238.238 184.242 237.547 183.992C236.87 183.756 236.392 183.345 236.113 182.756C235.848 182.183 235.715 181.396 235.715 180.395V178.785C235.715 177.77 235.848 176.975 236.113 176.402C236.392 175.828 236.87 175.424 237.547 175.188C238.238 174.938 239.187 174.813 240.393 174.813H244.078C245.299 174.813 246.24 174.938 246.902 175.188C247.579 175.424 248.049 175.828 248.314 176.402C248.594 176.975 248.733 177.77 248.733 178.785V180.395C248.733 181.396 248.594 182.183 248.314 182.756C248.049 183.345 247.579 183.756 246.902 183.992C246.24 184.242 245.299 184.367 244.078 184.367H240.393ZM240.437 171.415H244.034C244.181 171.062 244.335 170.672 244.497 170.246C244.659 169.819 244.806 169.422 244.938 169.054C245.041 168.804 245.21 168.598 245.446 168.437H238.981C239.246 168.584 239.43 168.797 239.533 169.077C239.665 169.415 239.812 169.805 239.974 170.246C240.15 170.687 240.305 171.077 240.437 171.415ZM240.371 182.16H244.078C244.813 182.16 245.306 182.065 245.556 181.874C245.806 181.668 245.938 181.249 245.953 180.616H238.518C238.532 181.249 238.665 181.668 238.915 181.874C239.165 182.065 239.65 182.16 240.371 182.16ZM238.518 178.52H245.953C245.938 177.887 245.799 177.476 245.534 177.284C245.284 177.093 244.799 176.998 244.078 176.998H240.371C239.65 176.998 239.165 177.093 238.915 177.284C238.679 177.476 238.547 177.887 238.518 178.52Z" fill="#4DC6E0"/>
<path d="M222.234 184.102C221.866 184.102 221.543 183.977 221.263 183.727C220.998 183.477 220.866 183.146 220.866 182.734V180.086C219.483 180.219 218.049 180.359 216.564 180.506C215.093 180.653 213.688 180.785 212.349 180.903C211.011 181.02 209.834 181.123 208.819 181.212C208.422 181.241 208.084 181.146 207.804 180.925C207.525 180.69 207.37 180.388 207.341 180.02C207.311 179.638 207.414 179.314 207.65 179.049C207.885 178.785 208.209 178.638 208.621 178.608C209.047 178.579 209.496 178.549 209.966 178.52C210.452 178.476 210.967 178.432 211.511 178.388V166.826H208.665C208.341 166.826 208.062 166.708 207.826 166.473C207.591 166.238 207.473 165.958 207.473 165.635C207.473 165.311 207.591 165.039 207.826 164.818C208.062 164.583 208.341 164.465 208.665 164.465H226.294C226.632 164.465 226.912 164.583 227.132 164.818C227.368 165.039 227.485 165.311 227.485 165.635C227.485 165.958 227.368 166.238 227.132 166.473C226.912 166.708 226.632 166.826 226.294 166.826H223.602V177.328C224.161 177.27 224.683 177.218 225.169 177.174C225.669 177.115 226.125 177.064 226.537 177.02C226.934 176.975 227.257 177.056 227.507 177.262C227.757 177.453 227.897 177.726 227.927 178.079C227.956 178.461 227.853 178.77 227.618 179.005C227.397 179.241 227.095 179.38 226.713 179.425C226.301 179.483 225.83 179.542 225.301 179.601C224.771 179.66 224.205 179.726 223.602 179.8V182.734C223.602 183.146 223.47 183.477 223.205 183.727C222.94 183.977 222.617 184.102 222.234 184.102ZM214.247 178.167C215.335 178.079 216.439 177.99 217.556 177.902C218.689 177.799 219.792 177.696 220.866 177.593V175.63H214.247V178.167ZM214.247 168.944H220.866V166.826H214.247V168.944ZM214.247 173.335H220.866V171.239H214.247V173.335Z" fill="#8DC642"/>
<defs>
<clipPath id="clip0_162_1493">
<rect width="178.277" height="146.064" fill="white" transform="translate(103.635)"/>
</clipPath>
</defs>
</svg>
