<svg width="200" height="200" viewBox="0 0 200 200" fill="none" xmlns="http://www.w3.org/2000/svg">
<path d="M99.9998 183.333C53.9761 183.333 16.6665 146.023 16.6665 100C16.6665 53.9763 53.9761 16.6667 99.9998 16.6667C146.023 16.6667 183.333 53.9763 183.333 100C183.333 146.023 146.023 183.333 99.9998 183.333ZM140.167 142.301C151.357 131.673 158.333 116.651 158.333 100C158.333 67.7834 132.217 41.6667 99.9998 41.6667C67.7833 41.6667 41.6665 67.7834 41.6665 100C41.6665 132.217 67.7833 158.333 99.9998 158.333C108.841 158.333 117.222 156.367 124.73 152.848L116.607 138.226C111.519 140.439 105.902 141.667 99.9998 141.667C76.988 141.667 58.3332 123.012 58.3332 100C58.3332 76.9882 76.988 58.3334 99.9998 58.3334C123.012 58.3334 141.667 76.9882 141.667 100H116.667L140.167 142.301Z" fill="#AC70AF"/>
</svg>
