<svg width="200" height="200" viewBox="0 0 200 200" fill="none" xmlns="http://www.w3.org/2000/svg">
<path d="M16.6663 74.9997H41.6663V175H16.6663C12.064 175 8.33301 171.269 8.33301 166.667V83.3331C8.33301 78.7307 12.064 74.9997 16.6663 74.9997ZM60.7738 64.2257L114.111 10.8884C115.577 9.42216 117.899 9.25724 119.557 10.5013L126.662 15.83C130.701 18.8593 132.521 24.0211 131.276 28.9138L121.665 66.6664H175C184.205 66.6664 191.666 74.1283 191.666 83.3331V100.869C191.666 103.047 191.24 105.202 190.411 107.215L164.625 169.839C163.339 172.962 160.296 175 156.919 175H66.6663C62.064 175 58.333 171.269 58.333 166.667V70.1182C58.333 67.9081 59.211 65.7885 60.7738 64.2257Z" fill="#31A8EB"/>
</svg>
