<svg width="59" height="66" viewBox="0 0 59 66" fill="none" xmlns="http://www.w3.org/2000/svg">
<path fill-rule="evenodd" clip-rule="evenodd" d="M22.1553 0L21.1165 2.11066C29.2037 5.38274 29.2372 9.81624 28.3436 17.1421L29.7399 17.2985C30.734 9.15736 31.1473 3.64061 22.1553 0Z" fill="#8A550F"/>
<path fill-rule="evenodd" clip-rule="evenodd" d="M17.4525 13.9371C24.8583 13.9371 27.8519 16.3381 29.1142 16.3381C30.3764 16.3381 33.37 13.9371 40.7759 13.9371C48.1817 13.9371 59.1397 25.596 58.1567 39.9685C57.1849 54.3523 44.0152 66 37.2461 66C30.4769 66 30.1418 65.263 29.1142 65.263C28.0865 65.263 27.7626 66 20.9823 66C14.2019 66 1.04344 54.3523 0.060463 39.9685C-0.911345 25.596 10.0466 13.9371 17.4525 13.9371Z" fill="#8BCC36"/>
<path opacity="0.84" fill-rule="evenodd" clip-rule="evenodd" d="M12.0237 21.2965C13.4759 22.3685 11.979 23.9543 10.3147 27.2487C8.6615 30.5432 7.46628 34.3066 6.01416 33.2457C4.56203 32.1736 4.72958 28.6335 6.39394 25.3391C8.04713 22.0447 10.5716 20.2355 12.0237 21.3076V21.2965Z" fill="#FEFEFE"/>
<path fill-rule="evenodd" clip-rule="evenodd" d="M4.2605 52.8447C8.94081 57.4122 13.7999 60.9858 25.3275 60.7401C36.8551 60.5056 45.378 57.0102 49.3658 47.6295C55.8222 32.4305 49.7009 11.7259 29.7174 16.2152C31.2477 15.735 34.353 13.9259 40.7759 13.9259C48.1817 13.9259 59.1397 25.5848 58.1567 39.9574C57.1849 54.3411 44.0153 65.9888 37.2461 65.9888C30.477 65.9888 30.1419 65.2518 29.1142 65.2518C28.0865 65.2518 27.7626 65.9888 20.9823 65.9888C16.4137 65.9888 8.94081 60.6843 4.2605 52.8335V52.8447Z" fill="#7FBD2E"/>
<path fill-rule="evenodd" clip-rule="evenodd" d="M52.7614 1.63049C50.5944 15.7127 43.1215 16.0254 29.762 16.0254C34.5987 3.67414 36.9556 -0.85987 52.7614 1.63049Z" fill="#79B309"/>
<g opacity="0.6">
<path d="M23.9758 22.1005C27.204 24.2893 31.8396 24.267 35.0455 22.0223C35.7604 21.5198 36.1513 20.5482 35.6375 19.7441C35.1795 19.0406 34.1295 18.6162 33.3588 19.1522C33.0348 19.3756 32.6886 19.5878 32.3311 19.7665C32.2529 19.8111 32.1636 19.8446 32.0742 19.8893C31.8508 20.001 32.3199 19.8 32.0742 19.8893C31.8955 19.9451 31.7279 20.0233 31.5492 20.0791C31.1694 20.202 30.7785 20.2802 30.3875 20.3583C30.2088 20.3918 30.2646 20.3583 30.4098 20.3583C30.3205 20.3583 30.2199 20.3807 30.1306 20.3807C29.9183 20.403 29.7061 20.403 29.4939 20.403C29.304 20.403 29.1141 20.403 28.9354 20.3918C28.846 20.3918 28.7455 20.3807 28.6561 20.3695C28.6226 20.3695 28.3098 20.336 28.5332 20.3695C28.7566 20.403 28.4439 20.3583 28.4104 20.3472C28.321 20.336 28.2316 20.3137 28.1311 20.2913C27.93 20.2467 27.7178 20.202 27.5168 20.135C27.338 20.0791 27.1593 20.0233 26.9806 19.9563C26.8912 19.9228 26.8019 19.8893 26.7237 19.8558C26.8689 19.9116 26.88 19.934 26.7348 19.8558C26.3551 19.6659 25.9864 19.4649 25.6402 19.2304C24.9141 18.739 23.7636 19.0741 23.3614 19.8223C22.9146 20.6599 23.1827 21.5756 23.9535 22.1005H23.9758Z" fill="#FEFEFE"/>
</g>
<g opacity="0.84">
<path d="M14.9169 20.7827L15.5425 20.5817C15.7547 20.5259 15.9446 20.4365 16.1121 20.2802C16.2909 20.1685 16.4361 20.0122 16.5366 19.8111C16.6595 19.6213 16.7265 19.4091 16.7377 19.1969C16.7824 18.9736 16.7824 18.7502 16.7042 18.538L16.5366 18.136C16.3914 17.8903 16.1903 17.6893 15.9446 17.5441L15.5425 17.3766C15.252 17.2985 14.9504 17.2985 14.66 17.3766L14.0345 17.5776C13.8223 17.6335 13.6324 17.7228 13.4648 17.8792C13.2861 17.9908 13.1409 18.1472 13.0403 18.3482C12.9175 18.538 12.8504 18.7502 12.8393 18.9624C12.7946 19.1858 12.7946 19.4091 12.8728 19.6213L13.0403 20.0233C13.1855 20.269 13.3866 20.47 13.6324 20.6152L14.0345 20.7827C14.3249 20.8609 14.6265 20.8609 14.9169 20.7827Z" fill="#FEFEFE"/>
</g>
<g opacity="0.48">
<path d="M45.177 25.0041C45.9142 25.1828 46.4951 25.6518 46.9084 26.3219C47.4781 27.2376 47.7015 28.332 47.8467 29.3929C48.193 31.8498 48.4052 34.329 48.6733 36.797C48.7738 37.6904 49.3658 38.4609 50.3376 38.4609C51.1642 38.4609 52.1025 37.7016 52.002 36.797C51.6669 33.8153 51.4993 30.7442 50.9297 27.796C50.4158 25.1493 48.8408 22.4802 46.0595 21.799C43.9818 21.2853 43.0994 24.4904 45.177 25.0041Z" fill="white" fill-opacity="0.6"/>
</g>
</svg>
