<svg width="60" height="60" viewBox="0 0 60 60" fill="none" xmlns="http://www.w3.org/2000/svg">
<rect width="60" height="60" rx="30" fill="#EB2E2E"/>
<path d="M43.8733 25.6517C46.4893 25.6517 48.6101 23.2673 48.6101 20.3259C48.6101 17.3845 46.4893 15 43.8733 15C41.2572 15 39.1365 17.3845 39.1365 20.3259C39.1365 23.2673 41.2572 25.6517 43.8733 25.6517Z" fill="white"/>
<path d="M15.7368 25.6517C18.3528 25.6517 20.4736 23.2673 20.4736 20.3259C20.4736 17.3845 18.3528 15 15.7368 15C13.1207 15 11 17.3845 11 20.3259C11 23.2673 13.1207 25.6517 15.7368 25.6517Z" fill="white"/>
<path d="M41.6191 45.3385C40.6138 45.3385 39.6642 44.7327 39.2758 43.7385C38.6142 42.0456 35.6224 37.6526 29.8041 37.6526C23.9858 37.6526 20.9939 42.0456 20.3323 43.7385C19.8269 45.0319 18.3681 45.6711 17.0748 45.1638C15.7814 44.6584 15.1421 43.1996 15.6494 41.9062C16.9057 38.6951 21.4808 32.6222 29.8041 32.6222C38.1274 32.6222 42.7025 38.6951 43.9587 41.9062C44.4641 43.1996 43.8267 44.6584 42.5334 45.1638C42.2323 45.2809 41.922 45.3366 41.6191 45.3366V45.3385Z" fill="white"/>
</svg>
