<svg width="64" height="64" viewBox="0 0 64 64" fill="none" xmlns="http://www.w3.org/2000/svg">
<path d="M53.3333 5.3335C54.8061 5.3335 56 6.52742 56 8.00016V18.0188L50.6667 23.3522V10.6668H13.3333V53.3335H50.6667V45.9788L56 40.6455V56.0002C56 57.473 54.8061 58.6668 53.3333 58.6668H10.6667C9.19392 58.6668 8 57.473 8 56.0002V8.00016C8 6.52742 9.19392 5.3335 10.6667 5.3335H53.3333ZM58.0752 23.4871L61.8464 27.2583L41.1045 48.0002L37.3277 47.9946L37.3333 44.229L58.0752 23.4871ZM34.6667 32.0002V37.3335H21.3333V32.0002H34.6667ZM42.6667 21.3335V26.6668H21.3333V21.3335H42.6667Z" fill="white"/>
</svg>
