<svg width="28" height="42" viewBox="0 0 28 42" fill="none" xmlns="http://www.w3.org/2000/svg">
<path d="M7.99805 40.9854C7.1611 40.9854 6.37849 40.8267 5.6524 40.5072C1.71545 38.7789 1.05892 33.0594 1.03284 32.8159C0.991532 32.4289 1.27197 32.0789 1.6611 32.0376C2.05023 31.9963 2.39805 32.2767 2.43936 32.6637C2.44805 32.7485 3.04806 37.8224 6.22414 39.2137C8.32197 40.1311 11.1589 39.2854 14.6568 36.6985C26.1263 28.2115 25.5741 16.4637 25.5676 16.3463C25.5676 16.3202 25.5676 16.2941 25.5676 16.2681C25.572 16.1833 25.922 7.60501 19.0263 3.8224C18.9002 3.75284 18.7741 3.68545 18.6481 3.62241C13.2285 0.833275 6.50458 3.0224 3.65458 8.50066C2.70892 10.3181 2.30023 11.8768 2.43936 13.1311C2.48284 13.5181 2.2024 13.8681 1.81545 13.9115C1.42632 13.955 1.07849 13.6746 1.03501 13.2876C0.863272 11.7485 1.32414 9.92023 2.40023 7.84849C5.60675 1.68328 13.185 -0.77542 19.2937 2.36806C19.4307 2.43762 19.5676 2.51154 19.7046 2.58545C22.8915 4.33328 25.1611 7.27023 26.2654 11.0768C27.0459 13.7615 26.9915 15.9724 26.9785 16.3028C26.9959 16.6941 27.0828 19.6833 25.8133 23.6941C24.5872 27.5702 21.8002 33.1702 15.4959 37.8354C12.6611 39.9333 10.1502 40.9854 7.99805 40.9854Z" fill="white" stroke="white"/>
<path d="M9.91999 35.7702C8.91129 35.7702 7.8439 35.4898 6.80477 34.7463C6.48738 34.5203 6.41346 34.0789 6.63955 33.7616C6.86564 33.4442 7.30694 33.3703 7.62434 33.5963C10.4113 35.5876 13.2287 33.0985 13.4004 32.942C13.5287 32.8181 13.6548 32.6942 13.7787 32.5702C18.0896 28.2485 20.5613 22.1833 20.5613 15.9268V14.6659C20.5613 12.0007 19.1939 9.53982 16.9895 8.24416C16.0309 7.68112 14.9656 7.34416 13.8222 7.24416C12.52 7.13112 11.3439 7.43329 10.3287 8.14416C8.09607 9.70721 7.35477 12.7072 8.56781 15.2789C9.18086 16.5768 9.86781 17.6811 10.3374 18.3789C10.633 18.8202 10.7048 19.3594 10.5287 19.8616C10.3526 20.3681 9.95694 20.7529 9.4439 20.9181C6.43738 21.8789 6.25042 23.0116 6.24825 23.0224C6.2526 22.9942 6.24825 22.9789 6.24825 22.9789H4.83521C4.83521 22.6333 5.03738 20.8442 9.01129 19.5746C9.12868 19.5376 9.17433 19.4485 9.19173 19.4007C9.21129 19.3442 9.22216 19.2594 9.16129 19.1702C8.66346 18.4311 7.9352 17.2637 7.2852 15.8855C5.77868 12.6898 6.71564 8.94851 9.51346 6.98981C10.8091 6.08329 12.2982 5.69851 13.9396 5.83982C15.2939 5.95721 16.5613 6.35721 17.7026 7.02895C20.3352 8.57677 21.97 11.505 21.97 14.6702V15.9311C21.97 22.5594 19.3482 28.9876 14.7743 33.5724C14.6417 33.705 14.5069 33.8376 14.37 33.9702C13.5135 34.7659 11.8243 35.7746 9.91564 35.7746L9.91999 35.7702Z" fill="white" stroke="white"/>
</svg>
