<svg width="60" height="60" viewBox="0 0 60 60" fill="none" xmlns="http://www.w3.org/2000/svg">
<rect width="60" height="60" rx="30" fill="#75B125"/>
<path d="M43.8733 24.6517C46.4893 24.6517 48.6101 22.2673 48.6101 19.3259C48.6101 16.3845 46.4893 14 43.8733 14C41.2572 14 39.1365 16.3845 39.1365 19.3259C39.1365 22.2673 41.2572 24.6517 43.8733 24.6517Z" fill="white"/>
<path d="M15.7368 24.6517C18.3528 24.6517 20.4736 22.2673 20.4736 19.3259C20.4736 16.3845 18.3528 14 15.7368 14C13.1207 14 11 16.3845 11 19.3259C11 22.2673 13.1207 24.6517 15.7368 24.6517Z" fill="white"/>
<path d="M29.804 45.1989C21.4789 45.1989 16.9056 39.126 15.6494 35.9148C15.144 34.6215 15.7814 33.1627 17.0747 32.6573C18.3681 32.1518 19.8269 32.7892 20.3323 34.0826C20.9939 35.7755 23.9857 40.1685 29.804 40.1685C35.6224 40.1685 38.6142 35.7755 39.2758 34.0807C39.7812 32.7873 41.24 32.1499 42.5333 32.6554C43.8267 33.1609 44.4641 34.6196 43.9587 35.913C42.7024 39.1241 38.1273 45.197 29.804 45.197V45.1989Z" fill="white"/>
</svg>
