<svg width="800" height="60" viewBox="0 0 800 60" fill="none" xmlns="http://www.w3.org/2000/svg">
<path d="M44.2322 48.3914C55.2902 44.3884 54.2849 38.384 66.3483 40.3855C79.6179 42.5871 87.2178 48.0512 101.231 42.6071C108.489 39.765 110.5 32.6598 118.643 34.5412C126.102 36.2624 132.355 32.2194 139.733 30.3781C149.384 27.9763 159.075 36.1824 168.203 39.4048C182.458 44.4285 192.229 38.7242 205.458 34.7813C220.497 30.298 232.179 37.3632 246.594 39.9852C256.124 41.7065 262.639 32.2595 271.425 38.384C279.286 43.8681 282.804 48.3514 293.018 49.232C305.725 50.3529 313.968 39.0245 325.951 36.8829C328.947 36.3425 331.862 36.8829 334.737 37.8636C337.13 38.7042 339.281 40.0652 341.533 41.2061C345.574 43.2476 349.977 44.2684 354.461 44.3284C358.884 44.3884 362.965 42.0467 367.308 42.3069C372.274 42.6071 376.657 45.6494 380.799 48.0512C387.775 52.1142 396.421 52.2343 404.061 50.2128C411.239 48.3114 417.431 43.2676 422.377 38.0838C427.263 32.96 432.691 41.2461 438.301 40.3855C446.182 39.1846 449.298 30.318 458.105 32.7798C467.192 35.3217 475.094 42.5471 484.543 45.2491C494.878 48.2113 500.769 42.7672 510.319 41.4062C518.28 40.2654 525.921 45.169 534.104 44.2884C538.165 43.848 541.382 41.3262 545.242 40.3454C551.535 38.7443 557.084 41.6064 563.277 41.8265C571.339 42.1268 573.028 37.8036 578.999 34.4211C591.404 27.3558 603.407 34.4211 612.073 42.3469C623.814 53.0348 636.441 47.1305 648.202 40.4855C659.12 34.321 670.922 42.0467 681.658 44.5686C686.745 45.7695 692.012 45.7495 696.174 42.2068C698.868 39.9251 700.376 37.9837 704.076 37.023C709.826 35.5019 712.741 39.2246 716.461 42.7472C720.703 46.7902 726.453 47.4907 731.52 44.4685C736.466 41.5063 741.552 40.2854 746.679 43.4477C747.785 44.1282 748.831 44.7887 749.816 45.3692C753.676 47.6509 756.993 48.9518 762.342 47.1305C769.861 44.5886 778.526 33.9607 785.463 44.0482C786.89 46.1698 793.244 60.1401 798.19 59.1994C798.712 59.1194 799.215 58.8592 799.698 58.3988C800.18 57.9385 800.039 56.9377 799.597 55.7168C798.572 52.9548 802.998 49.0519 802.918 47.7309C802.857 46.8703 802.817 46.0096 802.797 45.149C802.697 42.3269 802.737 39.5248 802.857 36.7228C802.918 35.5419 802.938 34.381 802.938 33.1801V33.04C802.938 28.7168 800.676 24.3736 801.099 20.1105C801.521 15.9474 802.385 11.9444 802.124 7.76132C800.114 6.68052 798.023 6.42032 795.751 6.10009C788.714 5.09935 776.717 5.01929 769.62 5.35954C762.462 5.71981 755.948 4.61899 749.032 3.9585C739.622 3.05783 728.725 2.49742 719.436 4.09861C714.148 4.99927 709.464 6.28022 704.337 6.80061C653.611 4.09861 605.116 -3.04669 554.913 4.3588C495.601 13.3655 440.311 3.35806 381 0.355833C350.842 -1.64565 320.683 5.35954 291.53 7.36102C263.383 9.3625 235.235 6.36028 208.092 3.35806C164.865 -0.644908 120.633 16.3677 78.4116 8.36176C57.3008 3.35806 37.1952 -2.64639 14.0739 1.35657C9.4496 2.49742 4.82533 4.31877 0 5.45961V60C6.29303 58.5589 13.8527 53.8154 22.1161 51.3936C29.153 49.3922 37.1952 51.3936 44.2322 48.3914Z" fill="#66A400"/>
</svg>
