<svg width="798" height="403" viewBox="0 0 798 403" fill="none" xmlns="http://www.w3.org/2000/svg">
<mask id="mask0_144_2028" style="mask-type:luminance" maskUnits="userSpaceOnUse" x="-2" y="0" width="800" height="403">
<path d="M798 0H-1.49072V403H798V0Z" fill="white"/>
</mask>
<g mask="url(#mask0_144_2028)">
<path d="M346.776 252.002C344.644 237.77 340.815 219.465 322.776 212.052C308.766 206.294 287.365 204.894 274.649 214.11C271.902 194.384 252.346 184.839 236.141 198.562C240.84 174.435 234.646 149.375 207.083 141.973C183.2 135.556 160.07 140.859 148.786 162.345C145.318 146.947 122.814 141.559 112.219 153.129C108.146 111.461 27.7268 87.0798 -1.94674 115.078C-13.4428 125.927 -15.5639 144.719 -19.4454 159.09C-25.3419 180.883 -30.0719 203.706 -29.3507 226.454C-28.5978 250.146 -22.4679 273.372 -23.5497 297.075C-23.9845 306.503 -26.9964 316.928 -25.2677 326.229C58.8002 330.046 146.591 328.222 230.202 318.635C255.793 315.697 281.15 310.681 306.751 307.881C323.264 306.079 340.349 306.991 356.575 303.48C355.61 287.901 349.968 262.65 338.376 251.79" fill="white"/>
<path d="M476.69 321.594C494.878 308.189 512.112 289.428 532.474 279.491C538.232 276.681 544.394 275.631 550.545 274.04C560.016 271.59 568.765 266.054 578.299 264.336C576.878 258.015 575.669 250.91 572.816 245.013C569.221 237.558 565.795 229.487 561.044 222.711C556.823 216.697 551.118 213.261 545.72 208.542C541.987 205.276 540.322 201.15 537.288 197.364C529.419 187.544 516.534 181.414 503.935 183.068C488.918 185.051 469.659 194.49 463.221 208.807C451.025 193.058 429.316 194.522 422.083 214.491C414.151 191.234 396.302 172.569 368.718 179.865C344.803 186.186 327.378 202.295 328.291 226.55C317.611 214.916 295.414 221.449 291.989 236.763C267.724 202.656 185.83 221.523 174.026 260.582C169.455 275.716 176.975 293.066 180.75 307.468C186.477 329.293 193.742 351.448 205.683 370.824C218.123 390.995 235.007 408.091 245.866 429.184C250.183 437.584 252.76 448.115 258.89 455.326C333.71 416.797 408.933 371.524 476.69 321.583V321.594Z" fill="white"/>
<path d="M445.692 308.85C447.664 294.597 451.291 276.25 469.246 268.635C483.192 262.717 504.583 261.084 517.394 270.162C519.918 250.405 539.368 240.648 555.722 254.191C550.758 230.127 556.676 204.993 584.144 197.283C607.963 190.602 631.146 195.65 642.663 217.009C645.962 201.567 668.413 195.925 679.124 207.39C682.741 165.679 762.874 140.407 792.866 168.076C804.489 178.798 806.801 197.559 810.852 211.897C816.993 233.617 821.967 256.386 821.5 279.145C821.012 302.837 815.137 326.137 816.484 349.818C817.025 359.246 820.153 369.629 818.52 378.951C734.494 383.702 655.718 429.154 572 420.5C546.388 417.849 522.133 423.014 496.5 420.5C479.967 418.878 452.702 363.764 436.444 360.434C437.239 344.845 442.595 319.53 454.07 308.543" fill="white"/>
<path d="M563.301 156.633C571.605 138.53 593.08 135.019 604.651 152.826C607.09 128.37 620.241 106.152 648.758 106.99C673.479 107.722 694.106 119.451 698.73 143.281C706.493 129.526 729.591 130.841 736.411 144.978C752.297 106.247 836.333 106.035 856.696 141.393C864.586 155.095 861.203 173.697 860.789 188.587C860.163 211.144 858.127 234.37 850.894 255.941C843.365 278.413 830.797 298.892 825.018 321.905C822.716 331.058 822.6 341.918 818.273 350.328C736.655 329.785 653.117 302.784 575.794 269.537C552.134 259.366 529.3 247.255 505.576 237.212C490.284 230.732 473.655 226.691 459.136 218.653C457.068 217.507 479.233 184.482 481.046 181.311C486.943 171.035 492.15 157.375 502.883 151.023C513.88 144.511 528.643 142.252 541.115 144.023C544.222 144.469 565.698 151.426 563.301 156.633Z" fill="white"/>
</g>
</svg>
