<svg width="800" height="93" viewBox="0 0 800 93" fill="none" xmlns="http://www.w3.org/2000/svg">
<path d="M794.98 18.958C792.96 19.1177 790.92 19.2375 788.9 19.3374C786.1 19.4572 783.52 20.4756 780.8 20.8151C777.48 21.2144 774.14 21.474 770.8 21.4341C766.82 21.3941 762.92 20.9948 758.94 21.0147C752.22 21.0347 745.52 20.6353 738.8 20.3158C736.26 20.196 733.74 20.0762 731.2 19.9963C705.9 19.1776 680.84 20.7551 655.5 20.7551C645.74 20.7551 635.98 16.5618 626.32 17.6001C622.9 17.9596 619.52 18.2591 616.14 18.4388C609.54 18.7982 602.96 18.7383 596.18 18.1393C540.18 13.1472 490.18 25.1282 435.18 29.1219C380.18 33.1155 323.18 17.1409 267.18 14.1456C208.18 11.1504 151.18 32.1171 92.18 27.125C61.3 24.8686 29.3 15.2639 0 18.319V34.8927C5.22 33.0357 10.48 31.4981 16.18 31.1187C30.18 30.1203 45.18 33.1155 59.18 32.1171C99.18 30.1203 138.18 45.0966 179.18 40.1045C200.18 37.1092 219.18 25.1282 242.18 23.1314C267.18 21.1345 292.18 25.1282 316.18 30.1203C373.18 41.1029 426.18 53.0839 483.18 39.1061C508.18 32.1171 532.18 21.1345 558.18 23.1314C588.78 24.7488 619.46 23.5707 649.94 26.6059C668.04 28.403 685.64 31.8376 704.1 29.6011C719.22 27.764 734.74 27.2249 749.78 29.9406C758.92 31.598 767.4 35.6515 776.44 37.5885C779.5 38.2474 790.58 39.3457 794.38 36.8696V37.0293C796.28 36.3105 798.16 35.5916 800.04 34.9127V18.339C798.4 18.5187 796.78 18.7184 795.16 18.978C795.1 18.978 795.08 18.978 795.02 18.978L794.98 18.958ZM794.34 29.3216C794.3 28.9621 794.28 28.6227 794.32 28.3032C794.32 28.2632 794.32 28.2233 794.34 28.1834V29.3216Z" fill="#AB6033"/>
<path opacity="0.2" d="M796.46 1.56557C796.26 1.5456 796.08 1.56557 795.88 1.56557C795.72 1.56557 795.54 1.5456 795.38 1.52563V1.56557C792.18 1.78522 788.86 4.50092 785.74 5.21978C780.62 6.39791 775.1 5.99854 769.8 5.77889C758.68 5.29965 747.76 3.42263 736.48 3.54244C721.18 3.68221 706.32 7.21661 691.18 9.09363C671.14 11.5897 649.54 10.731 629.92 6.47779C625.04 5.41946 620.08 4.50092 615.24 4.04164C612.32 3.76209 609.48 3.22294 606.54 2.96336C596.84 2.12469 587.24 1.20614 577.5 1.00646C567.5 0.786804 557.5 0.866678 547.5 0.547184C520.2 -0.271518 494.14 12.4683 467 15.7032C442.48 18.6385 412.76 22.9317 388.6 15.7032C368.4 9.65275 340.12 3.74212 319 1.5456C272.64 -3.28674 235.66 7.19664 188.5 5.53927C153.78 4.3212 116.12 6.47778 81.5 10.0721C65.4 11.7295 45.74 11.1504 29.5 10.0721C19.54 9.39316 12.7 3.62231 2.84 2.20456C1.92 2.08475 0.96 2.00487 0 1.90503V6.39791C6.14 7.45623 15.18 11.2303 19.82 11.8692C32.64 13.6464 46.32 14.1456 59.32 13.6864C84.34 12.8277 109.9 11.3301 134.66 8.21503C158.76 5.17984 183.26 7.8556 207.32 8.89395C234.88 10.0521 262 3.86193 289.5 3.04323C321.2 2.10472 350.18 10.5513 380.14 18.9979C407.98 26.8455 443.14 23.3111 471.18 18.359C501.16 13.0673 529.42 3.70218 560 3.70218C579.06 3.70218 597.34 8.15513 616.04 10.6512C636.32 13.3469 656.8 14.7846 677.28 14.4052C687.56 14.2255 697.84 13.5865 708.08 12.4683C721.08 11.0306 734.44 8.39475 747.5 8.2949C756.96 8.21503 766.1 9.53294 775.5 9.53294C780.58 9.53294 785.08 9.21344 789.76 8.27493C791.08 8.01534 794.32 6.89712 795.54 6.33801C796.64 6.01851 798.2 6.11835 800 6.41787V1.88506C798.84 1.78522 797.66 1.68538 796.46 1.62548V1.58554V1.56557Z" fill="#CB8B60"/>
<path opacity="0.2" d="M792.62 41.3426C789.7 41.6022 785.68 42.4209 782.98 43.619C773.36 47.8922 766.08 53.0241 755.08 52.425C740.5 51.6063 725.86 47.6126 711.14 50.4282C696.84 53.1439 683.24 60.3724 668.4 60.3524C660.34 60.3524 652.62 58.755 644.78 58.755C599.7 56.6783 548.5 84.2945 503.44 73.9509C444.52 60.4523 391.22 43.0998 329.54 45.5559C295.14 46.9137 266.74 56.7781 233.86 64.1265C211.44 69.1385 171.22 68.839 149.06 64.426C96.9598 54.0225 53.0398 41.7819 0.0197754 41.4225V45.6158C12.3798 46.6941 34.3598 46.8738 39.3598 46.9736C67.8998 47.6126 92.6398 58.136 120.28 63.5474C169.26 73.1322 220.54 72.633 268.42 59.9331C310.56 48.7708 348.98 47.8922 391.58 54.0025C433.42 59.973 473.6 75.7081 516.1 78.7832C542.18 80.6602 569.02 77.9845 594.24 71.7943C611.66 67.5211 627.34 63.4875 644.84 62.7287C650.72 63.168 655.12 66.6225 661.76 66.0434C672.64 65.1049 683.34 60.2127 694.06 57.6367C704.56 55.1008 714.9 54.1623 725.76 54.7014C735.82 55.2006 745.62 58.2158 755.76 57.7366C764.88 57.2973 771.84 53.8627 780.08 50.3084C784.82 48.2716 788.64 44.5774 795.88 45.1765C797.08 45.3362 798.46 45.476 800 45.6158V41.4424C798.32 41.4424 796.66 41.4025 794.98 41.4025C794.48 41.2827 793.72 41.2827 792.62 41.4025V41.3426Z" fill="#CB8B60"/>
<path d="M794.34 55.1207C787.14 55.8196 785.84 57.0376 781 58.4953C776.04 59.973 769.6 65.5242 758.92 67.6808C753.92 68.6792 748.76 67.9603 743.74 68.5793C738.28 69.2583 733.3 71.0953 728 72.4931C716.4 75.5283 705 72.573 693.32 72.573C682.46 72.573 671.9 76.2671 661.08 76.2272C657.56 76.2272 653.78 76.2671 650.08 76.0874C650.04 76.0874 650 76.1074 649.94 76.1074C646.32 76.2072 641.44 75.069 641.44 75.0491C638.24 74.4301 635.12 73.7312 631.7 73.6713C621.86 73.4716 612.12 75.069 602.34 75.708C582.74 76.9461 562.34 79.2824 543.14 83.316C493.58 93.6995 445.28 82.3575 395.82 76.7064C347.66 71.2152 300.06 73.1321 251.96 77.1058C226.24 79.2225 200.76 79.5619 174.94 77.8646C147.36 76.0675 121.3 69.7375 94.14 65.8037C69.48 62.2294 44.82 55.2605 19.86 54.302C13.34 54.0624 6.66 54.4417 0 54.7812V67.3014C21.78 64.0066 43.84 62.2893 65.4 66.7822C96.84 73.3518 127.38 88.9071 159.32 92.0222C179.98 94.039 200.46 88.5077 221.2 87.8488C247.7 87.0101 274.48 86.6706 300.98 86.3911C328.54 86.1115 355.46 81.7784 382.98 82.8767C413.68 84.1147 444.3 88.7474 474.8 89.8856C510.84 91.2434 545.96 84.6738 581.78 81.379C590.72 80.5603 599.64 79.522 608.62 79.0827C617.64 78.6633 626.8 78.7832 635.7 80.6003C637.32 80.9397 638.92 81.3191 640.52 81.7784C641.64 82.0979 642.78 82.1977 643.94 82.4374C645.3 82.7369 646.76 82.8966 648.14 82.9366C649.94 82.9965 651.74 82.9565 653.54 82.7569C655.2 82.5771 656.76 82.1378 658.34 81.6586C664.56 79.7816 667.06 79.9813 673.34 78.8031C680.36 77.4852 687.84 77.2456 695.02 77.8846C701.54 78.4637 708 79.8814 714.68 79.5419C721.56 79.2025 727.66 74.0706 734.68 73.2919C741.48 72.5331 748.76 73.5914 755.34 74.6297C763.42 75.8877 770.86 76.1274 778.68 72.6329C781.22 71.4947 783.54 70.2567 786.2 69.4579C788.84 68.6592 791.84 68.3397 794.62 68.18C794.62 68.18 794.62 68.16 794.62 68.14C796.42 67.8405 798.2 67.5609 800 67.3014V54.7812C798.12 54.881 796.22 54.9809 794.34 55.0408V55.1007V55.1207Z" fill="#AB6033"/>
</svg>
