<svg width="800" height="443" viewBox="0 0 800 443" fill="none" xmlns="http://www.w3.org/2000/svg">
<rect y="306" width="800" height="317" fill="white"/>
<mask id="mask0_66_12503" style="mask-type:luminance" maskUnits="userSpaceOnUse" x="-2" y="0" width="800" height="403">
<path d="M798 0H-1.49072V403H798V0Z" fill="white"/>
</mask>
<g mask="url(#mask0_66_12503)">
<path d="M346.776 252.002C344.644 237.77 340.815 219.465 322.776 212.052C308.766 206.294 287.365 204.894 274.649 214.11C271.902 194.384 252.346 184.839 236.141 198.562C240.84 174.435 234.646 149.375 207.083 141.973C183.2 135.556 160.07 140.859 148.786 162.345C145.318 146.947 122.814 141.559 112.219 153.129C108.146 111.461 27.7268 87.0798 -1.94674 115.078C-13.4428 125.927 -15.5639 144.719 -19.4454 159.09C-25.3419 180.883 -30.0719 203.706 -29.3507 226.454C-28.5978 250.146 -22.4679 273.372 -23.5497 297.075C-23.9845 306.503 -26.9964 316.928 -25.2677 326.229C58.8002 330.046 146.591 328.222 230.202 318.635C255.793 315.697 281.15 310.681 306.751 307.881C323.264 306.079 340.349 306.991 356.575 303.48C355.61 287.901 349.968 262.65 338.376 251.79" fill="white"/>
<path d="M476.69 321.594C494.878 308.189 512.112 289.428 532.474 279.491C538.232 276.681 544.394 275.631 550.545 274.04C560.016 271.59 568.765 266.054 578.299 264.336C576.878 258.015 575.669 250.91 572.816 245.013C569.221 237.558 565.795 229.487 561.044 222.711C556.823 216.697 551.118 213.261 545.72 208.542C541.987 205.276 540.322 201.15 537.288 197.364C529.419 187.544 516.534 181.414 503.935 183.068C488.918 185.051 469.659 194.49 463.221 208.807C451.025 193.058 429.316 194.522 422.083 214.491C414.151 191.234 396.302 172.569 368.718 179.865C344.803 186.186 327.378 202.295 328.291 226.55C317.611 214.916 295.414 221.449 291.989 236.763C267.724 202.656 185.83 221.523 174.026 260.582C169.455 275.716 176.975 293.066 180.75 307.468C186.477 329.293 193.742 351.448 205.683 370.824C218.123 390.995 235.007 408.091 245.866 429.184C250.183 437.584 252.76 448.115 258.89 455.326C333.71 416.797 408.933 371.524 476.69 321.583V321.594Z" fill="white"/>
<path d="M445.692 308.85C447.664 294.597 451.291 276.25 469.246 268.635C483.192 262.717 504.583 261.084 517.394 270.162C519.918 250.405 539.368 240.648 555.722 254.191C550.758 230.127 556.676 204.993 584.144 197.283C607.963 190.602 631.146 195.65 642.663 217.009C645.962 201.567 668.413 195.925 679.124 207.39C682.741 165.679 762.874 140.407 792.866 168.076C804.489 178.798 806.801 197.559 810.852 211.897C816.993 233.617 821.967 256.386 821.5 279.145C821.012 302.837 815.137 326.137 816.484 349.818C817.025 359.246 820.153 369.629 818.52 378.951C734.494 383.702 655.718 429.154 572 420.5C546.388 417.849 522.133 423.014 496.5 420.5C479.967 418.878 452.702 363.764 436.444 360.434C437.239 344.845 442.595 319.53 454.07 308.543" fill="white"/>
<path d="M563.301 156.633C571.605 138.53 593.08 135.019 604.651 152.826C607.09 128.37 620.241 106.152 648.758 106.99C673.479 107.722 694.106 119.451 698.73 143.281C706.493 129.526 729.591 130.841 736.411 144.978C752.297 106.247 836.333 106.035 856.696 141.393C864.586 155.095 861.203 173.697 860.789 188.587C860.163 211.144 858.127 234.37 850.894 255.941C843.365 278.413 830.797 298.892 825.018 321.905C822.716 331.058 822.6 341.918 818.273 350.328C736.655 329.785 653.117 302.784 575.794 269.537C552.134 259.366 529.3 247.255 505.576 237.212C490.284 230.732 473.655 226.691 459.136 218.653C457.068 217.507 479.233 184.482 481.046 181.311C486.943 171.035 492.15 157.375 502.883 151.023C513.88 144.511 528.643 142.252 541.115 144.023C544.222 144.469 565.698 151.426 563.301 156.633Z" fill="white"/>
</g>
<g filter="url(#filter0_f_66_12503)">
<g clip-path="url(#clip0_66_12503)">
<path fill-rule="evenodd" clip-rule="evenodd" d="M179.05 258.21C180.92 248.19 179.33 239.5 171.72 232.78C165.38 227.18 160.8 225 152.52 224.51C159.77 214.16 159.08 198.71 147.04 192.17C135.83 186.08 119.53 186.76 109.86 195.46C99.3099 204.96 91.2799 222.65 103.96 233.4C99.4699 229.59 91.3399 238.04 88.9399 241.28C77.9799 256.09 84.9899 285.37 106.65 284.18C115.15 283.71 125.07 282.51 131.39 276.21C130.52 277.07 141.29 282.16 142.57 282.51C149.87 284.52 158.18 283.16 164.82 279.68C172.5 275.65 177.36 267.22 179.04 258.2L179.05 258.21Z" fill="#B3E492" stroke="#B3E492" stroke-width="4.34" stroke-linecap="round" stroke-linejoin="round"/>
<path d="M136.89 276.92C136.86 276.37 136.85 276.07 136.85 276.07L129.79 268.27L124.22 314.29L138.71 314.55C138.41 307.99 138.1 303.07 137.8 296.51C137.59 291.93 137.38 287.36 137.16 282.78C137.02 279.68 136.08 274.71 137.83 271.92C137.35 272.68 136.55 272.98 135.93 273.57C135.35 274.12 134.91 274.84 134.37 275.45" fill="#71523A"/>
<path d="M131.66 277.42C131.66 267.5 132.49 257.91 132.49 247.96" stroke="#71523A" stroke-width="4.34" stroke-linecap="round" stroke-linejoin="round"/>
<path d="M133.32 277C137.65 270.9 144.45 262.98 146.6 255.84" stroke="#71523A" stroke-width="4.34" stroke-linecap="round" stroke-linejoin="round"/>
<path d="M143.28 265.38C146.47 265.47 148.95 264.6 151.99 264.13" stroke="#71523A" stroke-width="4.34" stroke-linecap="round" stroke-linejoin="round"/>
<path d="M122.53 255.42C125.21 256.96 127.84 258.73 130.83 259.57" stroke="#71523A" stroke-width="4.34" stroke-linecap="round" stroke-linejoin="round"/>
<path d="M109.25 264.97C116.15 267.1 123.08 272.16 130 274.1" stroke="#71523A" stroke-width="4.34" stroke-linecap="round" stroke-linejoin="round"/>
<path d="M111.74 275.34C113.61 274.44 116.82 271.42 118.8 270.77" stroke="#71523A" stroke-width="4.34" stroke-linecap="round" stroke-linejoin="round"/>
<path d="M129.67 292.65V296.01" stroke="#9B765D" stroke-width="2.01" stroke-linecap="round" stroke-linejoin="round"/>
<path d="M134.71 301.38V305.41" stroke="#9B765D" stroke-width="2.01" stroke-linecap="round" stroke-linejoin="round"/>
<path d="M132.69 286.94C132.91 288.24 133.15 289.62 133.03 290.97" stroke="#9B765D" stroke-width="2.01" stroke-linecap="round" stroke-linejoin="round"/>
<path d="M120.36 208.68C124.02 203.19 114.44 199.9 112.21 204.32C109.63 209.43 117.16 213.47 120.36 208.68Z" stroke="white" stroke-width="2.01" stroke-linecap="round" stroke-linejoin="round"/>
<path d="M133.45 197.1C137.12 191.61 127.53 188.32 125.3 192.74C122.72 197.85 130.25 201.89 133.45 197.1Z" stroke="white" stroke-width="2.01" stroke-linecap="round" stroke-linejoin="round"/>
<path d="M150.15 206.05C153.82 200.56 144.23 197.27 142 201.69C139.42 206.8 146.95 210.84 150.15 206.05Z" stroke="white" stroke-width="2.01" stroke-linecap="round" stroke-linejoin="round"/>
<path d="M110.37 230.21C114.03 224.72 104.45 221.43 102.22 225.85C99.64 230.96 107.17 235.01 110.37 230.21Z" stroke="white" stroke-width="2.01" stroke-linecap="round" stroke-linejoin="round"/>
<path d="M133.53 223.16C137.2 217.67 127.61 214.38 125.38 218.8C122.8 223.91 130.33 227.95 133.53 223.16Z" stroke="white" stroke-width="2.01" stroke-linecap="round" stroke-linejoin="round"/>
<path d="M158.2 234.75C161.86 229.26 152.28 225.97 150.05 230.39C147.47 235.5 155 239.54 158.2 234.75Z" stroke="white" stroke-width="2.01" stroke-linecap="round" stroke-linejoin="round"/>
<path d="M104.83 252.37C108.5 246.88 98.91 243.59 96.68 248.01C94.1 253.12 101.63 257.17 104.83 252.37Z" stroke="white" stroke-width="2.01" stroke-linecap="round" stroke-linejoin="round"/>
<path d="M95.7699 265.96C99.4399 260.47 89.8499 257.18 87.6199 261.6C85.0399 266.71 92.5699 270.76 95.7699 265.96Z" stroke="white" stroke-width="2.01" stroke-linecap="round" stroke-linejoin="round"/>
<path d="M123.46 242.8C127.13 237.31 117.54 234.02 115.31 238.44C112.73 243.55 120.26 247.59 123.46 242.8Z" stroke="white" stroke-width="2.01" stroke-linecap="round" stroke-linejoin="round"/>
<path d="M145.11 245.82C148.78 240.33 139.19 237.04 136.96 241.46C134.38 246.57 141.91 250.61 145.11 245.82Z" stroke="white" stroke-width="2.01" stroke-linecap="round" stroke-linejoin="round"/>
<path d="M153.67 279.56C157.34 274.07 147.75 270.78 145.52 275.2C142.94 280.31 150.47 284.35 153.67 279.56Z" stroke="white" stroke-width="2.01" stroke-linecap="round" stroke-linejoin="round"/>
<path d="M106.84 279.56C110.5 274.07 100.92 270.78 98.69 275.2C96.11 280.31 103.64 284.35 106.84 279.56Z" stroke="white" stroke-width="2.01" stroke-linecap="round" stroke-linejoin="round"/>
<path d="M163.74 256.4C167.41 250.91 157.82 247.62 155.59 252.04C153.01 257.15 160.54 261.2 163.74 256.4Z" stroke="white" stroke-width="2.01" stroke-linecap="round" stroke-linejoin="round"/>
<path d="M169.79 269.99C173.45 264.5 163.87 261.21 161.64 265.63C159.06 270.74 166.59 274.79 169.79 269.99Z" stroke="white" stroke-width="2.01" stroke-linecap="round" stroke-linejoin="round"/>
<path d="M177.34 249.35C181.01 243.86 171.42 240.57 169.19 244.99C166.61 250.1 174.14 254.14 177.34 249.35Z" stroke="white" stroke-width="2.01" stroke-linecap="round" stroke-linejoin="round"/>
<mask id="mask1_66_12503" style="mask-type:luminance" maskUnits="userSpaceOnUse" x="-16" y="181" width="82" height="106">
<path d="M-15.53 271.39C-15.84 266.05 -12.27 260.51 -7.93005 256.11C-4.07005 252.19 0.829952 249.08 -1.62005 244.14C-5.55005 236.21 -4.28005 229.68 -0.350047 222.56C4.95995 212.92 7.61995 208.41 8.93995 197C9.81995 189.35 14.7899 178.94 24.0499 182.76C31.5799 185.87 33.0099 197.55 36.7399 203.7C40.7499 210.3 51.1 215.08 50.05 223.83C49.29 230.15 46.95 235.46 50.85 241.83C54.77 248.22 64.64 250.6 65.62 258.99C66.43 265.93 63.18 275.62 54.16 279.82C44.2 284.46 29.02 285.7 17.8899 286.29C4.71995 286.99 -10.42 284.77 -14.65 275.05C-15.17 273.85 -15.45 272.63 -15.52 271.39H-15.53Z" fill="white"/>
</mask>
<g mask="url(#mask1_66_12503)">
<path fill-rule="evenodd" clip-rule="evenodd" d="M-15.53 271.39C-15.84 266.05 -12.27 260.51 -7.93005 256.11C-4.07005 252.19 0.829952 249.08 -1.62005 244.14C-5.55005 236.21 -4.28005 229.68 -0.350047 222.56C4.95995 212.92 7.61995 208.41 8.93995 197C9.81995 189.35 14.7899 178.94 24.0499 182.76C31.5799 185.87 33.0099 197.55 36.7399 203.7C40.7499 210.3 51.1 215.08 50.05 223.83C49.29 230.15 46.95 235.46 50.85 241.83C54.77 248.22 64.64 250.6 65.62 258.99C66.43 265.93 63.18 275.62 54.16 279.82C44.2 284.46 29.02 285.7 17.8899 286.29C4.71995 286.99 -10.42 284.77 -14.65 275.05C-15.17 273.85 -15.45 272.63 -15.52 271.39H-15.53Z" fill="#93C776"/>
<path d="M6.96001 203.07C6.64001 205.45 6.38001 208.09 7.25001 210.31C8.04001 208.2 8.44001 205.94 9.06001 203.78C10.51 205.35 10.36 208.15 12.15 209.69C12.69 207.68 13.07 205.63 13 203.61C13.6 205.53 13.65 207.87 15.1 209.44C15.58 207.3 15.76 205.13 15.9 202.96C17.41 204.66 17.89 207.45 18.77 209.63C19.47 207.73 19.49 205.4 20.11 203.55C21.44 204.84 21.92 206.67 22.63 208.1C23.04 206.15 23.57 204.2 23.6 202.22C24.54 204.38 24.71 206.75 25.6 208.94C26.57 206.97 26.61 204.47 27.46 202.41C28.08 204.43 27.95 207.12 29.29 208.71C29.86 206.41 29.7 204.06 30.1 201.76C31.08 203.03 31.68 205.25 32.39 206.8C32.84 205.47 32.92 203.91 33.08 202.48C34.02 204.1 34.66 206.27 36.12 207.5C36.18 205.9 35.99 204.24 36.01 202.64C37.79 203.8 39.11 205.92 40.68 207.54C40.35 205.96 39.97 204.43 39.88 202.81" stroke="#B7DD9E" stroke-width="1.22" stroke-linecap="round" stroke-linejoin="round"/>
<path d="M-10.7102 222.48C-11.0302 224.86 -11.2902 227.5 -10.4202 229.72C-9.63015 227.61 -9.24015 225.35 -8.60015 223.19C-7.15015 224.76 -7.30015 227.56 -5.51015 229.1C-4.97015 227.09 -4.59015 225.04 -4.66015 223.02C-4.06015 224.94 -4.01015 227.28 -2.56015 228.85C-2.08015 226.71 -1.90015 224.54 -1.76015 222.38C-0.250152 224.08 0.219847 226.87 1.10985 229.05C1.80985 227.15 1.81985 224.82 2.44985 222.96C3.77985 224.25 4.25985 226.08 4.95985 227.51C5.36985 225.56 5.89985 223.61 5.92985 221.63C6.86985 223.79 7.02985 226.15 7.92985 228.35C8.89985 226.38 8.93985 223.88 9.78985 221.83C10.4098 223.85 10.2798 226.54 11.6198 228.13C12.1898 225.83 12.0398 223.48 12.4298 221.18C13.4098 222.45 13.9998 224.67 14.7198 226.22C15.1698 224.89 15.2498 223.33 15.4098 221.9C16.3498 223.52 16.9898 225.69 18.4598 226.92C18.5198 225.32 18.3298 223.66 18.3498 222.06C20.1298 223.22 21.4498 225.34 23.0198 226.96C22.6898 225.38 22.2998 223.85 22.2198 222.23" stroke="#B7DD9E" stroke-width="1.22" stroke-linecap="round" stroke-linejoin="round"/>
<path d="M23.0699 220.11C22.7499 222.49 22.4899 225.13 23.3599 227.35C24.1499 225.24 24.5499 222.98 25.1799 220.82C26.6299 222.39 26.4799 225.19 28.2699 226.73C28.8099 224.72 29.1899 222.67 29.1199 220.65C29.7199 222.57 29.7699 224.91 31.2199 226.48C31.6999 224.34 31.8799 222.17 32.0199 220.01C33.5299 221.71 34.0099 224.5 34.8899 226.68C35.5899 224.78 35.6099 222.45 36.2299 220.6C37.5599 221.89 38.0399 223.72 38.7499 225.15C39.1599 223.2 39.6899 221.25 39.7199 219.27C40.6599 221.43 40.8199 223.79 41.7199 225.99C42.6899 224.02 42.7299 221.52 43.5799 219.46C44.1999 221.48 44.0699 224.17 45.4099 225.76C45.9799 223.45 45.8199 221.1 46.2199 218.8C47.1999 220.07 47.7999 222.29 48.5099 223.84C48.9599 222.51 49.0399 220.95 49.1999 219.52C50.1399 221.14 50.7799 223.31 52.2399 224.54C52.2999 222.94 52.1099 221.28 52.1299 219.68C53.8999 220.84 55.2299 222.96 56.7999 224.58C56.4799 223 56.0899 221.47 55.9999 219.85" stroke="#B7DD9E" stroke-width="1.22" stroke-linecap="round" stroke-linejoin="round"/>
<path d="M-9.58003 242.03C-9.90003 244.41 -10.16 247.05 -9.29003 249.28C-8.50003 247.17 -8.10003 244.91 -7.48003 242.75C-6.03003 244.32 -6.18003 247.12 -4.39003 248.66C-3.85003 246.65 -3.47003 244.6 -3.54003 242.58C-2.94003 244.5 -2.89002 246.84 -1.44002 248.41C-0.960024 246.27 -0.780025 244.1 -0.640025 241.94C0.879975 243.64 1.34997 246.43 2.22997 248.61C2.92997 246.71 2.94997 244.38 3.56997 242.52C4.89997 243.81 5.37998 245.64 6.07998 247.07C6.48998 245.12 7.01997 243.17 7.04997 241.19C7.98997 243.35 8.14997 245.72 9.04997 247.91C10.02 245.94 10.06 243.44 10.91 241.39C11.53 243.41 11.4 246.1 12.74 247.69C13.31 245.39 13.15 243.04 13.55 240.74C14.53 242.01 15.13 244.23 15.84 245.78C16.29 244.45 16.37 242.9 16.53 241.46C17.47 243.08 18.11 245.25 19.57 246.48C19.63 244.88 19.44 243.22 19.46 241.62C21.24 242.77 22.56 244.9 24.13 246.52C23.8 244.94 23.42 243.41 23.33 241.79" stroke="#B7DD9E" stroke-width="1.22" stroke-linecap="round" stroke-linejoin="round"/>
<path d="M24.21 239.66C23.89 242.04 23.63 244.68 24.5 246.9C25.29 244.79 25.69 242.53 26.31 240.37C27.76 241.94 27.61 244.74 29.4 246.28C29.94 244.27 30.32 242.22 30.25 240.2C30.85 242.12 30.9 244.46 32.35 246.03C32.83 243.89 33.01 241.72 33.15 239.56C34.66 241.26 35.14 244.05 36.02 246.23C36.72 244.33 36.74 242 37.36 240.14C38.69 241.43 39.17 243.26 39.88 244.69C40.29 242.74 40.82 240.79 40.85 238.81C41.79 240.97 41.96 243.33 42.85 245.53C43.82 243.56 43.86 241.06 44.71 239.01C45.33 241.03 45.2 243.72 46.54 245.31C47.11 243 46.95 240.66 47.35 238.35C48.33 239.63 48.93 241.84 49.63 243.39C50.08 242.06 50.16 240.5 50.32 239.07C51.26 240.69 51.9 242.86 53.36 244.09C53.42 242.49 53.23 240.83 53.25 239.23C55.03 240.38 56.35 242.51 57.92 244.13C57.6 242.55 57.21 241.02 57.12 239.4" stroke="#B7DD9E" stroke-width="1.22" stroke-linecap="round" stroke-linejoin="round"/>
<path d="M-3.31001 264.97C-3.63001 267.35 -3.89001 269.99 -3.02001 272.21C-2.23001 270.1 -1.84001 267.84 -1.21001 265.68C0.239995 267.25 0.0899949 270.05 1.87999 271.59C2.41999 269.58 2.79999 267.53 2.72999 265.51C3.32999 267.43 3.38 269.77 4.83 271.34C5.3 269.2 5.49 267.03 5.63 264.87C7.14 266.57 7.61999 269.36 8.49999 271.54C9.19999 269.64 9.20999 267.31 9.83999 265.45C11.17 266.74 11.65 268.57 12.35 270C12.76 268.05 13.29 266.1 13.32 264.12C14.26 266.28 14.43 268.64 15.32 270.84C16.29 268.87 16.33 266.37 17.18 264.32C17.8 266.34 17.67 269.03 19.01 270.62C19.58 268.32 19.43 265.97 19.82 263.67C20.8 264.94 21.39 267.16 22.11 268.71C22.56 267.38 22.64 265.82 22.8 264.39C23.74 266.01 24.38 268.18 25.85 269.4C25.91 267.8 25.72 266.14 25.74 264.54C27.51 265.7 28.84 267.82 30.41 269.44C30.08 267.86 29.7 266.33 29.61 264.71" stroke="#B7DD9E" stroke-width="1.22" stroke-linecap="round" stroke-linejoin="round"/>
<path d="M29.69 263.05C29.37 265.43 29.11 268.07 29.98 270.29C30.77 268.18 31.16 265.92 31.79 263.76C33.24 265.33 33.09 268.13 34.88 269.67C35.42 267.66 35.8 265.61 35.73 263.59C36.33 265.51 36.38 267.85 37.83 269.42C38.3 267.28 38.49 265.11 38.63 262.95C40.14 264.65 40.62 267.44 41.5 269.62C42.2 267.72 42.21 265.39 42.84 263.53C44.17 264.82 44.65 266.65 45.36 268.08C45.77 266.13 46.3 264.18 46.33 262.2C47.27 264.36 47.44 266.72 48.33 268.92C49.3 266.95 49.34 264.45 50.19 262.4C50.81 264.42 50.68 267.11 52.02 268.7C52.59 266.4 52.44 264.05 52.83 261.75C53.81 263.02 54.4 265.24 55.11 266.79C55.56 265.46 55.64 263.9 55.8 262.47C56.74 264.09 57.38 266.26 58.85 267.48C58.91 265.88 58.72 264.22 58.74 262.62C60.51 263.78 61.84 265.9 63.41 267.52C63.08 265.94 62.69 264.41 62.61 262.79" stroke="#B7DD9E" stroke-width="1.22" stroke-linecap="round" stroke-linejoin="round"/>
<path d="M63.47 260.68C63.15 263.06 62.89 265.7 63.76 267.92C64.55 265.81 64.94 263.55 65.57 261.39C67.02 262.96 66.87 265.76 68.66 267.3C69.2 265.29 69.58 263.24 69.51 261.22C70.11 263.14 70.16 265.48 71.61 267.05C72.09 264.91 72.27 262.74 72.41 260.58C73.93 262.28 74.4 265.07 75.28 267.25C75.98 265.35 75.99 263.02 76.62 261.16C77.95 262.45 78.43 264.28 79.13 265.71C79.54 263.76 80.07 261.81 80.1 259.83C81.04 261.99 81.2 264.35 82.1 266.55C83.07 264.58 83.11 262.08 83.96 260.02C84.58 262.04 84.45 264.73 85.79 266.32C86.36 264.02 86.21 261.67 86.6 259.37C87.58 260.64 88.17 262.86 88.88 264.41C89.33 263.08 89.41 261.52 89.57 260.09C90.51 261.71 91.15 263.88 92.62 265.11C92.68 263.51 92.49 261.85 92.51 260.25C94.29 261.41 95.61 263.53 97.18 265.15C96.85 263.57 96.47 262.04 96.38 260.42" stroke="#B7DD9E" stroke-width="1.22" stroke-linecap="round" stroke-linejoin="round"/>
</g>
<path d="M24.0798 230.91L28.4098 305.39" stroke="#C5966D" stroke-width="2.45" stroke-linecap="round" stroke-linejoin="round"/>
<path d="M4.3999 253.74L26.1199 277.55" stroke="#C5966D" stroke-width="2.45" stroke-linecap="round" stroke-linejoin="round"/>
<path d="M14.6699 263.55L16.1599 246.28" stroke="#C5966D" stroke-width="2.45" stroke-linecap="round" stroke-linejoin="round"/>
<path d="M25.02 246.35L38.37 229.4" stroke="#C5966D" stroke-width="2.45" stroke-linecap="round" stroke-linejoin="round"/>
<path d="M32.8298 237.58C34.1798 237.04 40.0898 235.31 40.0898 235.31" stroke="#C5966D" stroke-width="2.45" stroke-linecap="round" stroke-linejoin="round"/>
<path d="M26.02 263.39C27.38 262.85 44.29 251.7 44.29 251.7" stroke="#C5966D" stroke-width="2.45" stroke-linecap="round" stroke-linejoin="round"/>
<path d="M38 246.98L35.75 255.89" stroke="#C5966D" stroke-width="2.45" stroke-linecap="round" stroke-linejoin="round"/>
<path fill-rule="evenodd" clip-rule="evenodd" d="M87.6001 225.5C88.5801 240.91 99.1601 253.32 99.9701 269.13C100.61 281.56 89.7201 294.32 75.8701 291.5C48.7501 285.98 53.4601 241.51 67.0501 225.52C70.8001 221.1 78.0901 213.63 84.4601 217.31C85.8601 218.11 86.6101 218.99 87.0301 219.94C87.7101 221.52 87.4601 223.34 87.6001 225.5Z" fill="#006E0E"/>
<path d="M71.0101 265.19L69.8501 259.28" stroke="white" stroke-width="2.37" stroke-linecap="round" stroke-linejoin="round"/>
<path d="M74.2 245.44L83.15 305.99" stroke="white" stroke-width="2.37" stroke-linecap="round" stroke-linejoin="round"/>
<path d="M67.23 263.14L77.43 269.45" stroke="white" stroke-width="2.37" stroke-linecap="round" stroke-linejoin="round"/>
<path d="M79.05 278.48L88.84 268.35" stroke="white" stroke-width="2.37" stroke-linecap="round" stroke-linejoin="round"/>
<path d="M84.6499 271.28L85.1399 264.84" stroke="white" stroke-width="2.37" stroke-linecap="round" stroke-linejoin="round"/>
<path d="M75.9099 257.23L81.9699 246.35" stroke="white" stroke-width="2.37" stroke-linecap="round" stroke-linejoin="round"/>
<path d="M80.46 250.77L85.39 248.88" stroke="white" stroke-width="2.37" stroke-linecap="round" stroke-linejoin="round"/>
<path fill-rule="evenodd" clip-rule="evenodd" d="M77.35 229.81C77.47 230.62 76.91 231.37 76.1 231.49C75.29 231.61 74.54 231.05 74.42 230.24C74.3 229.43 74.86 228.68 75.67 228.56C76.48 228.44 77.23 229 77.35 229.81Z" fill="#5E9E61"/>
<path fill-rule="evenodd" clip-rule="evenodd" d="M69.81 239.61C69.93 240.42 69.37 241.17 68.56 241.29C67.75 241.41 67 240.85 66.88 240.04C66.76 239.23 67.32 238.48 68.13 238.36C68.94 238.24 69.69 238.8 69.81 239.61Z" fill="#5E9E61"/>
<path fill-rule="evenodd" clip-rule="evenodd" d="M91.9201 253.42C92.0401 254.23 91.4801 254.98 90.6701 255.1C89.8601 255.22 89.1101 254.66 88.9901 253.85C88.8701 253.04 89.4301 252.29 90.2401 252.17C91.0501 252.05 91.8001 252.61 91.9201 253.42Z" fill="#5E9E61"/>
<path fill-rule="evenodd" clip-rule="evenodd" d="M66.86 254.13C66.98 254.94 66.42 255.69 65.61 255.81C64.8 255.93 64.05 255.37 63.93 254.56C63.81 253.75 64.37 253 65.18 252.88C65.99 252.76 66.74 253.32 66.86 254.13Z" fill="#5E9E61"/>
<path fill-rule="evenodd" clip-rule="evenodd" d="M85.7699 238.15C85.8899 238.96 85.3299 239.71 84.5199 239.83C83.7099 239.95 82.9599 239.39 82.8399 238.58C82.7199 237.77 83.2799 237.02 84.0899 236.9C84.8999 236.78 85.6499 237.34 85.7699 238.15Z" fill="#5E9E61"/>
<path fill-rule="evenodd" clip-rule="evenodd" d="M82.84 220.31C82.96 221.12 82.4 221.87 81.59 221.99C80.78 222.11 80.03 221.55 79.91 220.74C79.79 219.93 80.35 219.18 81.16 219.06C81.97 218.94 82.72 219.5 82.84 220.31Z" fill="#5E9E61"/>
<path fill-rule="evenodd" clip-rule="evenodd" d="M64.4701 270.36C64.5901 271.17 64.0301 271.92 63.2201 272.04C62.4101 272.16 61.6601 271.6 61.5401 270.79C61.4201 269.98 61.9801 269.23 62.7901 269.11C63.6001 268.99 64.3501 269.55 64.4701 270.36Z" fill="#5E9E61"/>
<path fill-rule="evenodd" clip-rule="evenodd" d="M83.15 258.91C83.27 259.72 82.71 260.47 81.9 260.59C81.09 260.71 80.34 260.15 80.22 259.34C80.1 258.53 80.66 257.78 81.47 257.66C82.28 257.54 83.03 258.1 83.15 258.91Z" fill="#5E9E61"/>
<path fill-rule="evenodd" clip-rule="evenodd" d="M98.37 268.64C98.49 269.45 97.93 270.2 97.12 270.32C96.31 270.44 95.56 269.88 95.44 269.07C95.32 268.26 95.88 267.51 96.69 267.39C97.5 267.27 98.25 267.83 98.37 268.64Z" fill="#5E9E61"/>
<path fill-rule="evenodd" clip-rule="evenodd" d="M89.6701 280.72C89.7901 281.53 89.2301 282.28 88.4201 282.4C87.6101 282.52 86.8601 281.96 86.7401 281.15C86.6201 280.34 87.1801 279.59 87.9901 279.47C88.8001 279.35 89.5501 279.91 89.6701 280.72Z" fill="#5E9E61"/>
<path fill-rule="evenodd" clip-rule="evenodd" d="M72.4601 275.77C72.5801 276.58 72.0201 277.33 71.2101 277.45C70.4001 277.57 69.6501 277.01 69.5301 276.2C69.4101 275.39 69.9701 274.64 70.7801 274.52C71.5901 274.4 72.3401 274.96 72.4601 275.77Z" fill="#5E9E61"/>
<path fill-rule="evenodd" clip-rule="evenodd" d="M74.81 285.61C74.93 286.42 74.37 287.17 73.56 287.29C72.75 287.41 72 286.85 71.88 286.04C71.76 285.23 72.32 284.48 73.13 284.36C73.94 284.24 74.69 284.8 74.81 285.61Z" fill="#5E9E61"/>
<path fill-rule="evenodd" clip-rule="evenodd" d="M93.7699 261.83C93.8899 262.64 93.3299 263.39 92.5199 263.51C91.7099 263.63 90.9599 263.07 90.8399 262.26C90.7199 261.45 91.2799 260.7 92.0899 260.58C92.8999 260.46 93.6499 261.02 93.7699 261.83Z" fill="#5E9E61"/>
<path fill-rule="evenodd" clip-rule="evenodd" d="M69.7201 228.84C69.8401 229.65 69.2801 230.4 68.4701 230.52C67.6601 230.64 66.9101 230.08 66.7901 229.27C66.6701 228.46 67.2301 227.71 68.0401 227.59C68.8501 227.47 69.6001 228.03 69.7201 228.84Z" fill="#5E9E61"/>
<path fill-rule="evenodd" clip-rule="evenodd" d="M62.85 247.23C62.97 248.04 62.41 248.79 61.6 248.91C60.79 249.03 60.04 248.47 59.92 247.66C59.8 246.85 60.36 246.1 61.17 245.98C61.98 245.86 62.73 246.42 62.85 247.23Z" fill="#5E9E61"/>
<path fill-rule="evenodd" clip-rule="evenodd" d="M77.55 237.27C77.67 238.08 77.11 238.83 76.3 238.95C75.49 239.07 74.74 238.51 74.62 237.7C74.5 236.89 75.06 236.14 75.87 236.02C76.68 235.9 77.43 236.46 77.55 237.27Z" fill="#5E9E61"/>
</g>
<g clip-path="url(#clip1_66_12503)">
<path fill-rule="evenodd" clip-rule="evenodd" d="M860.31 267.21C860.31 267.21 860.31 267.17 860.31 267.15C860.31 266.92 860.28 266.7 860.27 266.47C860.27 266.43 860.27 266.39 860.27 266.35C859.74 256.43 854.64 247.79 847.08 242.41C844.94 240.62 842.57 239 839.98 237.57C845.16 229.74 849.39 220.51 843.88 212.08C840.33 206.65 834.23 202.34 826.57 200.34C826.02 200.2 822.99 199.88 820.03 199.7C820.16 198.48 820.22 197.25 820.18 195.99C819.76 181.23 807.43 169.59 792.66 170.01C781.15 170.34 775.81 176.55 773.08 186.46C768.66 182.13 761 178.97 754.74 180.31C749.18 181.51 743.83 184.68 740.47 189.32C737.84 192.96 736.72 197.18 737.19 201.27C737.37 202.84 740.17 212.9 743.22 212.65C736.34 213.2 733.13 212.31 726.97 215.28C722.46 217.46 718.8 220.53 716.08 223.98C710.74 230.75 708.75 239.19 710.85 246.82C711.08 247.66 711.33 248.49 711.71 249.28C712.04 249.96 712.64 250.56 713 251.24C713.81 252.72 715.53 253.55 716.98 254.58C717.64 255.05 718.3 255.52 718.96 255.99C719.56 256.41 721.91 257.63 722.45 258.28C717.82 263.93 715.13 271.2 715.35 279.08C715.85 296.43 730.32 310.1 747.67 309.6C753.72 309.43 759.32 307.55 764.03 304.45C769.89 310.05 777.9 313.4 786.64 313.15C798.4 312.81 808.46 306.05 813.58 296.33C814.34 296.46 815.1 296.58 815.87 296.68C820.1 298.61 824.82 299.63 829.78 299.48C845.69 299.02 858.49 286.82 860.13 271.43C860.3 270.04 860.36 268.64 860.3 267.22L860.31 267.21Z" fill="#81C34E"/>
<path d="M816.47 245.28C815.32 244.71 813.91 245.18 813.34 246.33C811.42 250.2 808.83 253.3 805.66 255.59C805.82 252.79 805.77 249.95 805.44 247.1C805.29 245.82 804.14 244.91 802.85 245.05C801.57 245.2 800.65 246.36 800.8 247.64C802.58 262.85 795.72 277.8 790.15 287.09L788.88 285.93C784.1 279.91 780.01 270.01 777.53 264C776.41 261.29 775.47 258.37 774.71 255.34C775.01 255.29 775.32 255.19 775.59 255.02C781.1 251.51 785.42 243.78 786.84 237.97C787.15 236.72 786.38 235.45 785.13 235.15C783.87 234.84 782.61 235.61 782.31 236.87C781.19 241.49 777.71 247.72 773.7 250.66C773.16 247.67 772.81 244.62 772.66 241.6C772.6 240.31 771.5 239.32 770.21 239.38C768.96 239.45 767.93 240.54 767.99 241.83C768.36 249.54 770.01 257.44 772.63 264.29C769.38 262.57 766.3 260.15 763.29 257.79C761.89 256.69 760.45 255.56 759.03 254.52C757.99 253.76 756.53 253.99 755.77 255.04C755.01 256.08 755.24 257.54 756.29 258.3C757.64 259.28 758.99 260.34 760.41 261.46C764.92 265.01 769.58 268.67 775.09 270.4C775.11 270.4 775.13 270.4 775.15 270.41C777.14 275.05 779.69 280.55 782.63 285.18L780.31 346.43L803.01 344.68C801.56 334.46 801 333.61 799.54 323.39C798.53 316.26 797.51 309.14 796.5 302.01C796.14 299.44 795.35 296.09 795.03 292.81L795.2 292.89C795.08 292.03 795.01 291.56 795.01 291.56L794.93 291.49C794.87 290.28 794.89 289.1 795.04 287.99C799.01 281.09 803.36 271.66 805.03 261.29C805.35 261.26 805.67 261.16 805.96 260.99C810.9 258.17 814.78 253.94 817.52 248.43C818.09 247.28 817.62 245.87 816.47 245.3V245.28Z" fill="#71523A"/>
<path d="M782.38 296.69C783.47 290.74 780.57 282.46 778.46 276.94C782.62 281.94 784.62 289.02 788.55 294.08" fill="#71523A"/>
<path d="M752.8 193.27C753.9 194.07 754.51 195.13 754.62 196.74C754.7 197.88 754.06 200.05 753.54 201.19C753.37 201.56 748.62 198.12 748.28 197.59C747.25 195.97 747.38 193.51 747.49 191.53C747.51 191.14 751.13 192.37 751.39 192.48C751.92 192.72 752.39 192.98 752.8 193.27Z" fill="#B3E492"/>
<path d="M788.21 179.05C788.15 180.41 787.6 181.5 786.32 182.48C785.41 183.17 783.25 183.83 782.01 184.03C781.61 184.09 781.87 178.23 782.12 177.66C782.91 175.9 785.03 174.67 786.74 173.66C787.08 173.46 788.04 177.16 788.09 177.44C788.19 178.02 788.23 178.55 788.21 179.05Z" fill="#B3E492"/>
<path d="M733.1 228.56C731.86 229.12 730.63 229.12 729.19 228.41C728.16 227.91 726.6 226.28 725.87 225.25C725.63 224.92 730.99 222.52 731.61 222.49C733.53 222.4 735.59 223.74 737.26 224.82C737.59 225.03 734.72 227.56 734.49 227.73C734.02 228.08 733.56 228.35 733.11 228.56H733.1Z" fill="#B3E492"/>
<path d="M776.08 195.07C776.23 196.43 775.85 197.59 774.73 198.75C773.94 199.57 771.9 200.55 770.7 200.94C770.32 201.06 769.67 195.23 769.84 194.63C770.35 192.77 772.26 191.23 773.8 189.97C774.11 189.72 775.62 193.23 775.71 193.5C775.89 194.06 776.02 194.58 776.07 195.07H776.08Z" fill="#B3E492"/>
<path d="M762.75 208.88C764.04 209.34 764.92 210.18 765.48 211.69C765.88 212.76 765.88 215.02 765.71 216.27C765.66 216.67 760.12 214.72 759.65 214.31C758.2 213.05 757.63 210.65 757.17 208.72C757.08 208.34 760.9 208.49 761.18 208.53C761.76 208.61 762.28 208.72 762.75 208.89V208.88Z" fill="#B3E492"/>
<path d="M782.25 210.5C782.78 211.76 782.75 212.98 782.01 214.41C781.48 215.43 779.81 216.94 778.77 217.65C778.44 217.88 776.16 212.47 776.15 211.84C776.11 209.92 777.5 207.89 778.62 206.25C778.84 205.92 781.29 208.86 781.46 209.09C781.79 209.57 782.06 210.03 782.25 210.49V210.5Z" fill="#B3E492"/>
<path d="M772.53 304.04C771.53 304.97 770.37 305.36 768.77 305.16C767.64 305.02 765.64 303.97 764.61 303.24C764.28 303.01 768.57 299 769.15 298.77C770.94 298.07 773.32 298.68 775.25 299.16C775.63 299.26 773.73 302.57 773.56 302.81C773.22 303.29 772.88 303.7 772.52 304.04H772.53Z" fill="#B3E492"/>
<path d="M753.87 268.69C752.87 269.62 751.71 270.01 750.12 269.81C748.99 269.67 746.98 268.62 745.96 267.89C745.63 267.66 749.92 263.66 750.51 263.42C752.3 262.72 754.68 263.32 756.61 263.81C756.99 263.91 755.09 267.22 754.92 267.46C754.58 267.94 754.24 268.35 753.88 268.69H753.87Z" fill="#B3E492"/>
<path d="M749.27 279.9C748.27 280.83 747.11 281.22 745.52 281.02C744.39 280.87 742.38 279.83 741.36 279.1C741.03 278.87 745.32 274.86 745.91 274.63C747.7 273.93 750.08 274.54 752.02 275.02C752.4 275.12 750.5 278.43 750.33 278.66C749.99 279.14 749.65 279.55 749.29 279.89L749.27 279.9Z" fill="#B3E492"/>
<path d="M768.49 276.85C767.49 277.78 766.33 278.17 764.73 277.97C763.6 277.83 761.6 276.78 760.57 276.05C760.24 275.82 764.53 271.81 765.11 271.58C766.9 270.88 769.28 271.49 771.21 271.97C771.59 272.07 769.69 275.38 769.52 275.62C769.18 276.1 768.84 276.51 768.48 276.85H768.49Z" fill="#B3E492"/>
<path d="M758.37 300.87C757.37 301.8 756.21 302.19 754.61 301.99C753.48 301.85 751.48 300.8 750.45 300.07C750.12 299.84 754.41 295.83 755 295.6C756.79 294.9 759.17 295.51 761.1 295.99C761.48 296.09 759.58 299.4 759.41 299.64C759.07 300.12 758.73 300.53 758.37 300.87Z" fill="#B3E492"/>
<path d="M757.67 287.84C756.67 288.77 755.51 289.16 753.91 288.96C752.78 288.82 750.78 287.77 749.75 287.04C749.42 286.81 753.71 282.8 754.29 282.57C756.08 281.87 758.46 282.48 760.39 282.96C760.77 283.06 758.87 286.37 758.7 286.61C758.36 287.09 758.02 287.5 757.66 287.84H757.67Z" fill="#B3E492"/>
<path d="M772.62 290.81C771.62 291.74 770.46 292.13 768.87 291.93C767.74 291.79 765.74 290.74 764.71 290.01C764.38 289.78 768.67 285.77 769.26 285.54C771.05 284.84 773.43 285.45 775.36 285.93C775.74 286.03 773.84 289.34 773.67 289.58C773.34 290.06 772.99 290.47 772.63 290.81H772.62Z" fill="#B3E492"/>
<path d="M790.99 257.4C791.2 258.75 790.88 259.93 789.82 261.14C789.06 262 787.08 263.07 785.9 263.51C785.52 263.65 784.61 257.86 784.75 257.24C785.17 255.36 787.01 253.73 788.49 252.4C788.78 252.14 790.46 255.57 790.56 255.84C790.77 256.39 790.92 256.9 790.99 257.39V257.4Z" fill="#B3E492"/>
<path d="M793.46 271.91C793.67 273.26 793.35 274.44 792.29 275.65C791.53 276.51 789.55 277.58 788.37 278.02C787.99 278.16 787.08 272.37 787.22 271.75C787.64 269.87 789.48 268.24 790.96 266.91C791.25 266.65 792.93 270.08 793.03 270.35C793.24 270.9 793.39 271.41 793.46 271.9V271.91Z" fill="#B3E492"/>
<path d="M761.8 242.04C762.52 243.2 762.68 244.41 762.17 245.94C761.81 247.03 760.4 248.79 759.48 249.65C759.19 249.93 756.09 244.94 755.98 244.33C755.64 242.44 756.69 240.22 757.54 238.42C757.71 238.06 760.59 240.57 760.79 240.78C761.19 241.2 761.53 241.62 761.79 242.04H761.8Z" fill="#B3E492"/>
<path d="M802.8 234.4C802.34 235.68 801.48 236.56 799.97 237.11C798.89 237.5 796.64 237.48 795.39 237.3C794.99 237.24 796.98 231.72 797.4 231.25C798.67 229.81 801.07 229.26 803.01 228.81C803.39 228.72 803.21 232.54 803.17 232.83C803.09 233.41 802.97 233.93 802.8 234.4Z" fill="#B3E492"/>
<path d="M792.34 227.75C791.88 229.03 791.02 229.91 789.51 230.46C788.43 230.85 786.18 230.83 784.93 230.65C784.53 230.59 786.53 225.07 786.94 224.6C788.22 223.16 790.61 222.61 792.55 222.17C792.93 222.08 792.75 225.9 792.71 226.18C792.63 226.76 792.51 227.28 792.34 227.75Z" fill="#B3E492"/>
<path d="M726.59 246.87C725.3 247.3 724.08 247.18 722.71 246.33C721.74 245.73 720.35 243.95 719.72 242.86C719.52 242.51 725.08 240.65 725.71 240.68C727.63 240.78 729.55 242.32 731.1 243.56C731.41 243.81 728.3 246.03 728.05 246.18C727.55 246.48 727.06 246.71 726.59 246.87Z" fill="#B3E492"/>
<path d="M739.88 272.36C738.82 273.22 737.64 273.54 736.06 273.23C734.94 273.01 733.01 271.84 732.03 271.04C731.72 270.78 736.26 267.07 736.86 266.88C738.7 266.3 741.03 267.06 742.92 267.67C743.3 267.79 741.18 270.97 740.99 271.2C740.62 271.66 740.25 272.04 739.87 272.36H739.88Z" fill="#B3E492"/>
<path d="M744.32 244.25C742.97 244.46 741.79 244.14 740.58 243.09C739.72 242.34 738.64 240.35 738.2 239.18C738.06 238.8 743.85 237.87 744.47 238.01C746.35 238.43 747.98 240.26 749.32 241.74C749.58 242.03 746.15 243.72 745.88 243.82C745.33 244.03 744.82 244.18 744.33 244.26L744.32 244.25Z" fill="#B3E492"/>
<path d="M739.6 258.18C738.25 258.39 737.07 258.07 735.86 257.02C735 256.27 733.92 254.28 733.48 253.11C733.34 252.73 739.13 251.8 739.74 251.94C741.62 252.36 743.26 254.19 744.59 255.67C744.85 255.96 741.42 257.65 741.15 257.75C740.6 257.96 740.09 258.11 739.6 258.19V258.18Z" fill="#B3E492"/>
<path d="M751.06 228.96C749.77 228.51 748.88 227.67 748.31 226.17C747.91 225.1 747.89 222.84 748.06 221.59C748.11 221.19 753.66 223.1 754.14 223.51C755.6 224.76 756.18 227.15 756.66 229.08C756.75 229.46 752.93 229.33 752.65 229.3C752.07 229.23 751.55 229.12 751.08 228.95L751.06 228.96Z" fill="#B3E492"/>
<path d="M795.75 209.09C795.99 210.43 795.7 211.62 794.67 212.86C793.94 213.74 791.98 214.86 790.81 215.33C790.44 215.48 789.38 209.71 789.5 209.09C789.88 207.2 791.67 205.52 793.12 204.16C793.41 203.89 795.17 207.28 795.28 207.55C795.5 208.09 795.66 208.6 795.75 209.09Z" fill="#B3E492"/>
<path d="M775.16 226.26C775.78 227.47 775.85 228.69 775.23 230.18C774.78 231.23 773.24 232.88 772.26 233.67C771.95 233.92 769.25 228.71 769.19 228.09C769 226.18 770.23 224.05 771.21 222.32C771.41 221.98 774.08 224.71 774.26 224.93C774.63 225.38 774.93 225.82 775.16 226.27V226.26Z" fill="#B3E492"/>
<path d="M794.19 193.14C793.9 194.47 793.17 195.46 791.74 196.2C790.72 196.73 788.49 197.01 787.23 196.99C786.83 196.99 788.08 191.25 788.43 190.73C789.5 189.13 791.81 188.28 793.67 187.58C794.04 187.44 794.36 191.25 794.36 191.54C794.36 192.12 794.31 192.66 794.2 193.14H794.19Z" fill="#B3E492"/>
<path d="M796.61 306.92C792.23 308.4 793.79 316.38 797.87 315.81" stroke="#9B765D" stroke-width="1.63" stroke-linecap="round" stroke-linejoin="round"/>
<path d="M795.8 302.69C790.74 303.89 789.1 309.6 790.35 314.31C791.06 316.98 795.51 320.52 798.38 319.02" stroke="#9B765D" stroke-width="1.63" stroke-linecap="round" stroke-linejoin="round"/>
<path d="M784.07 330.01C784.21 331.48 783.8 332.76 783.85 334.13" stroke="#9B765D" stroke-width="1.63" stroke-linecap="round" stroke-linejoin="round"/>
<path d="M786.87 333.64C786.72 334.31 786.65 335.01 786.66 335.71" stroke="#9B765D" stroke-width="1.63" stroke-linecap="round" stroke-linejoin="round"/>
<path d="M787.23 326.64C787.31 327.52 787.4 328.4 787.48 329.28" stroke="#9B765D" stroke-width="1.63" stroke-linecap="round" stroke-linejoin="round"/>
<path d="M784.88 299.84C785.02 301.12 784.93 302.45 784.84 303.73" stroke="#9B765D" stroke-width="1.63" stroke-linecap="round" stroke-linejoin="round"/>
<path d="M787.3 299.41C787.35 298.51 787.55 297.64 787.45 296.73" stroke="#9B765D" stroke-width="1.63" stroke-linecap="round" stroke-linejoin="round"/>
<path d="M799.43 336.54C799.53 337.62 799.64 338.7 799.74 339.79" stroke="#9B765D" stroke-width="1.63" stroke-linecap="round" stroke-linejoin="round"/>
<path d="M796.43 332.93C796.51 333.74 796.58 334.55 796.66 335.36" stroke="#9B765D" stroke-width="1.63" stroke-linecap="round" stroke-linejoin="round"/>
<path d="M640.79 239.16C645.57 225.55 655.12 209.17 665.2 229.49C672.15 243.5 678.19 258.12 684.38 272.39C691.57 288.97 699.68 321.43 684.59 336.41C671.96 348.95 654.62 350.24 640.84 338.82C611.64 314.61 631.17 267.37 640.76 239.24C640.76 239.21 640.78 239.19 640.78 239.16H640.79Z" fill="#BFE7A7"/>
<mask id="mask2_66_12503" style="mask-type:luminance" maskUnits="userSpaceOnUse" x="625" y="219" width="69" height="128">
<path d="M640.79 239.16C645.57 225.55 655.12 209.17 665.2 229.49C672.15 243.5 678.19 258.12 684.38 272.39C691.57 288.97 699.68 321.43 684.59 336.41C671.96 348.95 654.62 350.24 640.84 338.82C611.64 314.61 631.17 267.37 640.76 239.24C640.76 239.21 640.78 239.19 640.78 239.16H640.79Z" fill="white"/>
</mask>
<g mask="url(#mask2_66_12503)">
<path d="M679.24 237.21C661.82 238.76 643.04 236.18 625.94 239.85C644.18 246.35 666.74 241.97 684.79 247.83C672.74 250.93 654.13 248.49 641.73 246.76C657.85 250.8 677.24 253.65 693.83 253.7C677.61 255.9 651.71 252.99 632.5 252.39C650.47 256.76 671.01 253.21 688.41 258.9C668.14 263.2 645.34 255.14 624.81 257.11C647.96 260.11 672.52 264.78 695.81 264.93C672.28 267.68 648.56 263.28 625.02 263.71C649.2 267.93 674.39 267.29 698.23 273.01C669.36 274.85 640.1 268.66 611.21 268.48C635.02 269.61 664.83 271.13 687.27 279.18C673.79 279.91 660.07 278.6 646.66 277.32C636.25 276.33 622.91 277.3 613.04 273.72C638.92 275.15 671.16 276.4 695.65 284.86C667.99 287.04 639.48 281.38 611.79 280.54C639.36 284.46 668.38 286.83 695.2 294.39C667.32 296.62 638.89 289.33 611.03 288.05C640.69 288.69 671.63 297.08 700.81 302.57C675.24 303.96 649.54 296.5 624.1 294.58C644.67 300.35 673.74 297.55 691.81 308.43C667.98 310.49 640.41 304.21 616.67 301.11C634.13 304.45 651.77 306.87 669.16 310.57C681.88 313.28 695.96 313.49 707.87 319.53C679.74 321.46 651.09 312.42 622.91 313.19C637.09 315.13 651.17 317.43 665.18 320.4C677.45 323 696.22 323.93 706.9 330.46C692.71 331.59 676.5 327.17 662.38 325.56C650.14 324.17 637.53 323.65 625.42 321.43C640.13 322.28 656.1 326.54 670.59 329.24C681.65 331.3 698.56 331.9 707.96 337.4C695.52 340.43 680.08 335.47 667.74 333.87C654.33 332.13 640.68 330.61 627.15 330.17C649.84 337.73 674.22 340.31 697.1 347.61C686.2 351.78 671.24 347.77 659.77 346.85C640.76 345.32 621.65 344.14 602.69 342.12" stroke="#EBFCE0" stroke-width="1.42" stroke-linecap="round" stroke-linejoin="round"/>
</g>
<path d="M656.95 268.78L668.2 363.84" stroke="#C5966D" stroke-width="2.84" stroke-linecap="round" stroke-linejoin="round"/>
<path d="M674.85 292.84L661.94 306.63" stroke="#C5966D" stroke-width="2.84" stroke-linecap="round" stroke-linejoin="round"/>
<path d="M663.19 321.03L644.12 309.65" stroke="#C5966D" stroke-width="2.84" stroke-linecap="round" stroke-linejoin="round"/>
<path d="M651.71 312.39L648.31 302.79" stroke="#C5966D" stroke-width="2.84" stroke-linecap="round" stroke-linejoin="round"/>
<path d="M659.21 287.42L645.51 273.37" stroke="#C5966D" stroke-width="2.84" stroke-linecap="round" stroke-linejoin="round"/>
<path d="M649.64 279.46L641.36 278.63" stroke="#C5966D" stroke-width="2.84" stroke-linecap="round" stroke-linejoin="round"/>
<path d="M721.82 335.87C729.56 335.96 739.11 334.69 744.48 328.47C752.8 318.83 739.77 313.85 742.88 303.78C744.35 299 748.3 296.12 746.89 290.76C745.77 286.48 740.6 283.31 738.42 279.63C735.45 274.62 736.34 268.9 736.36 263.02C736.4 249.85 726.73 244.75 727.41 231.74C727.76 225.19 729.7 218.59 724.85 213.14C719.91 207.59 715.56 207.62 714.63 199.61C713.85 192.9 715.03 188.39 708.88 184.27C702.38 179.92 698.67 182.36 696.08 189.38C692.27 199.75 691.74 211.53 687.81 222.13C685.44 228.51 684.63 231.62 687.19 238.12C689.51 244.03 692.53 247.81 691.63 254.7C690.84 260.75 686.27 264.03 685.24 269.4C684.03 275.73 690.09 278.67 688.97 284.63C684.73 285.48 679.23 286.13 679.47 291.77C679.65 295.99 685.05 297.64 685.25 301.98C685.66 311 672.55 314.47 680.94 325.36C688.89 335.69 709.93 335.73 721.82 335.87Z" fill="#26B786"/>
<mask id="mask3_66_12503" style="mask-type:luminance" maskUnits="userSpaceOnUse" x="678" y="182" width="70" height="154">
<path d="M721.82 335.87C729.56 335.96 739.11 334.69 744.48 328.47C752.8 318.83 739.77 313.85 742.88 303.78C744.35 299 748.3 296.12 746.89 290.76C745.77 286.48 740.6 283.31 738.42 279.63C735.45 274.62 736.34 268.9 736.36 263.02C736.4 249.85 726.73 244.75 727.41 231.74C727.76 225.19 729.7 218.59 724.85 213.14C719.91 207.59 715.56 207.62 714.63 199.61C713.85 192.9 715.03 188.39 708.88 184.27C702.38 179.92 698.67 182.36 696.08 189.38C692.27 199.75 691.74 211.53 687.81 222.13C685.44 228.51 684.63 231.62 687.19 238.12C689.51 244.03 692.53 247.81 691.63 254.7C690.84 260.75 686.27 264.03 685.24 269.4C684.03 275.73 690.09 278.67 688.97 284.63C684.73 285.48 679.23 286.13 679.47 291.77C679.65 295.99 685.05 297.64 685.25 301.98C685.66 311 672.55 314.47 680.94 325.36C688.89 335.69 709.93 335.73 721.82 335.87Z" fill="white"/>
</mask>
<g mask="url(#mask3_66_12503)">
<path d="M730.1 208.42C707.62 208.42 684.12 209.43 661.9 205.58" stroke="#46D19F" stroke-width="1.42" stroke-miterlimit="10"/>
<path d="M742.41 229.26C723.45 225.89 704.6 220.54 685.58 216.95" stroke="#46D19F" stroke-width="1.42" stroke-miterlimit="10"/>
<path d="M745.25 228.31C716.62 228.31 687.46 228.79 659.06 224.52" stroke="#46D19F" stroke-width="1.42" stroke-miterlimit="10"/>
<path d="M739.57 237.78C715.6 237.78 691.68 236.98 667.71 236.81C693.07 236.69 726.43 239.84 750.46 248.01C723.53 249.63 696.5 244.05 669.52 244.37C697.77 249.83 730.4 248.63 757.2 258.43C742.97 259.94 727.51 256.71 713.31 255.58C699.59 254.49 684.18 254.93 670.75 251.88C700.44 259.01 734.63 264.54 765.07 266.22C731.1 267.05 692.74 262.88 659.32 256.62C678.16 259.56 696.96 263.54 715.69 267.15C729.87 269.88 747.28 270.82 760.54 276.9C749.46 280.08 734.72 276.31 723.27 275.86C703.54 275.09 679.35 272.18 659.98 276.83C670.08 282.81 695.24 279.37 707.25 279.49C726.39 279.67 745.23 281.8 764.27 282.46C754.53 290.21 726.31 287.77 713.93 288C697.94 288.3 681.82 288.56 665.92 289.85C698.3 296.49 734.4 288.76 766.1 299.58C733.92 307.01 694.58 305.26 661.65 304.03C697.32 307.48 736.43 305.88 770.9 316.2C732.8 319.57 694.41 308.85 656.5 306.84C678.91 309.54 701.37 315.13 723.58 319.23C734.74 321.29 763.85 322.12 771.53 331.61C753.65 337.74 725.31 328.97 707.58 325.88C687.92 322.46 666.66 316.35 646.75 315.44" stroke="#46D19F" stroke-width="1.42" stroke-miterlimit="10"/>
</g>
<path d="M713.48 256.19V349.93" stroke="#8D6033" stroke-width="2.84" stroke-linecap="round" stroke-linejoin="round"/>
<path d="M728 281.45L713.97 293.29" stroke="#8D6033" stroke-width="2.84" stroke-linecap="round" stroke-linejoin="round"/>
<path d="M713.53 307.32L696.42 294.17" stroke="#8D6033" stroke-width="2.84" stroke-linecap="round" stroke-linejoin="round"/>
<path d="M703.44 297.67L701.25 288.03" stroke="#8D6033" stroke-width="2.84" stroke-linecap="round" stroke-linejoin="round"/>
<path d="M713.53 274.43L701.91 259.3" stroke="#8D6033" stroke-width="2.84" stroke-linecap="round" stroke-linejoin="round"/>
<path d="M705.2 265.661L697.3 263.911" stroke="#8D6033" stroke-width="2.84" stroke-linecap="round" stroke-linejoin="round"/>
</g>
<path d="M266 793C266 538.949 471.949 333 726 333H800V793H266Z" fill="#73B220"/>
<path d="M0 293H240C516.142 293 740 516.858 740 793H0V293Z" fill="#8DC642"/>
<path d="M373.37 369.61C372.43 369.51 371.58 369.96 370.66 370.05C370.69 368.98 370.5 368.17 369.38 367.94C368.57 367.78 367.63 367.85 366.83 368.07C366.13 368.26 365.58 368.71 365.19 369.34C364.93 369.77 364.75 370.37 364.95 370.85C364.52 370.91 363.91 370.53 363.48 370.41C362.96 370.27 362.43 370.14 361.89 370.07C361.01 369.95 359.95 369.95 359.27 370.66C355.97 374.11 361.78 374.79 363.41 374.46C361.91 375.1 361.11 377.16 362.6 378.19C363.32 378.69 364.37 378.15 365.05 377.81C366 377.35 366.94 376.86 367.81 376.27C367.88 376.22 368.43 377.01 368.52 377.12C368.84 377.49 369.29 377.63 369.69 377.86C370.58 378.35 371.9 378.7 372.89 378.23C373.38 377.99 373.82 377.42 373.98 376.89C374.2 376.18 373.52 375.57 373.09 375.12C372.74 374.75 372.16 374.08 371.59 374.23C373.01 373.87 376.66 375.46 376.61 371.99C376.58 370.26 374.38 369.73 373.35 369.62L373.37 369.61Z" fill="white"/>
<path d="M344.15 352.46C342.83 352.31 341.64 352.94 340.36 353.07C340.4 351.57 340.14 350.44 338.56 350.12C337.42 349.89 336.11 349.99 334.99 350.31C334.02 350.58 333.24 351.21 332.69 352.09C332.32 352.69 332.08 353.53 332.36 354.2C331.75 354.29 330.91 353.75 330.3 353.59C329.57 353.39 328.83 353.21 328.07 353.11C326.84 352.95 325.35 352.94 324.4 353.93C319.77 358.76 327.92 359.71 330.2 359.25C328.09 360.15 326.98 363.04 329.07 364.48C330.08 365.17 331.55 364.42 332.51 363.95C333.84 363.3 335.15 362.63 336.38 361.8C336.48 361.73 337.25 362.83 337.38 362.99C337.83 363.5 338.46 363.71 339.03 364.02C340.28 364.71 342.13 365.2 343.52 364.53C344.21 364.2 344.82 363.4 345.05 362.65C345.35 361.65 344.4 360.8 343.8 360.18C343.31 359.67 342.5 358.72 341.7 358.92C343.7 358.42 348.8 360.65 348.73 355.78C348.69 353.35 345.61 352.61 344.16 352.46H344.15Z" fill="white"/>
<path d="M707.385 392.727C706.337 392.615 705.389 393.117 704.363 393.217C704.396 392.024 704.184 391.12 702.935 390.864C702.031 390.685 700.983 390.763 700.091 391.009C699.31 391.221 698.696 391.723 698.261 392.425C697.971 392.905 697.771 393.574 697.994 394.11C697.514 394.177 696.834 393.753 696.354 393.619C695.774 393.463 695.183 393.318 694.581 393.24C693.599 393.106 692.417 393.106 691.658 393.898C687.977 397.746 694.458 398.504 696.276 398.136C694.603 398.85 693.711 401.148 695.373 402.297C696.176 402.854 697.347 402.252 698.105 401.873C699.165 401.36 700.213 400.813 701.184 400.155C701.262 400.099 701.875 400.981 701.976 401.103C702.333 401.516 702.835 401.672 703.281 401.929C704.273 402.475 705.746 402.866 706.85 402.341C707.397 402.074 707.887 401.438 708.066 400.847C708.311 400.055 707.553 399.374 707.073 398.872C706.683 398.46 706.036 397.712 705.4 397.88C706.984 397.478 711.055 399.252 710.999 395.381C710.966 393.452 708.512 392.86 707.363 392.738L707.385 392.727Z" fill="white"/>
<path d="M674.793 373.598C673.321 373.43 671.994 374.133 670.566 374.278C670.611 372.605 670.321 371.344 668.558 370.987C667.287 370.731 665.826 370.842 664.576 371.199C663.494 371.501 662.624 372.203 662.011 373.185C661.598 373.854 661.331 374.791 661.643 375.538C660.963 375.639 660.026 375.036 659.345 374.858C658.531 374.635 657.706 374.434 656.858 374.323C655.486 374.144 653.824 374.133 652.764 375.237C647.6 380.625 656.691 381.684 659.234 381.171C656.88 382.175 655.642 385.398 657.973 387.005C659.1 387.774 660.739 386.938 661.81 386.413C663.294 385.688 664.755 384.941 666.127 384.015C666.238 383.937 667.097 385.164 667.242 385.343C667.744 385.912 668.447 386.146 669.083 386.492C670.477 387.261 672.54 387.808 674.091 387.06C674.86 386.692 675.541 385.8 675.797 384.963C676.132 383.848 675.072 382.9 674.403 382.208C673.857 381.64 672.953 380.58 672.061 380.803C674.292 380.245 679.98 382.733 679.902 377.301C679.857 374.59 676.422 373.765 674.805 373.598H674.793Z" fill="white"/>
<path fill-rule="evenodd" clip-rule="evenodd" d="M387.545 354.392C388.135 353.938 388.982 354.048 389.436 354.639C392.039 358.021 394.41 361.783 396.335 365.65C396.667 366.317 396.395 367.126 395.729 367.458C395.062 367.79 394.252 367.519 393.92 366.852C392.075 363.146 389.798 359.531 387.299 356.284C386.844 355.693 386.955 354.847 387.545 354.392Z" fill="#5B8B0C"/>
<path fill-rule="evenodd" clip-rule="evenodd" d="M399.661 352C400.11 352 400.474 352.364 400.474 352.812V360.937C400.474 361.386 400.11 361.75 399.661 361.75C399.212 361.75 398.849 361.386 398.849 360.937V352.812C398.849 352.364 399.212 352 399.661 352Z" fill="#5B8B0C"/>
<path fill-rule="evenodd" clip-rule="evenodd" d="M420.127 357.009C420.762 357.399 420.96 358.23 420.57 358.865C419.084 361.283 417.721 364.008 416.628 366.751C416.352 367.442 415.567 367.78 414.875 367.504C414.183 367.228 413.846 366.443 414.122 365.751C415.271 362.871 416.702 360.007 418.272 357.452C418.662 356.818 419.492 356.619 420.127 357.009Z" fill="#5B8B0C"/>
<path fill-rule="evenodd" clip-rule="evenodd" d="M613.874 329.974C614.855 329.219 616.261 329.402 617.016 330.383C621.339 336.001 625.277 342.251 628.474 348.673C629.026 349.781 628.575 351.125 627.467 351.677C626.36 352.228 625.015 351.777 624.463 350.67C621.399 344.514 617.617 338.51 613.465 333.116C612.71 332.135 612.894 330.728 613.874 329.974Z" fill="#5B8B0C"/>
<path fill-rule="evenodd" clip-rule="evenodd" d="M633.999 326C634.745 326 635.349 326.604 635.349 327.35V340.845C635.349 341.591 634.745 342.195 633.999 342.195C633.254 342.195 632.65 341.591 632.65 340.845V327.35C632.65 326.604 633.254 326 633.999 326Z" fill="#5B8B0C"/>
<path fill-rule="evenodd" clip-rule="evenodd" d="M667.994 334.321C669.048 334.969 669.377 336.348 668.73 337.403C666.262 341.419 663.998 345.947 662.181 350.501C661.723 351.651 660.419 352.211 659.27 351.752C658.121 351.294 657.561 349.991 658.019 348.842C659.927 344.058 662.305 339.3 664.912 335.057C665.56 334.003 666.939 333.673 667.994 334.321Z" fill="#5B8B0C"/>
<path fill-rule="evenodd" clip-rule="evenodd" d="M108.526 370.392C109.117 369.938 109.963 370.048 110.418 370.639C113.021 374.021 115.391 377.783 117.316 381.65C117.648 382.317 117.377 383.126 116.71 383.458C116.043 383.79 115.233 383.519 114.901 382.852C113.056 379.146 110.779 375.531 108.28 372.284C107.826 371.693 107.936 370.847 108.526 370.392Z" fill="#5B8B0C"/>
<path fill-rule="evenodd" clip-rule="evenodd" d="M120.642 368C121.091 368 121.455 368.364 121.455 368.812V376.937C121.455 377.386 121.091 377.75 120.642 377.75C120.194 377.75 119.83 377.386 119.83 376.937V368.812C119.83 368.364 120.194 368 120.642 368Z" fill="#5B8B0C"/>
<path fill-rule="evenodd" clip-rule="evenodd" d="M141.108 373.009C141.743 373.399 141.941 374.23 141.551 374.865C140.066 377.283 138.702 380.008 137.609 382.751C137.333 383.442 136.548 383.78 135.856 383.504C135.164 383.228 134.827 382.443 135.103 381.751C136.252 378.871 137.684 376.007 139.253 373.452C139.643 372.818 140.474 372.619 141.108 373.009Z" fill="#5B8B0C"/>
</g>
<defs>
<filter id="filter0_f_66_12503" x="-48" y="147" width="918.33" height="656" filterUnits="userSpaceOnUse" color-interpolation-filters="sRGB">
<feFlood flood-opacity="0" result="BackgroundImageFix"/>
<feBlend mode="normal" in="SourceGraphic" in2="BackgroundImageFix" result="shape"/>
<feGaussianBlur stdDeviation="5" result="effect1_foregroundBlur_66_12503"/>
</filter>
<clipPath id="clip0_66_12503">
<rect width="219.93" height="150.18" fill="white" transform="translate(-38 157)"/>
</clipPath>
<clipPath id="clip1_66_12503">
<rect width="258.33" height="195.26" fill="white" transform="matrix(-1 0 0 1 860.33 170)"/>
</clipPath>
</defs>
</svg>
