<svg width="800" height="775" viewBox="0 0 800 775" fill="none" xmlns="http://www.w3.org/2000/svg">
<mask id="mask0_0_1" style="mask-type:luminance" maskUnits="userSpaceOnUse" x="-2" y="0" width="800" height="403">
<path d="M798 0H-1.49084V403H798V0Z" fill="white"/>
</mask>
<g mask="url(#mask0_0_1)">
<path d="M346.775 252.002C344.644 237.77 340.815 219.465 322.776 212.052C308.766 206.294 287.365 204.894 274.649 214.11C271.902 194.384 252.346 184.839 236.141 198.562C240.839 174.435 234.646 149.375 207.083 141.973C183.2 135.556 160.07 140.859 148.786 162.345C145.318 146.946 122.813 141.559 112.219 153.129C108.146 111.461 27.7267 87.0798 -1.94687 115.078C-13.443 125.927 -15.564 144.719 -19.4456 159.09C-25.3421 180.883 -30.072 203.706 -29.3509 226.454C-28.5979 250.146 -22.4681 273.372 -23.5498 297.075C-23.9846 306.503 -26.9965 316.928 -25.2678 326.228C58.8001 330.046 146.59 328.222 230.202 318.635C255.793 315.697 281.15 310.681 306.751 307.881C323.264 306.078 340.349 306.99 356.575 303.48C355.61 287.901 349.968 262.65 338.376 251.79" fill="white"/>
<path d="M476.69 321.594C494.878 308.189 512.111 289.428 532.474 279.491C538.232 276.681 544.394 275.631 550.545 274.04C560.015 271.59 568.765 266.054 578.299 264.336C576.878 258.015 575.669 250.91 572.816 245.013C569.221 237.558 565.795 229.487 561.044 222.711C556.823 216.697 551.118 213.261 545.72 208.542C541.986 205.275 540.321 201.15 537.288 197.364C529.419 187.543 516.534 181.414 503.935 183.068C488.918 185.051 469.659 194.49 463.221 208.807C451.025 193.058 429.316 194.522 422.083 214.491C414.151 191.234 396.302 172.569 368.718 179.865C344.803 186.186 327.378 202.295 328.29 226.55C317.611 214.916 295.414 221.448 291.989 236.762C267.724 202.656 185.83 221.523 174.026 260.582C169.455 275.716 176.975 293.066 180.75 307.468C186.477 329.293 193.741 351.448 205.683 370.824C218.123 390.995 235.006 408.09 245.866 429.184C250.183 437.584 252.76 448.115 258.89 455.326C333.71 416.797 408.933 371.524 476.69 321.583V321.594Z" fill="white"/>
<path d="M445.692 308.85C447.664 294.597 451.291 276.25 469.246 268.635C483.192 262.717 504.583 261.084 517.394 270.162C519.918 250.405 539.368 240.648 555.721 254.191C550.758 230.127 556.676 204.993 584.143 197.283C607.963 190.601 631.146 195.65 642.663 217.009C645.962 201.567 668.413 195.925 679.124 207.39C682.741 165.679 762.874 140.407 792.866 168.076C804.489 178.798 806.801 197.559 810.852 211.897C816.993 233.616 821.967 256.386 821.5 279.145C821.012 302.837 815.137 326.137 816.484 349.818C817.024 359.246 820.153 369.629 818.52 378.951C734.494 383.702 655.718 429.154 572 420.5C546.388 417.849 522.133 423.013 496.5 420.5C479.966 418.877 452.702 363.764 436.444 360.434C437.239 344.844 442.595 319.53 454.07 308.543" fill="white"/>
<path d="M563.301 156.633C571.605 138.53 593.08 135.019 604.651 152.826C607.09 128.37 620.241 106.152 648.758 106.99C673.479 107.721 694.106 119.451 698.73 143.281C706.493 129.526 729.591 130.841 736.411 144.978C752.297 106.247 836.333 106.035 856.696 141.393C864.586 155.095 861.203 173.697 860.789 188.587C860.163 211.144 858.127 234.369 850.894 255.941C843.365 278.413 830.797 298.892 825.018 321.905C822.716 331.058 822.6 341.917 818.273 350.327C736.655 329.785 653.117 302.784 575.794 269.536C552.134 259.366 529.3 247.255 505.576 237.212C490.284 230.732 473.655 226.691 459.136 218.652C457.068 217.507 479.233 184.482 481.046 181.311C486.943 171.035 492.15 157.375 502.883 151.023C513.88 144.511 528.643 142.252 541.115 144.023C544.222 144.469 565.698 151.426 563.301 156.633Z" fill="white"/>
</g>
<g clip-path="url(#clip0_0_1)">
<path fill-rule="evenodd" clip-rule="evenodd" d="M179.05 240.21C180.92 230.19 179.33 221.5 171.72 214.78C165.38 209.18 160.8 207 152.52 206.51C159.77 196.16 159.08 180.71 147.04 174.17C135.83 168.08 119.53 168.76 109.86 177.46C99.31 186.96 91.28 204.65 103.96 215.4C99.47 211.59 91.34 220.04 88.94 223.28C77.98 238.09 84.99 267.37 106.65 266.18C115.15 265.71 125.07 264.51 131.39 258.21C130.52 259.07 141.29 264.16 142.57 264.51C149.87 266.52 158.18 265.16 164.82 261.68C172.5 257.65 177.36 249.22 179.04 240.2L179.05 240.21Z" fill="#B3E492" stroke="#B3E492" stroke-width="4.34" stroke-linecap="round" stroke-linejoin="round"/>
<path d="M136.89 258.92C136.86 258.37 136.85 258.07 136.85 258.07L129.79 250.27L124.22 296.29L138.71 296.55C138.41 289.99 138.1 285.07 137.8 278.51C137.59 273.93 137.38 269.36 137.16 264.78C137.02 261.68 136.08 256.71 137.83 253.92C137.35 254.68 136.55 254.98 135.93 255.57C135.35 256.12 134.91 256.84 134.37 257.45" fill="#71523A"/>
<path d="M131.66 259.42C131.66 249.5 132.49 239.91 132.49 229.96" stroke="#71523A" stroke-width="4.34" stroke-linecap="round" stroke-linejoin="round"/>
<path d="M133.32 259C137.65 252.9 144.45 244.98 146.6 237.84" stroke="#71523A" stroke-width="4.34" stroke-linecap="round" stroke-linejoin="round"/>
<path d="M143.28 247.38C146.47 247.47 148.95 246.6 151.99 246.13" stroke="#71523A" stroke-width="4.34" stroke-linecap="round" stroke-linejoin="round"/>
<path d="M122.53 237.42C125.21 238.96 127.84 240.73 130.83 241.57" stroke="#71523A" stroke-width="4.34" stroke-linecap="round" stroke-linejoin="round"/>
<path d="M109.25 246.97C116.15 249.1 123.08 254.16 130 256.1" stroke="#71523A" stroke-width="4.34" stroke-linecap="round" stroke-linejoin="round"/>
<path d="M111.74 257.34C113.61 256.44 116.82 253.42 118.8 252.77" stroke="#71523A" stroke-width="4.34" stroke-linecap="round" stroke-linejoin="round"/>
<path d="M129.67 274.65V278.01" stroke="#9B765D" stroke-width="2.01" stroke-linecap="round" stroke-linejoin="round"/>
<path d="M134.71 283.38V287.41" stroke="#9B765D" stroke-width="2.01" stroke-linecap="round" stroke-linejoin="round"/>
<path d="M132.69 268.94C132.91 270.24 133.15 271.62 133.03 272.97" stroke="#9B765D" stroke-width="2.01" stroke-linecap="round" stroke-linejoin="round"/>
<path d="M120.36 190.68C124.02 185.19 114.44 181.9 112.21 186.32C109.63 191.43 117.16 195.47 120.36 190.68Z" stroke="white" stroke-width="2.01" stroke-linecap="round" stroke-linejoin="round"/>
<path d="M133.45 179.1C137.12 173.61 127.53 170.32 125.3 174.74C122.72 179.85 130.25 183.89 133.45 179.1Z" stroke="white" stroke-width="2.01" stroke-linecap="round" stroke-linejoin="round"/>
<path d="M150.15 188.05C153.82 182.56 144.23 179.27 142 183.69C139.42 188.8 146.95 192.84 150.15 188.05Z" stroke="white" stroke-width="2.01" stroke-linecap="round" stroke-linejoin="round"/>
<path d="M110.37 212.21C114.03 206.72 104.45 203.43 102.22 207.85C99.64 212.96 107.17 217.01 110.37 212.21Z" stroke="white" stroke-width="2.01" stroke-linecap="round" stroke-linejoin="round"/>
<path d="M133.53 205.16C137.2 199.67 127.61 196.38 125.38 200.8C122.8 205.91 130.33 209.95 133.53 205.16Z" stroke="white" stroke-width="2.01" stroke-linecap="round" stroke-linejoin="round"/>
<path d="M158.2 216.75C161.86 211.26 152.28 207.97 150.05 212.39C147.47 217.5 155 221.54 158.2 216.75Z" stroke="white" stroke-width="2.01" stroke-linecap="round" stroke-linejoin="round"/>
<path d="M104.83 234.37C108.5 228.88 98.91 225.59 96.68 230.01C94.1 235.12 101.63 239.17 104.83 234.37Z" stroke="white" stroke-width="2.01" stroke-linecap="round" stroke-linejoin="round"/>
<path d="M95.77 247.96C99.44 242.47 89.85 239.18 87.62 243.6C85.04 248.71 92.57 252.76 95.77 247.96Z" stroke="white" stroke-width="2.01" stroke-linecap="round" stroke-linejoin="round"/>
<path d="M123.46 224.8C127.13 219.31 117.54 216.02 115.31 220.44C112.73 225.55 120.26 229.59 123.46 224.8Z" stroke="white" stroke-width="2.01" stroke-linecap="round" stroke-linejoin="round"/>
<path d="M145.11 227.82C148.78 222.33 139.19 219.04 136.96 223.46C134.38 228.57 141.91 232.61 145.11 227.82Z" stroke="white" stroke-width="2.01" stroke-linecap="round" stroke-linejoin="round"/>
<path d="M153.67 261.56C157.34 256.07 147.75 252.78 145.52 257.2C142.94 262.31 150.47 266.35 153.67 261.56Z" stroke="white" stroke-width="2.01" stroke-linecap="round" stroke-linejoin="round"/>
<path d="M106.84 261.56C110.5 256.07 100.92 252.78 98.69 257.2C96.11 262.31 103.64 266.35 106.84 261.56Z" stroke="white" stroke-width="2.01" stroke-linecap="round" stroke-linejoin="round"/>
<path d="M163.74 238.4C167.41 232.91 157.82 229.62 155.59 234.04C153.01 239.15 160.54 243.2 163.74 238.4Z" stroke="white" stroke-width="2.01" stroke-linecap="round" stroke-linejoin="round"/>
<path d="M169.79 251.99C173.45 246.5 163.87 243.21 161.64 247.63C159.06 252.74 166.59 256.79 169.79 251.99Z" stroke="white" stroke-width="2.01" stroke-linecap="round" stroke-linejoin="round"/>
<path d="M177.34 231.35C181.01 225.86 171.42 222.57 169.19 226.99C166.61 232.1 174.14 236.14 177.34 231.35Z" stroke="white" stroke-width="2.01" stroke-linecap="round" stroke-linejoin="round"/>
<mask id="mask1_0_1" style="mask-type:luminance" maskUnits="userSpaceOnUse" x="-16" y="163" width="82" height="106">
<path d="M-15.53 253.39C-15.84 248.05 -12.27 242.51 -7.93 238.11C-4.07 234.19 0.83 231.08 -1.62 226.14C-5.55 218.21 -4.28 211.68 -0.349999 204.56C4.96 194.92 7.62 190.41 8.94 179C9.82 171.35 14.79 160.94 24.05 164.76C31.58 167.87 33.01 179.55 36.74 185.7C40.75 192.3 51.1 197.08 50.05 205.83C49.29 212.15 46.95 217.46 50.85 223.83C54.77 230.22 64.64 232.6 65.62 240.99C66.43 247.93 63.18 257.62 54.16 261.82C44.2 266.46 29.02 267.7 17.89 268.29C4.72 268.99 -10.42 266.77 -14.65 257.05C-15.17 255.85 -15.45 254.63 -15.52 253.39H-15.53Z" fill="white"/>
</mask>
<g mask="url(#mask1_0_1)">
<path fill-rule="evenodd" clip-rule="evenodd" d="M-15.53 253.39C-15.84 248.05 -12.27 242.51 -7.93 238.11C-4.07 234.19 0.830002 231.08 -1.62 226.14C-5.55 218.21 -4.28 211.68 -0.349998 204.56C4.96 194.92 7.62 190.41 8.94 179C9.82 171.35 14.79 160.94 24.05 164.76C31.58 167.87 33.01 179.55 36.74 185.7C40.75 192.3 51.1 197.08 50.05 205.83C49.29 212.15 46.95 217.46 50.85 223.83C54.77 230.22 64.64 232.6 65.62 240.99C66.43 247.93 63.18 257.62 54.16 261.82C44.2 266.46 29.02 267.7 17.89 268.29C4.72 268.99 -10.42 266.77 -14.65 257.05C-15.17 255.85 -15.45 254.63 -15.52 253.39H-15.53Z" fill="#93C776"/>
<path d="M6.96 185.07C6.64 187.45 6.38 190.09 7.25 192.31C8.04 190.2 8.44 187.94 9.06 185.78C10.51 187.35 10.36 190.15 12.15 191.69C12.69 189.68 13.07 187.63 13 185.61C13.6 187.53 13.65 189.87 15.1 191.44C15.58 189.3 15.76 187.13 15.9 184.96C17.41 186.66 17.89 189.45 18.77 191.63C19.47 189.73 19.49 187.4 20.11 185.55C21.44 186.84 21.92 188.67 22.63 190.1C23.04 188.15 23.57 186.2 23.6 184.22C24.54 186.38 24.71 188.75 25.6 190.94C26.57 188.97 26.61 186.47 27.46 184.41C28.08 186.43 27.95 189.12 29.29 190.71C29.86 188.41 29.7 186.06 30.1 183.76C31.08 185.03 31.68 187.25 32.39 188.8C32.84 187.47 32.92 185.91 33.08 184.48C34.02 186.1 34.66 188.27 36.12 189.5C36.18 187.9 35.99 186.24 36.01 184.64C37.79 185.8 39.11 187.92 40.68 189.54C40.35 187.96 39.97 186.43 39.88 184.81" stroke="#B7DD9E" stroke-width="1.22" stroke-linecap="round" stroke-linejoin="round"/>
<path d="M-10.71 204.48C-11.03 206.86 -11.29 209.5 -10.42 211.72C-9.63 209.61 -9.24 207.35 -8.6 205.19C-7.15 206.76 -7.3 209.56 -5.51 211.1C-4.97 209.09 -4.59 207.04 -4.66 205.02C-4.06 206.94 -4.01 209.28 -2.56 210.85C-2.08 208.71 -1.9 206.54 -1.76 204.38C-0.249995 206.08 0.220003 208.87 1.11 211.05C1.81 209.15 1.82 206.82 2.45 204.96C3.78 206.25 4.26 208.08 4.96 209.51C5.37 207.56 5.9 205.61 5.93 203.63C6.87 205.79 7.03 208.15 7.93 210.35C8.9 208.38 8.94 205.88 9.79 203.83C10.41 205.85 10.28 208.54 11.62 210.13C12.19 207.83 12.04 205.48 12.43 203.18C13.41 204.45 14 206.67 14.72 208.22C15.17 206.89 15.25 205.33 15.41 203.9C16.35 205.52 16.99 207.69 18.46 208.92C18.52 207.32 18.33 205.66 18.35 204.06C20.13 205.22 21.45 207.34 23.02 208.96C22.69 207.38 22.3 205.85 22.22 204.23" stroke="#B7DD9E" stroke-width="1.22" stroke-linecap="round" stroke-linejoin="round"/>
<path d="M23.07 202.11C22.75 204.49 22.49 207.13 23.36 209.35C24.15 207.24 24.55 204.98 25.18 202.82C26.63 204.39 26.48 207.19 28.27 208.73C28.81 206.72 29.19 204.67 29.12 202.65C29.72 204.57 29.77 206.91 31.22 208.48C31.7 206.34 31.88 204.17 32.02 202.01C33.53 203.71 34.01 206.5 34.89 208.68C35.59 206.78 35.61 204.45 36.23 202.6C37.56 203.89 38.04 205.72 38.75 207.15C39.16 205.2 39.69 203.25 39.72 201.27C40.66 203.43 40.82 205.79 41.72 207.99C42.69 206.02 42.73 203.52 43.58 201.46C44.2 203.48 44.07 206.17 45.41 207.76C45.98 205.45 45.82 203.1 46.22 200.8C47.2 202.07 47.8 204.29 48.51 205.84C48.96 204.51 49.04 202.95 49.2 201.52C50.14 203.14 50.78 205.31 52.24 206.54C52.3 204.94 52.11 203.28 52.13 201.68C53.9 202.84 55.23 204.96 56.8 206.58C56.48 205 56.09 203.47 56 201.85" stroke="#B7DD9E" stroke-width="1.22" stroke-linecap="round" stroke-linejoin="round"/>
<path d="M-9.58 224.03C-9.9 226.41 -10.16 229.05 -9.29 231.28C-8.5 229.17 -8.1 226.91 -7.48 224.75C-6.03 226.32 -6.18 229.12 -4.39 230.66C-3.85 228.65 -3.47 226.6 -3.54 224.58C-2.94 226.5 -2.89 228.84 -1.44 230.41C-0.959996 228.27 -0.779997 226.1 -0.639997 223.94C0.880003 225.64 1.35 228.43 2.23 230.61C2.93 228.71 2.95 226.38 3.57 224.52C4.9 225.81 5.38 227.64 6.08 229.07C6.49 227.12 7.02 225.17 7.05 223.19C7.99 225.35 8.15 227.72 9.05 229.91C10.02 227.94 10.06 225.44 10.91 223.39C11.53 225.41 11.4 228.1 12.74 229.69C13.31 227.39 13.15 225.04 13.55 222.74C14.53 224.01 15.13 226.23 15.84 227.78C16.29 226.45 16.37 224.9 16.53 223.46C17.47 225.08 18.11 227.25 19.57 228.48C19.63 226.88 19.44 225.22 19.46 223.62C21.24 224.77 22.56 226.9 24.13 228.52C23.8 226.94 23.42 225.41 23.33 223.79" stroke="#B7DD9E" stroke-width="1.22" stroke-linecap="round" stroke-linejoin="round"/>
<path d="M24.21 221.66C23.89 224.04 23.63 226.68 24.5 228.9C25.29 226.79 25.69 224.53 26.31 222.37C27.76 223.94 27.61 226.74 29.4 228.28C29.94 226.27 30.32 224.22 30.25 222.2C30.85 224.12 30.9 226.46 32.35 228.03C32.83 225.89 33.01 223.72 33.15 221.56C34.66 223.26 35.14 226.05 36.02 228.23C36.72 226.33 36.74 224 37.36 222.14C38.69 223.43 39.17 225.26 39.88 226.69C40.29 224.74 40.82 222.79 40.85 220.81C41.79 222.97 41.96 225.33 42.85 227.53C43.82 225.56 43.86 223.06 44.71 221.01C45.33 223.03 45.2 225.72 46.54 227.31C47.11 225 46.95 222.66 47.35 220.35C48.33 221.63 48.93 223.84 49.63 225.39C50.08 224.06 50.16 222.5 50.32 221.07C51.26 222.69 51.9 224.86 53.36 226.09C53.42 224.49 53.23 222.83 53.25 221.23C55.03 222.38 56.35 224.51 57.92 226.13C57.6 224.55 57.21 223.02 57.12 221.4" stroke="#B7DD9E" stroke-width="1.22" stroke-linecap="round" stroke-linejoin="round"/>
<path d="M-3.31 246.97C-3.63 249.35 -3.89 251.99 -3.02 254.21C-2.23 252.1 -1.84 249.84 -1.21 247.68C0.240003 249.25 0.0900025 252.05 1.88 253.59C2.42 251.58 2.8 249.53 2.73 247.51C3.33 249.43 3.38 251.77 4.83 253.34C5.3 251.2 5.49 249.03 5.63 246.87C7.14 248.57 7.62 251.36 8.5 253.54C9.2 251.64 9.21 249.31 9.84 247.45C11.17 248.74 11.65 250.57 12.35 252C12.76 250.05 13.29 248.1 13.32 246.12C14.26 248.28 14.43 250.64 15.32 252.84C16.29 250.87 16.33 248.37 17.18 246.32C17.8 248.34 17.67 251.03 19.01 252.62C19.58 250.32 19.43 247.97 19.82 245.67C20.8 246.94 21.39 249.16 22.11 250.71C22.56 249.38 22.64 247.82 22.8 246.39C23.74 248.01 24.38 250.18 25.85 251.4C25.91 249.8 25.72 248.14 25.74 246.54C27.51 247.7 28.84 249.82 30.41 251.44C30.08 249.86 29.7 248.33 29.61 246.71" stroke="#B7DD9E" stroke-width="1.22" stroke-linecap="round" stroke-linejoin="round"/>
<path d="M29.69 245.05C29.37 247.43 29.11 250.07 29.98 252.29C30.77 250.18 31.16 247.92 31.79 245.76C33.24 247.33 33.09 250.13 34.88 251.67C35.42 249.66 35.8 247.61 35.73 245.59C36.33 247.51 36.38 249.85 37.83 251.42C38.3 249.28 38.49 247.11 38.63 244.95C40.14 246.65 40.62 249.44 41.5 251.62C42.2 249.72 42.21 247.39 42.84 245.53C44.17 246.82 44.65 248.65 45.36 250.08C45.77 248.13 46.3 246.18 46.33 244.2C47.27 246.36 47.44 248.72 48.33 250.92C49.3 248.95 49.34 246.45 50.19 244.4C50.81 246.42 50.68 249.11 52.02 250.7C52.59 248.4 52.44 246.05 52.83 243.75C53.81 245.02 54.4 247.24 55.11 248.79C55.56 247.46 55.64 245.9 55.8 244.47C56.74 246.09 57.38 248.26 58.85 249.48C58.91 247.88 58.72 246.22 58.74 244.62C60.51 245.78 61.84 247.9 63.41 249.52C63.08 247.94 62.69 246.41 62.61 244.79" stroke="#B7DD9E" stroke-width="1.22" stroke-linecap="round" stroke-linejoin="round"/>
<path d="M63.47 242.68C63.15 245.06 62.89 247.7 63.76 249.92C64.55 247.81 64.94 245.55 65.57 243.39C67.02 244.96 66.87 247.76 68.66 249.3C69.2 247.29 69.58 245.24 69.51 243.22C70.11 245.14 70.16 247.48 71.61 249.05C72.09 246.91 72.27 244.74 72.41 242.58C73.93 244.28 74.4 247.07 75.28 249.25C75.98 247.35 75.99 245.02 76.62 243.16C77.95 244.45 78.43 246.28 79.13 247.71C79.54 245.76 80.07 243.81 80.1 241.83C81.04 243.99 81.2 246.35 82.1 248.55C83.07 246.58 83.11 244.08 83.96 242.02C84.58 244.04 84.45 246.73 85.79 248.32C86.36 246.02 86.21 243.67 86.6 241.37C87.58 242.64 88.17 244.86 88.88 246.41C89.33 245.08 89.41 243.52 89.57 242.09C90.51 243.71 91.15 245.88 92.62 247.11C92.68 245.51 92.49 243.85 92.51 242.25C94.29 243.41 95.61 245.53 97.18 247.15C96.85 245.57 96.47 244.04 96.38 242.42" stroke="#B7DD9E" stroke-width="1.22" stroke-linecap="round" stroke-linejoin="round"/>
</g>
<path d="M24.08 212.91L28.41 287.39" stroke="#C5966D" stroke-width="2.45" stroke-linecap="round" stroke-linejoin="round"/>
<path d="M4.4 235.74L26.12 259.55" stroke="#C5966D" stroke-width="2.45" stroke-linecap="round" stroke-linejoin="round"/>
<path d="M14.67 245.55L16.16 228.28" stroke="#C5966D" stroke-width="2.45" stroke-linecap="round" stroke-linejoin="round"/>
<path d="M25.02 228.35L38.37 211.4" stroke="#C5966D" stroke-width="2.45" stroke-linecap="round" stroke-linejoin="round"/>
<path d="M32.83 219.58C34.18 219.04 40.09 217.31 40.09 217.31" stroke="#C5966D" stroke-width="2.45" stroke-linecap="round" stroke-linejoin="round"/>
<path d="M26.02 245.39C27.38 244.85 44.29 233.7 44.29 233.7" stroke="#C5966D" stroke-width="2.45" stroke-linecap="round" stroke-linejoin="round"/>
<path d="M38 228.98L35.75 237.89" stroke="#C5966D" stroke-width="2.45" stroke-linecap="round" stroke-linejoin="round"/>
<path fill-rule="evenodd" clip-rule="evenodd" d="M87.6 207.5C88.58 222.91 99.16 235.32 99.97 251.13C100.61 263.56 89.72 276.32 75.87 273.5C48.75 267.98 53.46 223.51 67.05 207.52C70.8 203.1 78.09 195.63 84.46 199.31C85.86 200.11 86.61 200.99 87.03 201.94C87.71 203.52 87.46 205.34 87.6 207.5Z" fill="#006E0E"/>
<path d="M71.01 247.19L69.85 241.28" stroke="white" stroke-width="2.37" stroke-linecap="round" stroke-linejoin="round"/>
<path d="M74.2 227.44L83.15 287.99" stroke="white" stroke-width="2.37" stroke-linecap="round" stroke-linejoin="round"/>
<path d="M67.23 245.14L77.43 251.45" stroke="white" stroke-width="2.37" stroke-linecap="round" stroke-linejoin="round"/>
<path d="M79.05 260.48L88.84 250.35" stroke="white" stroke-width="2.37" stroke-linecap="round" stroke-linejoin="round"/>
<path d="M84.65 253.28L85.14 246.84" stroke="white" stroke-width="2.37" stroke-linecap="round" stroke-linejoin="round"/>
<path d="M75.91 239.23L81.97 228.35" stroke="white" stroke-width="2.37" stroke-linecap="round" stroke-linejoin="round"/>
<path d="M80.46 232.77L85.39 230.88" stroke="white" stroke-width="2.37" stroke-linecap="round" stroke-linejoin="round"/>
<path fill-rule="evenodd" clip-rule="evenodd" d="M77.35 211.81C77.47 212.62 76.91 213.37 76.1 213.49C75.29 213.61 74.54 213.05 74.42 212.24C74.3 211.43 74.86 210.68 75.67 210.56C76.48 210.44 77.23 211 77.35 211.81Z" fill="#5E9E61"/>
<path fill-rule="evenodd" clip-rule="evenodd" d="M69.81 221.61C69.93 222.42 69.37 223.17 68.56 223.29C67.75 223.41 67 222.85 66.88 222.04C66.76 221.23 67.32 220.48 68.13 220.36C68.94 220.24 69.69 220.8 69.81 221.61Z" fill="#5E9E61"/>
<path fill-rule="evenodd" clip-rule="evenodd" d="M91.92 235.42C92.04 236.23 91.48 236.98 90.67 237.1C89.86 237.22 89.11 236.66 88.99 235.85C88.87 235.04 89.43 234.29 90.24 234.17C91.05 234.05 91.8 234.61 91.92 235.42Z" fill="#5E9E61"/>
<path fill-rule="evenodd" clip-rule="evenodd" d="M66.86 236.13C66.98 236.94 66.42 237.69 65.61 237.81C64.8 237.93 64.05 237.37 63.93 236.56C63.81 235.75 64.37 235 65.18 234.88C65.99 234.76 66.74 235.32 66.86 236.13Z" fill="#5E9E61"/>
<path fill-rule="evenodd" clip-rule="evenodd" d="M85.77 220.15C85.89 220.96 85.33 221.71 84.52 221.83C83.71 221.95 82.96 221.39 82.84 220.58C82.72 219.77 83.28 219.02 84.09 218.9C84.9 218.78 85.65 219.34 85.77 220.15Z" fill="#5E9E61"/>
<path fill-rule="evenodd" clip-rule="evenodd" d="M82.84 202.31C82.96 203.12 82.4 203.87 81.59 203.99C80.78 204.11 80.03 203.55 79.91 202.74C79.79 201.93 80.35 201.18 81.16 201.06C81.97 200.94 82.72 201.5 82.84 202.31Z" fill="#5E9E61"/>
<path fill-rule="evenodd" clip-rule="evenodd" d="M64.47 252.36C64.59 253.17 64.03 253.92 63.22 254.04C62.41 254.16 61.66 253.6 61.54 252.79C61.42 251.98 61.98 251.23 62.79 251.11C63.6 250.99 64.35 251.55 64.47 252.36Z" fill="#5E9E61"/>
<path fill-rule="evenodd" clip-rule="evenodd" d="M83.15 240.91C83.27 241.72 82.71 242.47 81.9 242.59C81.09 242.71 80.34 242.15 80.22 241.34C80.1 240.53 80.66 239.78 81.47 239.66C82.28 239.54 83.03 240.1 83.15 240.91Z" fill="#5E9E61"/>
<path fill-rule="evenodd" clip-rule="evenodd" d="M98.37 250.64C98.49 251.45 97.93 252.2 97.12 252.32C96.31 252.44 95.56 251.88 95.44 251.07C95.32 250.26 95.88 249.51 96.69 249.39C97.5 249.27 98.25 249.83 98.37 250.64Z" fill="#5E9E61"/>
<path fill-rule="evenodd" clip-rule="evenodd" d="M89.67 262.72C89.79 263.53 89.23 264.28 88.42 264.4C87.61 264.52 86.86 263.96 86.74 263.15C86.62 262.34 87.18 261.59 87.99 261.47C88.8 261.35 89.55 261.91 89.67 262.72Z" fill="#5E9E61"/>
<path fill-rule="evenodd" clip-rule="evenodd" d="M72.46 257.77C72.58 258.58 72.02 259.33 71.21 259.45C70.4 259.57 69.65 259.01 69.53 258.2C69.41 257.39 69.97 256.64 70.78 256.52C71.59 256.4 72.34 256.96 72.46 257.77Z" fill="#5E9E61"/>
<path fill-rule="evenodd" clip-rule="evenodd" d="M74.81 267.61C74.93 268.42 74.37 269.17 73.56 269.29C72.75 269.41 72 268.85 71.88 268.04C71.76 267.23 72.32 266.48 73.13 266.36C73.94 266.24 74.69 266.8 74.81 267.61Z" fill="#5E9E61"/>
<path fill-rule="evenodd" clip-rule="evenodd" d="M93.77 243.83C93.89 244.64 93.33 245.39 92.52 245.51C91.71 245.63 90.96 245.07 90.84 244.26C90.72 243.45 91.28 242.7 92.09 242.58C92.9 242.46 93.65 243.02 93.77 243.83Z" fill="#5E9E61"/>
<path fill-rule="evenodd" clip-rule="evenodd" d="M69.72 210.84C69.84 211.65 69.28 212.4 68.47 212.52C67.66 212.64 66.91 212.08 66.79 211.27C66.67 210.46 67.23 209.71 68.04 209.59C68.85 209.47 69.6 210.03 69.72 210.84Z" fill="#5E9E61"/>
<path fill-rule="evenodd" clip-rule="evenodd" d="M62.85 229.23C62.97 230.04 62.41 230.79 61.6 230.91C60.79 231.03 60.04 230.47 59.92 229.66C59.8 228.85 60.36 228.1 61.17 227.98C61.98 227.86 62.73 228.42 62.85 229.23Z" fill="#5E9E61"/>
<path fill-rule="evenodd" clip-rule="evenodd" d="M77.55 219.27C77.67 220.08 77.11 220.83 76.3 220.95C75.49 221.07 74.74 220.51 74.62 219.7C74.5 218.89 75.06 218.14 75.87 218.02C76.68 217.9 77.43 218.46 77.55 219.27Z" fill="#5E9E61"/>
</g>
<g clip-path="url(#clip1_0_1)">
<path fill-rule="evenodd" clip-rule="evenodd" d="M860.31 249.21C860.31 249.21 860.31 249.17 860.31 249.15C860.31 248.92 860.28 248.7 860.27 248.47C860.27 248.43 860.27 248.39 860.27 248.35C859.74 238.43 854.64 229.79 847.08 224.41C844.94 222.62 842.57 221 839.98 219.57C845.16 211.74 849.39 202.51 843.88 194.08C840.33 188.65 834.23 184.34 826.57 182.34C826.02 182.2 822.99 181.88 820.03 181.7C820.16 180.48 820.22 179.25 820.18 177.99C819.76 163.23 807.43 151.59 792.66 152.01C781.15 152.34 775.81 158.55 773.08 168.46C768.66 164.13 761 160.97 754.74 162.31C749.18 163.51 743.83 166.68 740.47 171.32C737.84 174.96 736.72 179.18 737.19 183.27C737.37 184.84 740.17 194.9 743.22 194.65C736.34 195.2 733.13 194.31 726.97 197.28C722.46 199.46 718.8 202.53 716.08 205.98C710.74 212.75 708.75 221.19 710.85 228.82C711.08 229.66 711.33 230.49 711.71 231.28C712.04 231.96 712.64 232.56 713 233.24C713.81 234.72 715.53 235.55 716.98 236.58C717.64 237.05 718.3 237.52 718.96 237.99C719.56 238.41 721.91 239.63 722.45 240.28C717.82 245.93 715.13 253.2 715.35 261.08C715.85 278.43 730.32 292.1 747.67 291.6C753.72 291.43 759.32 289.55 764.03 286.45C769.89 292.05 777.9 295.4 786.64 295.15C798.4 294.81 808.46 288.05 813.58 278.33C814.34 278.46 815.1 278.58 815.87 278.68C820.1 280.61 824.82 281.63 829.78 281.48C845.69 281.02 858.49 268.82 860.13 253.43C860.3 252.04 860.36 250.64 860.3 249.22L860.31 249.21Z" fill="#81C34E"/>
<path d="M816.47 227.28C815.32 226.71 813.91 227.18 813.34 228.33C811.42 232.2 808.83 235.3 805.66 237.59C805.82 234.79 805.77 231.95 805.44 229.1C805.29 227.82 804.14 226.91 802.85 227.05C801.57 227.2 800.65 228.36 800.8 229.64C802.58 244.85 795.72 259.8 790.15 269.09L788.88 267.93C784.1 261.91 780.01 252.01 777.53 246C776.41 243.29 775.47 240.37 774.71 237.34C775.01 237.29 775.32 237.19 775.59 237.02C781.1 233.51 785.42 225.78 786.84 219.97C787.15 218.72 786.38 217.45 785.13 217.15C783.87 216.84 782.61 217.61 782.31 218.87C781.19 223.49 777.71 229.72 773.7 232.66C773.16 229.67 772.81 226.62 772.66 223.6C772.6 222.31 771.5 221.32 770.21 221.38C768.96 221.45 767.93 222.54 767.99 223.83C768.36 231.54 770.01 239.44 772.63 246.29C769.38 244.57 766.3 242.15 763.29 239.79C761.89 238.69 760.45 237.56 759.03 236.52C757.99 235.76 756.53 235.99 755.77 237.04C755.01 238.08 755.24 239.54 756.29 240.3C757.64 241.28 758.99 242.34 760.41 243.46C764.92 247.01 769.58 250.67 775.09 252.4C775.11 252.4 775.13 252.4 775.15 252.41C777.14 257.05 779.69 262.55 782.63 267.18L780.31 328.43L803.01 326.68C801.56 316.46 801 315.61 799.54 305.39C798.53 298.26 797.51 291.14 796.5 284.01C796.14 281.44 795.35 278.09 795.03 274.81L795.2 274.89C795.08 274.03 795.01 273.56 795.01 273.56L794.93 273.49C794.87 272.28 794.89 271.1 795.04 269.99C799.01 263.09 803.36 253.66 805.03 243.29C805.35 243.26 805.67 243.16 805.96 242.99C810.9 240.17 814.78 235.94 817.52 230.43C818.09 229.28 817.62 227.87 816.47 227.3V227.28Z" fill="#71523A"/>
<path d="M782.38 278.69C783.47 272.74 780.57 264.46 778.46 258.94C782.62 263.94 784.62 271.02 788.55 276.08" fill="#71523A"/>
<path d="M752.8 175.27C753.9 176.07 754.51 177.13 754.62 178.74C754.7 179.88 754.06 182.05 753.54 183.19C753.37 183.56 748.62 180.12 748.28 179.59C747.25 177.97 747.38 175.51 747.49 173.53C747.51 173.14 751.13 174.37 751.39 174.48C751.92 174.72 752.39 174.98 752.8 175.27Z" fill="#B3E492"/>
<path d="M788.21 161.05C788.15 162.41 787.6 163.5 786.32 164.48C785.41 165.17 783.25 165.83 782.01 166.03C781.61 166.09 781.87 160.23 782.12 159.66C782.91 157.9 785.03 156.67 786.74 155.66C787.08 155.46 788.04 159.16 788.09 159.44C788.19 160.02 788.23 160.55 788.21 161.05Z" fill="#B3E492"/>
<path d="M733.1 210.56C731.86 211.12 730.63 211.12 729.19 210.41C728.16 209.91 726.6 208.28 725.87 207.25C725.63 206.92 730.99 204.52 731.61 204.49C733.53 204.4 735.59 205.74 737.26 206.82C737.59 207.03 734.72 209.56 734.49 209.73C734.02 210.08 733.56 210.35 733.11 210.56H733.1Z" fill="#B3E492"/>
<path d="M776.08 177.07C776.23 178.43 775.85 179.59 774.73 180.75C773.94 181.57 771.9 182.55 770.7 182.94C770.32 183.06 769.67 177.23 769.84 176.63C770.35 174.77 772.26 173.23 773.8 171.97C774.11 171.72 775.62 175.23 775.71 175.5C775.89 176.06 776.02 176.58 776.07 177.07H776.08Z" fill="#B3E492"/>
<path d="M762.75 190.88C764.04 191.34 764.92 192.18 765.48 193.69C765.88 194.76 765.88 197.02 765.71 198.27C765.66 198.67 760.12 196.72 759.65 196.31C758.2 195.05 757.63 192.65 757.17 190.72C757.08 190.34 760.9 190.49 761.18 190.53C761.76 190.61 762.28 190.72 762.75 190.89V190.88Z" fill="#B3E492"/>
<path d="M782.25 192.5C782.78 193.76 782.75 194.98 782.01 196.41C781.48 197.43 779.81 198.94 778.77 199.65C778.44 199.88 776.16 194.47 776.15 193.84C776.11 191.92 777.5 189.89 778.62 188.25C778.84 187.92 781.29 190.86 781.46 191.09C781.79 191.57 782.06 192.03 782.25 192.49V192.5Z" fill="#B3E492"/>
<path d="M772.53 286.04C771.53 286.97 770.37 287.36 768.77 287.16C767.64 287.02 765.64 285.97 764.61 285.24C764.28 285.01 768.57 281 769.15 280.77C770.94 280.07 773.32 280.68 775.25 281.16C775.63 281.26 773.73 284.57 773.56 284.81C773.22 285.29 772.88 285.7 772.52 286.04H772.53Z" fill="#B3E492"/>
<path d="M753.87 250.69C752.87 251.62 751.71 252.01 750.12 251.81C748.99 251.67 746.98 250.62 745.96 249.89C745.63 249.66 749.92 245.66 750.51 245.42C752.3 244.72 754.68 245.32 756.61 245.81C756.99 245.91 755.09 249.22 754.92 249.46C754.58 249.94 754.24 250.35 753.88 250.69H753.87Z" fill="#B3E492"/>
<path d="M749.27 261.9C748.27 262.83 747.11 263.22 745.52 263.02C744.39 262.87 742.38 261.83 741.36 261.1C741.03 260.87 745.32 256.86 745.91 256.63C747.7 255.93 750.08 256.54 752.02 257.02C752.4 257.12 750.5 260.43 750.33 260.66C749.99 261.14 749.65 261.55 749.29 261.89L749.27 261.9Z" fill="#B3E492"/>
<path d="M768.49 258.85C767.49 259.78 766.33 260.17 764.73 259.97C763.6 259.83 761.6 258.78 760.57 258.05C760.24 257.82 764.53 253.81 765.11 253.58C766.9 252.88 769.28 253.49 771.21 253.97C771.59 254.07 769.69 257.38 769.52 257.62C769.18 258.1 768.84 258.51 768.48 258.85H768.49Z" fill="#B3E492"/>
<path d="M758.37 282.87C757.37 283.8 756.21 284.19 754.61 283.99C753.48 283.85 751.48 282.8 750.45 282.07C750.12 281.84 754.41 277.83 755 277.6C756.79 276.9 759.17 277.51 761.1 277.99C761.48 278.09 759.58 281.4 759.41 281.64C759.07 282.12 758.73 282.53 758.37 282.87Z" fill="#B3E492"/>
<path d="M757.67 269.84C756.67 270.77 755.51 271.16 753.91 270.96C752.78 270.82 750.78 269.77 749.75 269.04C749.42 268.81 753.71 264.8 754.29 264.57C756.08 263.87 758.46 264.48 760.39 264.96C760.77 265.06 758.87 268.37 758.7 268.61C758.36 269.09 758.02 269.5 757.66 269.84H757.67Z" fill="#B3E492"/>
<path d="M772.62 272.81C771.62 273.74 770.46 274.13 768.87 273.93C767.74 273.79 765.74 272.74 764.71 272.01C764.38 271.78 768.67 267.77 769.26 267.54C771.05 266.84 773.43 267.45 775.36 267.93C775.74 268.03 773.84 271.34 773.67 271.58C773.34 272.06 772.99 272.47 772.63 272.81H772.62Z" fill="#B3E492"/>
<path d="M790.99 239.4C791.2 240.75 790.88 241.93 789.82 243.14C789.06 244 787.08 245.07 785.9 245.51C785.52 245.65 784.61 239.86 784.75 239.24C785.17 237.36 787.01 235.73 788.49 234.4C788.78 234.14 790.46 237.57 790.56 237.84C790.77 238.39 790.92 238.9 790.99 239.39V239.4Z" fill="#B3E492"/>
<path d="M793.46 253.91C793.67 255.26 793.35 256.44 792.29 257.65C791.53 258.51 789.55 259.58 788.37 260.02C787.99 260.16 787.08 254.37 787.22 253.75C787.64 251.87 789.48 250.24 790.96 248.91C791.25 248.65 792.93 252.08 793.03 252.35C793.24 252.9 793.39 253.41 793.46 253.9V253.91Z" fill="#B3E492"/>
<path d="M761.8 224.04C762.52 225.2 762.68 226.41 762.17 227.94C761.81 229.03 760.4 230.79 759.48 231.65C759.19 231.93 756.09 226.94 755.98 226.33C755.64 224.44 756.69 222.22 757.54 220.42C757.71 220.06 760.59 222.57 760.79 222.78C761.19 223.2 761.53 223.62 761.79 224.04H761.8Z" fill="#B3E492"/>
<path d="M802.8 216.4C802.34 217.68 801.48 218.56 799.97 219.11C798.89 219.5 796.64 219.48 795.39 219.3C794.99 219.24 796.98 213.72 797.4 213.25C798.67 211.81 801.07 211.26 803.01 210.81C803.39 210.72 803.21 214.54 803.17 214.83C803.09 215.41 802.97 215.93 802.8 216.4Z" fill="#B3E492"/>
<path d="M792.34 209.75C791.88 211.03 791.02 211.91 789.51 212.46C788.43 212.85 786.18 212.83 784.93 212.65C784.53 212.59 786.53 207.07 786.94 206.6C788.22 205.16 790.61 204.61 792.55 204.17C792.93 204.08 792.75 207.9 792.71 208.18C792.63 208.76 792.51 209.28 792.34 209.75Z" fill="#B3E492"/>
<path d="M726.59 228.87C725.3 229.3 724.08 229.18 722.71 228.33C721.74 227.73 720.35 225.95 719.72 224.86C719.52 224.51 725.08 222.65 725.71 222.68C727.63 222.78 729.55 224.32 731.1 225.56C731.41 225.81 728.3 228.03 728.05 228.18C727.55 228.48 727.06 228.71 726.59 228.87Z" fill="#B3E492"/>
<path d="M739.88 254.36C738.82 255.22 737.64 255.54 736.06 255.23C734.94 255.01 733.01 253.84 732.03 253.04C731.72 252.78 736.26 249.07 736.86 248.88C738.7 248.3 741.03 249.06 742.92 249.67C743.3 249.79 741.18 252.97 740.99 253.2C740.62 253.66 740.25 254.04 739.87 254.36H739.88Z" fill="#B3E492"/>
<path d="M744.32 226.25C742.97 226.46 741.79 226.14 740.58 225.09C739.72 224.34 738.64 222.35 738.2 221.18C738.06 220.8 743.85 219.87 744.47 220.01C746.35 220.43 747.98 222.26 749.32 223.74C749.58 224.03 746.15 225.72 745.88 225.82C745.33 226.03 744.82 226.18 744.33 226.26L744.32 226.25Z" fill="#B3E492"/>
<path d="M739.6 240.18C738.25 240.39 737.07 240.07 735.86 239.02C735 238.27 733.92 236.28 733.48 235.11C733.34 234.73 739.13 233.8 739.74 233.94C741.62 234.36 743.26 236.19 744.59 237.67C744.85 237.96 741.42 239.65 741.15 239.75C740.6 239.96 740.09 240.11 739.6 240.19V240.18Z" fill="#B3E492"/>
<path d="M751.06 210.96C749.77 210.51 748.88 209.67 748.31 208.17C747.91 207.1 747.89 204.84 748.06 203.59C748.11 203.19 753.66 205.1 754.14 205.51C755.6 206.76 756.18 209.15 756.66 211.08C756.75 211.46 752.93 211.33 752.65 211.3C752.07 211.23 751.55 211.12 751.08 210.95L751.06 210.96Z" fill="#B3E492"/>
<path d="M795.75 191.09C795.99 192.43 795.7 193.62 794.67 194.86C793.94 195.74 791.98 196.86 790.81 197.33C790.44 197.48 789.38 191.71 789.5 191.09C789.88 189.2 791.67 187.52 793.12 186.16C793.41 185.89 795.17 189.28 795.28 189.55C795.5 190.09 795.66 190.6 795.75 191.09Z" fill="#B3E492"/>
<path d="M775.16 208.26C775.78 209.47 775.85 210.69 775.23 212.18C774.78 213.23 773.24 214.88 772.26 215.67C771.95 215.92 769.25 210.71 769.19 210.09C769 208.18 770.23 206.05 771.21 204.32C771.41 203.98 774.08 206.71 774.26 206.93C774.63 207.38 774.93 207.82 775.16 208.27V208.26Z" fill="#B3E492"/>
<path d="M794.19 175.14C793.9 176.47 793.17 177.46 791.74 178.2C790.72 178.73 788.49 179.01 787.23 178.99C786.83 178.99 788.08 173.25 788.43 172.73C789.5 171.13 791.81 170.28 793.67 169.58C794.04 169.44 794.36 173.25 794.36 173.54C794.36 174.12 794.31 174.66 794.2 175.14H794.19Z" fill="#B3E492"/>
<path d="M796.61 288.92C792.23 290.4 793.79 298.38 797.87 297.81" stroke="#9B765D" stroke-width="1.63" stroke-linecap="round" stroke-linejoin="round"/>
<path d="M795.8 284.69C790.74 285.89 789.1 291.6 790.35 296.31C791.06 298.98 795.51 302.52 798.38 301.02" stroke="#9B765D" stroke-width="1.63" stroke-linecap="round" stroke-linejoin="round"/>
<path d="M784.07 312.01C784.21 313.48 783.8 314.76 783.85 316.13" stroke="#9B765D" stroke-width="1.63" stroke-linecap="round" stroke-linejoin="round"/>
<path d="M786.87 315.64C786.72 316.31 786.65 317.01 786.66 317.71" stroke="#9B765D" stroke-width="1.63" stroke-linecap="round" stroke-linejoin="round"/>
<path d="M787.23 308.64C787.31 309.52 787.4 310.4 787.48 311.28" stroke="#9B765D" stroke-width="1.63" stroke-linecap="round" stroke-linejoin="round"/>
<path d="M784.88 281.84C785.02 283.12 784.93 284.45 784.84 285.73" stroke="#9B765D" stroke-width="1.63" stroke-linecap="round" stroke-linejoin="round"/>
<path d="M787.3 281.41C787.35 280.51 787.55 279.64 787.45 278.73" stroke="#9B765D" stroke-width="1.63" stroke-linecap="round" stroke-linejoin="round"/>
<path d="M799.43 318.54C799.53 319.62 799.64 320.7 799.74 321.79" stroke="#9B765D" stroke-width="1.63" stroke-linecap="round" stroke-linejoin="round"/>
<path d="M796.43 314.93C796.51 315.74 796.58 316.55 796.66 317.36" stroke="#9B765D" stroke-width="1.63" stroke-linecap="round" stroke-linejoin="round"/>
<path d="M640.79 221.16C645.57 207.55 655.12 191.17 665.2 211.49C672.15 225.5 678.19 240.12 684.38 254.39C691.57 270.97 699.68 303.43 684.59 318.41C671.96 330.95 654.62 332.24 640.84 320.82C611.64 296.61 631.17 249.37 640.76 221.24C640.76 221.21 640.78 221.19 640.78 221.16H640.79Z" fill="#BFE7A7"/>
<mask id="mask2_0_1" style="mask-type:luminance" maskUnits="userSpaceOnUse" x="625" y="201" width="69" height="128">
<path d="M640.79 221.16C645.57 207.55 655.12 191.17 665.2 211.49C672.15 225.5 678.19 240.12 684.38 254.39C691.57 270.97 699.68 303.43 684.59 318.41C671.96 330.95 654.62 332.24 640.84 320.82C611.64 296.61 631.17 249.37 640.76 221.24C640.76 221.21 640.78 221.19 640.78 221.16H640.79Z" fill="white"/>
</mask>
<g mask="url(#mask2_0_1)">
<path d="M679.24 219.21C661.82 220.76 643.04 218.18 625.94 221.85C644.18 228.35 666.74 223.97 684.79 229.83C672.74 232.93 654.13 230.49 641.73 228.76C657.85 232.8 677.24 235.65 693.83 235.7C677.61 237.9 651.71 234.99 632.5 234.39C650.47 238.76 671.01 235.21 688.41 240.9C668.14 245.2 645.34 237.14 624.81 239.11C647.96 242.11 672.52 246.78 695.81 246.93C672.28 249.68 648.56 245.28 625.02 245.71C649.2 249.93 674.39 249.29 698.23 255.01C669.36 256.85 640.1 250.66 611.21 250.48C635.02 251.61 664.83 253.13 687.27 261.18C673.79 261.91 660.07 260.6 646.66 259.32C636.25 258.33 622.91 259.3 613.04 255.72C638.92 257.15 671.16 258.4 695.65 266.86C667.99 269.04 639.48 263.38 611.79 262.54C639.36 266.46 668.38 268.83 695.2 276.39C667.32 278.62 638.89 271.33 611.03 270.05C640.69 270.69 671.63 279.08 700.81 284.57C675.24 285.96 649.54 278.5 624.1 276.58C644.67 282.35 673.74 279.55 691.81 290.43C667.98 292.49 640.41 286.21 616.67 283.11C634.13 286.45 651.77 288.87 669.16 292.57C681.88 295.28 695.96 295.49 707.87 301.53C679.74 303.46 651.09 294.42 622.91 295.19C637.09 297.13 651.17 299.43 665.18 302.4C677.45 305 696.22 305.93 706.9 312.46C692.71 313.59 676.5 309.17 662.38 307.56C650.14 306.17 637.53 305.65 625.42 303.43C640.13 304.28 656.1 308.54 670.59 311.24C681.65 313.3 698.56 313.9 707.96 319.4C695.52 322.43 680.08 317.47 667.74 315.87C654.33 314.13 640.68 312.61 627.15 312.17C649.84 319.73 674.22 322.31 697.1 329.61C686.2 333.78 671.24 329.77 659.77 328.85C640.76 327.32 621.65 326.14 602.69 324.12" stroke="#EBFCE0" stroke-width="1.42" stroke-linecap="round" stroke-linejoin="round"/>
</g>
<path d="M656.95 250.78L668.2 345.84" stroke="#C5966D" stroke-width="2.84" stroke-linecap="round" stroke-linejoin="round"/>
<path d="M674.85 274.84L661.94 288.63" stroke="#C5966D" stroke-width="2.84" stroke-linecap="round" stroke-linejoin="round"/>
<path d="M663.19 303.03L644.12 291.65" stroke="#C5966D" stroke-width="2.84" stroke-linecap="round" stroke-linejoin="round"/>
<path d="M651.71 294.39L648.31 284.79" stroke="#C5966D" stroke-width="2.84" stroke-linecap="round" stroke-linejoin="round"/>
<path d="M659.21 269.42L645.51 255.37" stroke="#C5966D" stroke-width="2.84" stroke-linecap="round" stroke-linejoin="round"/>
<path d="M649.64 261.46L641.36 260.63" stroke="#C5966D" stroke-width="2.84" stroke-linecap="round" stroke-linejoin="round"/>
<path d="M721.82 317.87C729.56 317.96 739.11 316.69 744.48 310.47C752.8 300.83 739.77 295.85 742.88 285.78C744.35 281 748.3 278.12 746.89 272.76C745.77 268.48 740.6 265.31 738.42 261.63C735.45 256.62 736.34 250.9 736.36 245.02C736.4 231.85 726.73 226.75 727.41 213.74C727.76 207.19 729.7 200.59 724.85 195.14C719.91 189.59 715.56 189.62 714.63 181.61C713.85 174.9 715.03 170.39 708.88 166.27C702.38 161.92 698.67 164.36 696.08 171.38C692.27 181.75 691.74 193.53 687.81 204.13C685.44 210.51 684.63 213.62 687.19 220.12C689.51 226.03 692.53 229.81 691.63 236.7C690.84 242.75 686.27 246.03 685.24 251.4C684.03 257.73 690.09 260.67 688.97 266.63C684.73 267.48 679.23 268.13 679.47 273.77C679.65 277.99 685.05 279.64 685.25 283.98C685.66 293 672.55 296.47 680.94 307.36C688.89 317.69 709.93 317.73 721.82 317.87Z" fill="#26B786"/>
<mask id="mask3_0_1" style="mask-type:luminance" maskUnits="userSpaceOnUse" x="678" y="164" width="70" height="154">
<path d="M721.82 317.87C729.56 317.96 739.11 316.69 744.48 310.47C752.8 300.83 739.77 295.85 742.88 285.78C744.35 281 748.3 278.12 746.89 272.76C745.77 268.48 740.6 265.31 738.42 261.63C735.45 256.62 736.34 250.9 736.36 245.02C736.4 231.85 726.73 226.75 727.41 213.74C727.76 207.19 729.7 200.59 724.85 195.14C719.91 189.59 715.56 189.62 714.63 181.61C713.85 174.9 715.03 170.39 708.88 166.27C702.38 161.92 698.67 164.36 696.08 171.38C692.27 181.75 691.74 193.53 687.81 204.13C685.44 210.51 684.63 213.62 687.19 220.12C689.51 226.03 692.53 229.81 691.63 236.7C690.84 242.75 686.27 246.03 685.24 251.4C684.03 257.73 690.09 260.67 688.97 266.63C684.73 267.48 679.23 268.13 679.47 273.77C679.65 277.99 685.05 279.64 685.25 283.98C685.66 293 672.55 296.47 680.94 307.36C688.89 317.69 709.93 317.73 721.82 317.87Z" fill="white"/>
</mask>
<g mask="url(#mask3_0_1)">
<path d="M730.1 190.42C707.62 190.42 684.12 191.43 661.9 187.58" stroke="#46D19F" stroke-width="1.42" stroke-miterlimit="10"/>
<path d="M742.41 211.26C723.45 207.89 704.6 202.54 685.58 198.95" stroke="#46D19F" stroke-width="1.42" stroke-miterlimit="10"/>
<path d="M745.25 210.31C716.62 210.31 687.46 210.79 659.06 206.52" stroke="#46D19F" stroke-width="1.42" stroke-miterlimit="10"/>
<path d="M739.57 219.78C715.6 219.78 691.68 218.98 667.71 218.81C693.07 218.69 726.43 221.84 750.46 230.01C723.53 231.63 696.5 226.05 669.52 226.37C697.77 231.83 730.4 230.63 757.2 240.43C742.97 241.94 727.51 238.71 713.31 237.58C699.59 236.49 684.18 236.93 670.75 233.88C700.44 241.01 734.63 246.54 765.07 248.22C731.1 249.05 692.74 244.88 659.32 238.62C678.16 241.56 696.96 245.54 715.69 249.15C729.87 251.88 747.28 252.82 760.54 258.9C749.46 262.08 734.72 258.31 723.27 257.86C703.54 257.09 679.35 254.18 659.98 258.83C670.08 264.81 695.24 261.37 707.25 261.49C726.39 261.67 745.23 263.8 764.27 264.46C754.53 272.21 726.31 269.77 713.93 270C697.94 270.3 681.82 270.56 665.92 271.85C698.3 278.49 734.4 270.76 766.1 281.58C733.92 289.01 694.58 287.26 661.65 286.03C697.32 289.48 736.43 287.88 770.9 298.2C732.8 301.57 694.41 290.85 656.5 288.84C678.91 291.54 701.37 297.13 723.58 301.23C734.74 303.29 763.85 304.12 771.53 313.61C753.65 319.74 725.31 310.97 707.58 307.88C687.92 304.46 666.66 298.35 646.75 297.44" stroke="#46D19F" stroke-width="1.42" stroke-miterlimit="10"/>
</g>
<path d="M713.48 238.19V331.93" stroke="#8D6033" stroke-width="2.84" stroke-linecap="round" stroke-linejoin="round"/>
<path d="M728 263.45L713.97 275.29" stroke="#8D6033" stroke-width="2.84" stroke-linecap="round" stroke-linejoin="round"/>
<path d="M713.53 289.32L696.42 276.17" stroke="#8D6033" stroke-width="2.84" stroke-linecap="round" stroke-linejoin="round"/>
<path d="M703.44 279.67L701.25 270.03" stroke="#8D6033" stroke-width="2.84" stroke-linecap="round" stroke-linejoin="round"/>
<path d="M713.53 256.43L701.91 241.3" stroke="#8D6033" stroke-width="2.84" stroke-linecap="round" stroke-linejoin="round"/>
<path d="M705.2 247.66L697.3 245.91" stroke="#8D6033" stroke-width="2.84" stroke-linecap="round" stroke-linejoin="round"/>
</g>
<path d="M266 775C266 520.949 471.949 315 726 315H800V775H266Z" fill="#73B220"/>
<path d="M0 275H240C516.142 275 740 498.858 740 775H0V275Z" fill="#8DC642"/>
<path d="M373.37 351.61C372.43 351.51 371.58 351.96 370.66 352.05C370.69 350.98 370.5 350.17 369.38 349.94C368.57 349.78 367.63 349.85 366.83 350.07C366.13 350.26 365.58 350.71 365.19 351.34C364.93 351.77 364.75 352.37 364.95 352.85C364.52 352.91 363.91 352.53 363.48 352.41C362.96 352.27 362.43 352.14 361.89 352.07C361.01 351.95 359.95 351.95 359.27 352.66C355.97 356.11 361.78 356.79 363.41 356.46C361.91 357.1 361.11 359.16 362.6 360.19C363.32 360.69 364.37 360.15 365.05 359.81C366 359.35 366.94 358.86 367.81 358.27C367.88 358.22 368.43 359.01 368.52 359.12C368.84 359.49 369.29 359.63 369.69 359.86C370.58 360.35 371.9 360.7 372.89 360.23C373.38 359.99 373.82 359.42 373.98 358.89C374.2 358.18 373.52 357.57 373.09 357.12C372.74 356.75 372.16 356.08 371.59 356.23C373.01 355.87 376.66 357.46 376.61 353.99C376.58 352.26 374.38 351.73 373.35 351.62L373.37 351.61Z" fill="white"/>
<path d="M344.15 334.46C342.83 334.31 341.64 334.94 340.36 335.07C340.4 333.57 340.14 332.44 338.56 332.12C337.42 331.89 336.11 331.99 334.99 332.31C334.02 332.58 333.24 333.21 332.69 334.09C332.32 334.69 332.08 335.53 332.36 336.2C331.75 336.29 330.91 335.75 330.3 335.59C329.57 335.39 328.83 335.21 328.07 335.11C326.84 334.95 325.35 334.94 324.4 335.93C319.77 340.76 327.92 341.71 330.2 341.25C328.09 342.15 326.98 345.04 329.07 346.48C330.08 347.17 331.55 346.42 332.51 345.95C333.84 345.3 335.15 344.63 336.38 343.8C336.48 343.73 337.25 344.83 337.38 344.99C337.83 345.5 338.46 345.71 339.03 346.02C340.28 346.71 342.13 347.2 343.52 346.53C344.21 346.2 344.82 345.4 345.05 344.65C345.35 343.65 344.4 342.8 343.8 342.18C343.31 341.67 342.5 340.72 341.7 340.92C343.7 340.42 348.8 342.65 348.73 337.78C348.69 335.35 345.61 334.61 344.16 334.46H344.15Z" fill="white"/>
<path d="M707.386 374.726C706.337 374.615 705.389 375.117 704.363 375.217C704.396 374.024 704.184 373.12 702.935 372.864C702.032 372.685 700.983 372.763 700.091 373.009C699.31 373.221 698.697 373.723 698.262 374.425C697.972 374.905 697.771 375.574 697.994 376.11C697.514 376.176 696.834 375.753 696.354 375.619C695.774 375.463 695.183 375.318 694.581 375.24C693.599 375.106 692.417 375.106 691.658 375.898C687.978 379.746 694.458 380.504 696.276 380.136C694.603 380.85 693.711 383.148 695.373 384.297C696.176 384.854 697.347 384.252 698.105 383.873C699.165 383.36 700.213 382.813 701.184 382.155C701.262 382.099 701.875 382.98 701.976 383.103C702.333 383.516 702.835 383.672 703.281 383.929C704.274 384.475 705.746 384.865 706.85 384.341C707.397 384.074 707.887 383.438 708.066 382.847C708.311 382.055 707.553 381.374 707.073 380.872C706.683 380.46 706.036 379.712 705.4 379.88C706.984 379.478 711.055 381.252 710.999 377.381C710.966 375.451 708.512 374.86 707.363 374.738L707.386 374.726Z" fill="white"/>
<path d="M674.794 355.597C673.321 355.43 671.994 356.133 670.566 356.278C670.611 354.605 670.321 353.344 668.558 352.987C667.287 352.731 665.826 352.842 664.576 353.199C663.495 353.5 662.625 354.203 662.011 355.185C661.598 355.854 661.331 356.791 661.643 357.538C660.963 357.639 660.026 357.036 659.345 356.858C658.531 356.635 657.706 356.434 656.858 356.322C655.486 356.144 653.824 356.133 652.764 357.237C647.6 362.624 656.691 363.684 659.234 363.171C656.88 364.175 655.642 367.398 657.973 369.004C659.1 369.774 660.739 368.938 661.81 368.413C663.294 367.688 664.755 366.941 666.127 366.015C666.238 365.937 667.097 367.164 667.242 367.343C667.744 367.911 668.447 368.146 669.083 368.491C670.477 369.261 672.54 369.808 674.091 369.06C674.86 368.692 675.541 367.8 675.797 366.963C676.132 365.848 675.072 364.9 674.403 364.208C673.857 363.639 672.953 362.58 672.061 362.803C674.292 362.245 679.98 364.732 679.902 359.3C679.857 356.59 676.422 355.765 674.805 355.597H674.794Z" fill="white"/>
<path fill-rule="evenodd" clip-rule="evenodd" d="M387.545 336.392C388.135 335.938 388.982 336.048 389.437 336.639C392.039 340.021 394.41 343.784 396.335 347.65C396.667 348.317 396.396 349.127 395.729 349.459C395.062 349.791 394.252 349.519 393.92 348.852C392.075 345.146 389.798 341.532 387.299 338.284C386.845 337.694 386.955 336.847 387.545 336.392Z" fill="#5B8B0C"/>
<path fill-rule="evenodd" clip-rule="evenodd" d="M399.661 334C400.11 334 400.474 334.364 400.474 334.812V342.937C400.474 343.386 400.11 343.75 399.661 343.75C399.213 343.75 398.849 343.386 398.849 342.937V334.812C398.849 334.364 399.213 334 399.661 334Z" fill="#5B8B0C"/>
<path fill-rule="evenodd" clip-rule="evenodd" d="M420.127 339.01C420.762 339.399 420.96 340.23 420.57 340.865C419.085 343.283 417.721 346.009 416.628 348.751C416.352 349.443 415.567 349.78 414.875 349.504C414.183 349.228 413.846 348.443 414.122 347.752C415.271 344.871 416.703 342.007 418.272 339.453C418.662 338.818 419.493 338.62 420.127 339.01Z" fill="#5B8B0C"/>
<path fill-rule="evenodd" clip-rule="evenodd" d="M613.874 311.974C614.855 311.219 616.261 311.402 617.016 312.383C621.339 318.001 625.277 324.251 628.474 330.673C629.026 331.781 628.575 333.126 627.467 333.677C626.36 334.228 625.015 333.777 624.463 332.67C621.399 326.514 617.617 320.51 613.465 315.116C612.71 314.135 612.894 312.728 613.874 311.974Z" fill="#5B8B0C"/>
<path fill-rule="evenodd" clip-rule="evenodd" d="M633.999 308C634.745 308 635.349 308.604 635.349 309.35V322.845C635.349 323.591 634.745 324.195 633.999 324.195C633.254 324.195 632.65 323.591 632.65 322.845V309.35C632.65 308.604 633.254 308 633.999 308Z" fill="#5B8B0C"/>
<path fill-rule="evenodd" clip-rule="evenodd" d="M667.993 316.321C669.048 316.969 669.377 318.348 668.73 319.403C666.262 323.419 663.997 327.946 662.181 332.501C661.722 333.651 660.419 334.211 659.27 333.752C658.121 333.294 657.561 331.991 658.019 330.842C659.927 326.057 662.305 321.3 664.912 317.057C665.56 316.003 666.939 315.673 667.993 316.321Z" fill="#5B8B0C"/>
<path fill-rule="evenodd" clip-rule="evenodd" d="M108.526 352.392C109.117 351.938 109.963 352.048 110.418 352.639C113.021 356.021 115.391 359.784 117.316 363.65C117.648 364.317 117.377 365.127 116.71 365.459C116.043 365.791 115.233 365.519 114.901 364.852C113.056 361.146 110.779 357.532 108.28 354.284C107.826 353.694 107.936 352.847 108.526 352.392Z" fill="#5B8B0C"/>
<path fill-rule="evenodd" clip-rule="evenodd" d="M120.642 350C121.091 350 121.455 350.364 121.455 350.812V358.937C121.455 359.386 121.091 359.75 120.642 359.75C120.194 359.75 119.83 359.386 119.83 358.937V350.812C119.83 350.364 120.194 350 120.642 350Z" fill="#5B8B0C"/>
<path fill-rule="evenodd" clip-rule="evenodd" d="M141.108 355.01C141.743 355.399 141.941 356.23 141.551 356.865C140.066 359.283 138.703 362.009 137.609 364.751C137.333 365.443 136.548 365.78 135.856 365.504C135.165 365.228 134.827 364.443 135.103 363.752C136.252 360.871 137.684 358.007 139.253 355.453C139.643 354.818 140.474 354.62 141.108 355.01Z" fill="#5B8B0C"/>
<defs>
<clipPath id="clip0_0_1">
<rect width="219.93" height="150.18" fill="white" transform="translate(-38 139)"/>
</clipPath>
<clipPath id="clip1_0_1">
<rect width="258.33" height="195.26" fill="white" transform="matrix(-1 0 0 1 860.33 152)"/>
</clipPath>
</defs>
</svg>
