<svg width="64" height="64" viewBox="0 0 64 64" fill="none" xmlns="http://www.w3.org/2000/svg">
<path d="M31.9999 58.6668C17.2723 58.6668 5.33325 46.7276 5.33325 32.0002C5.33325 17.2726 17.2723 5.3335 31.9999 5.3335C46.7274 5.3335 58.6666 17.2726 58.6666 32.0002C58.6666 46.7276 46.7274 58.6668 31.9999 58.6668ZM31.9999 53.3335C43.7821 53.3335 53.3332 43.7823 53.3332 32.0002C53.3332 20.2181 43.7821 10.6668 31.9999 10.6668C20.2178 10.6668 10.6666 20.2181 10.6666 32.0002C10.6666 43.7823 20.2178 53.3335 31.9999 53.3335ZM18.6666 34.6668H23.9999C23.9999 39.0852 27.5815 42.6668 31.9999 42.6668C36.4183 42.6668 39.9999 39.0852 39.9999 34.6668H45.3332C45.3332 42.0306 39.3637 48.0002 31.9999 48.0002C24.6361 48.0002 18.6666 42.0306 18.6666 34.6668ZM21.3333 29.3335C19.1241 29.3335 17.3333 27.5426 17.3333 25.3335C17.3333 23.1243 19.1241 21.3335 21.3333 21.3335C23.5424 21.3335 25.3333 23.1243 25.3333 25.3335C25.3333 27.5426 23.5424 29.3335 21.3333 29.3335ZM42.6666 29.3335C40.4575 29.3335 38.6666 27.5426 38.6666 25.3335C38.6666 23.1243 40.4575 21.3335 42.6666 21.3335C44.8756 21.3335 46.6666 23.1243 46.6666 25.3335C46.6666 27.5426 44.8756 29.3335 42.6666 29.3335Z" fill="#75B125"/>
</svg>
