<svg width="64" height="64" viewBox="0 0 64 64" fill="none" xmlns="http://www.w3.org/2000/svg">
<path d="M8.90522 45.334C7.75255 43.3375 6.88738 41.254 6.29688 39.1311C8.89013 37.8079 10.6659 35.1116 10.6659 32.0007C10.6659 28.8922 8.89279 26.1975 6.30274 24.8733C7.49399 20.5775 9.75618 16.5769 12.9726 13.3069C15.4152 14.8913 18.6383 15.0811 21.3326 13.5255C24.0269 11.9699 25.474 9.08376 25.3232 6.17627C29.7635 5.02576 34.3592 5.06693 38.6749 6.18315C38.5267 9.08832 39.9736 11.9711 42.6659 13.5255C45.3603 15.081 48.5832 14.8913 51.0256 13.307C52.5688 14.8798 53.9405 16.6709 55.0933 18.6674C56.2459 20.6639 57.1112 22.7475 57.7016 24.8702C55.1083 26.1934 53.3325 28.8898 53.3325 32.0007C53.3325 35.1095 55.1056 37.8039 57.6957 39.1282C56.5045 43.4239 54.2424 47.4244 51.0259 50.6946C48.5832 49.1103 45.3603 48.9204 42.6659 50.4759C39.9715 52.0314 38.5245 54.9178 38.6752 57.8252C34.2352 58.9756 29.6395 58.9346 25.3235 57.8183C25.4718 54.913 24.0248 52.0303 21.3326 50.4759C18.6383 48.9204 15.4154 49.11 12.9729 50.6943C11.4298 49.1215 10.0579 47.3306 8.90522 45.334ZM23.9992 45.8572C26.9096 47.5375 28.9997 50.194 30.0008 53.2426C31.3296 53.369 32.6672 53.3708 33.9963 53.2468C34.9968 50.1967 37.0875 47.5383 39.9992 45.8572C42.9109 44.1759 46.2587 43.6948 49.4005 44.3532C50.1723 43.2642 50.8395 42.1047 51.3944 40.8908C49.2549 38.4996 47.9992 35.3612 47.9992 32.0007C47.9992 28.6402 49.2549 25.502 51.3944 23.1108C51.1168 22.5082 50.8101 21.9154 50.4744 21.3341C50.1387 20.7527 49.7787 20.1908 49.3955 19.6493C46.2552 20.3062 42.9096 19.8245 39.9992 18.1443C37.0888 16.464 34.9989 13.8073 33.9976 10.759C32.6691 10.6325 31.3312 10.6307 30.0024 10.7546C29.0016 13.8047 26.9109 16.4632 23.9992 18.1443C21.0875 19.8254 17.7399 20.3067 14.5981 19.6482C13.8263 20.7373 13.159 21.8966 12.6042 23.1105C14.7435 25.5018 15.9992 28.6402 15.9992 32.0007C15.9992 35.3612 14.7435 38.4994 12.6042 40.8906C12.8818 41.4932 13.1884 42.086 13.524 42.6674C13.8597 43.2487 14.2197 43.8106 14.603 44.3522C17.7434 43.6954 21.089 44.177 23.9992 45.8572ZM31.9992 40.0007C27.5811 40.0007 23.9992 36.4191 23.9992 32.0007C23.9992 27.5826 27.5811 24.0007 31.9992 24.0007C36.4176 24.0007 39.9992 27.5826 39.9992 32.0007C39.9992 36.4191 36.4176 40.0007 31.9992 40.0007ZM31.9992 34.6674C33.472 34.6674 34.6659 33.4735 34.6659 32.0007C34.6659 30.5279 33.472 29.334 31.9992 29.334C30.5264 29.334 29.3325 30.5279 29.3325 32.0007C29.3325 33.4735 30.5264 34.6674 31.9992 34.6674Z" fill="#75B125"/>
</svg>
