<svg width="180" height="180" viewBox="0 0 180 180" fill="none" xmlns="http://www.w3.org/2000/svg">
<rect width="180" height="180" rx="90" fill="#75B125"/>
<path d="M131.62 73.9552C139.468 73.9552 145.83 66.8018 145.83 57.9776C145.83 49.1534 139.468 42 131.62 42C123.772 42 117.409 49.1534 117.409 57.9776C117.409 66.8018 123.772 73.9552 131.62 73.9552Z" fill="white"/>
<path d="M47.2104 73.9552C55.0585 73.9552 61.4207 66.8018 61.4207 57.9776C61.4207 49.1534 55.0585 42 47.2104 42C39.3622 42 33 49.1534 33 57.9776C33 66.8018 39.3622 73.9552 47.2104 73.9552Z" fill="white"/>
<path d="M89.4121 135.596C64.4366 135.596 50.7169 117.378 46.9482 107.744C45.4319 103.864 47.3441 99.4878 51.2242 97.9714C55.1043 96.455 59.4806 98.3672 60.9969 102.247C62.9816 107.326 71.9572 120.505 89.4121 120.505C106.867 120.505 115.843 107.326 117.827 102.242C119.344 98.3616 123.72 96.4495 127.6 97.9658C131.48 99.4822 133.392 103.858 131.876 107.739C128.107 117.372 114.382 135.591 89.4121 135.591V135.596Z" fill="white"/>
</svg>
