<svg width="64" height="64" viewBox="0 0 64 64" fill="none" xmlns="http://www.w3.org/2000/svg">
<path d="M31.9999 58.6667C17.2723 58.6667 5.33325 46.7275 5.33325 32C5.33325 17.2724 17.2723 5.33333 31.9999 5.33333C46.7274 5.33333 58.6666 17.2724 58.6666 32C58.6666 46.7275 46.7274 58.6667 31.9999 58.6667ZM31.9999 53.3333C43.7821 53.3333 53.3332 43.7821 53.3332 32C53.3332 20.2179 43.7821 10.6667 31.9999 10.6667C20.2178 10.6667 10.6666 20.2179 10.6666 32C10.6666 43.7821 20.2178 53.3333 31.9999 53.3333ZM18.6666 34.6667H23.9999C23.9999 39.0851 27.5815 42.6667 31.9999 42.6667C36.4183 42.6667 39.9999 39.0851 39.9999 34.6667H45.3332C45.3332 42.0304 39.3637 48 31.9999 48C24.6361 48 18.6666 42.0304 18.6666 34.6667ZM21.3333 29.3333C19.1241 29.3333 17.3333 27.5424 17.3333 25.3333C17.3333 23.1242 19.1241 21.3333 21.3333 21.3333C23.5424 21.3333 25.3333 23.1242 25.3333 25.3333C25.3333 27.5424 23.5424 29.3333 21.3333 29.3333ZM42.6666 29.3333C40.4575 29.3333 38.6666 27.5424 38.6666 25.3333C38.6666 23.1242 40.4575 21.3333 42.6666 21.3333C44.8756 21.3333 46.6666 23.1242 46.6666 25.3333C46.6666 27.5424 44.8756 29.3333 42.6666 29.3333Z" fill="white"/>
</svg>
