<svg width="64" height="64" viewBox="0 0 64 64" fill="none" xmlns="http://www.w3.org/2000/svg">
<path d="M9.32558 21.5058L12.7561 50.6656H51.2709L54.7013 21.5058L44.0085 28.6344L32.0136 11.8414L20.0185 28.6344L9.32558 21.5058ZM7.48206 13.8669L18.6801 21.3323L29.8435 5.70357C30.6995 4.50515 32.3651 4.22757 33.5635 5.0836C33.8029 5.25464 34.0123 5.46413 34.1835 5.70357L45.3469 21.3323L56.5448 13.8669C57.7704 13.05 59.4259 13.3811 60.2429 14.6065C60.5941 15.1335 60.7464 15.7683 60.6725 16.3973L56.2907 53.644C56.1325 54.9869 54.9944 55.9989 53.6421 55.9989H10.3848C9.03259 55.9989 7.89441 54.9869 7.73641 53.644L3.35446 16.3973C3.18238 14.9346 4.22862 13.6094 5.69129 13.4373C6.3203 13.3633 6.9551 13.5156 7.48206 13.8669ZM32.0136 39.9989C29.068 39.9989 26.6803 37.6112 26.6803 34.6656C26.6803 31.72 29.068 29.3323 32.0136 29.3323C34.9589 29.3323 37.3469 31.72 37.3469 34.6656C37.3469 37.6112 34.9589 39.9989 32.0136 39.9989Z" fill="white"/>
</svg>
