<svg width="134" height="134" viewBox="0 0 134 134" fill="none" xmlns="http://www.w3.org/2000/svg">
<path d="M15.6656 29.0335L39.1115 44.6642L62.4848 11.9415C64.277 9.43233 67.7644 8.85116 70.2735 10.6434C70.7749 11.0015 71.2132 11.4402 71.5716 11.9415L94.9452 44.6642L118.391 29.0335C120.957 27.3231 124.423 28.0163 126.134 30.5821C126.869 31.6854 127.188 33.0145 127.033 34.3315L117.859 112.316C117.528 115.128 115.145 117.248 112.313 117.248H21.7432C18.912 117.248 16.5289 115.128 16.1981 112.316L7.0234 34.3315C6.66311 31.269 8.85367 28.4943 11.9161 28.134C13.2331 27.9791 14.5622 28.298 15.6656 29.0335Z" fill="#76B226"/>
<path d="M15.6656 29.0335L39.1115 44.6642L62.4848 11.9415C64.277 9.43233 67.7644 8.85116 70.2735 10.6434C70.7749 11.0015 71.2132 11.4402 71.5716 11.9415L94.9452 44.6642L118.391 29.0335C120.957 27.3231 124.423 28.0163 126.134 30.5821C126.869 31.6854 127.188 33.0145 127.033 34.3315L117.859 112.316C117.528 115.128 115.145 117.248 112.313 117.248H21.7432C18.912 117.248 16.5289 115.128 16.1981 112.316L7.0234 34.3315C6.66311 31.269 8.85367 28.4943 11.9161 28.134C13.2331 27.9791 14.5622 28.298 15.6656 29.0335Z" fill="url(#paint0_linear_160_85)" fill-opacity="0.1"/>
<path d="M50.5049 91.3711C44.6045 91.3711 40.374 88.124 40.2627 83.4297H45.9033C45.9961 85.4336 47.9443 86.751 50.542 86.7695C53.2139 86.751 55.125 85.2666 55.1064 83.0957C55.125 80.9062 53.1768 79.3662 50.0225 79.3477H47.5361V75.2285H50.0225C52.6758 75.2285 54.5312 73.7812 54.5127 71.666C54.5312 69.6064 52.9541 68.1963 50.5791 68.2148C48.2041 68.1963 46.2559 69.5322 46.1631 71.5918H40.8193C40.9121 66.9717 45.0684 63.7617 50.5791 63.7617C56.1826 63.7617 59.9121 67.083 59.8936 71.332C59.9121 74.3379 57.8154 76.4717 54.8096 77.0098V77.2324C58.7617 77.7148 60.9326 80.1084 60.8955 83.4668C60.9326 88.0684 56.5723 91.3711 50.5049 91.3711ZM74.7373 62.0547C79.8955 62.0176 83.6436 64.9678 83.6436 69.2168C83.6436 73.4287 79.8955 76.416 74.7373 76.3789C69.5977 76.416 65.8496 73.4287 65.8682 69.2168C65.8496 64.9678 69.5977 62.0176 74.7373 62.0547ZM63.79 78.457C69.7832 78.4385 78.2627 78.3271 85.4619 77.2324L85.7588 80.7207C82.9756 81.2773 80.1182 81.6299 77.2979 81.8525V93.4121H72.585V82.1309C69.6162 82.2607 66.8145 82.2793 64.3838 82.3164L63.79 78.457ZM70.4326 69.2168C70.4141 71.332 72.2139 72.5566 74.7373 72.5195C77.335 72.5566 79.1533 71.332 79.1533 69.2168C79.1533 67.0645 77.335 65.8213 74.7373 65.8398C72.2139 65.8213 70.4141 67.0645 70.4326 69.2168ZM87.5029 94.4141V60.6816H92.1787V94.4141H87.5029Z" fill="white"/>
<defs>
<linearGradient id="paint0_linear_160_85" x1="67.0279" y1="9.60303" x2="67.0279" y2="117.248" gradientUnits="userSpaceOnUse">
<stop stop-color="white"/>
<stop offset="1" stop-color="white" stop-opacity="0"/>
</linearGradient>
</defs>
</svg>
