<svg width="134" height="134" viewBox="0 0 134 134" fill="none" xmlns="http://www.w3.org/2000/svg">
<path d="M15.6656 29.0335L39.1115 44.6642L62.4848 11.9415C64.277 9.43233 67.7644 8.85116 70.2735 10.6434C70.7749 11.0015 71.2132 11.4402 71.5716 11.9415L94.9452 44.6642L118.391 29.0335C120.957 27.3231 124.423 28.0163 126.134 30.5821C126.869 31.6854 127.188 33.0145 127.033 34.3315L117.859 112.316C117.528 115.128 115.145 117.248 112.313 117.248H21.7432C18.912 117.248 16.5289 115.128 16.1981 112.316L7.0234 34.3315C6.66311 31.269 8.85367 28.4943 11.9161 28.134C13.2331 27.9791 14.5622 28.298 15.6656 29.0335Z" fill="#5CCCE3"/>
<path d="M15.6656 29.0335L39.1115 44.6642L62.4848 11.9415C64.277 9.43233 67.7644 8.85116 70.2735 10.6434C70.7749 11.0015 71.2132 11.4402 71.5716 11.9415L94.9452 44.6642L118.391 29.0335C120.957 27.3231 124.423 28.0163 126.134 30.5821C126.869 31.6854 127.188 33.0145 127.033 34.3315L117.859 112.316C117.528 115.128 115.145 117.248 112.313 117.248H21.7432C18.912 117.248 16.5289 115.128 16.1981 112.316L7.0234 34.3315C6.66311 31.269 8.85367 28.4943 11.9161 28.134C13.2331 27.9791 14.5622 28.298 15.6656 29.0335Z" fill="url(#paint0_linear_160_75)" fill-opacity="0.1"/>
<path d="M41.5977 91L41.5605 86.9551L51.209 78.0859C53.7139 75.6924 55.0684 74.208 55.0684 72.0742C55.0684 69.6807 53.2686 68.1963 50.8008 68.2148C48.2773 68.1963 46.626 69.792 46.6445 72.3711H41.3379C41.3193 67.1201 45.2158 63.7617 50.875 63.7617C56.627 63.7617 60.4492 67.0459 60.4492 71.7031C60.4492 74.7646 58.9648 77.2695 53.4355 82.2793L49.3535 86.25V86.3984H60.8203V91H41.5977ZM74.6992 62.0547C79.8574 62.0176 83.6055 64.9678 83.6055 69.2168C83.6055 73.4287 79.8574 76.416 74.6992 76.3789C69.5596 76.416 65.8115 73.4287 65.8301 69.2168C65.8115 64.9678 69.5596 62.0176 74.6992 62.0547ZM63.752 78.457C69.7451 78.4385 78.2246 78.3271 85.4238 77.2324L85.7207 80.7207C82.9375 81.2773 80.0801 81.6299 77.2598 81.8525V93.4121H72.5469V82.1309C69.5781 82.2607 66.7764 82.2793 64.3457 82.3164L63.752 78.457ZM70.3945 69.2168C70.376 71.332 72.1758 72.5566 74.6992 72.5195C77.2969 72.5566 79.1152 71.332 79.1152 69.2168C79.1152 67.0645 77.2969 65.8213 74.6992 65.8398C72.1758 65.8213 70.376 67.0645 70.3945 69.2168ZM87.4648 94.4141V60.6816H92.1406V94.4141H87.4648Z" fill="black"/>
<defs>
<linearGradient id="paint0_linear_160_75" x1="67.0279" y1="9.60303" x2="67.0279" y2="117.248" gradientUnits="userSpaceOnUse">
<stop stop-color="white"/>
<stop offset="1" stop-color="white" stop-opacity="0"/>
</linearGradient>
</defs>
</svg>
