<svg width="134" height="134" viewBox="0 0 134 134" fill="none" xmlns="http://www.w3.org/2000/svg">
<path d="M15.6656 29.0335L39.1115 44.6642L62.4848 11.9415C64.277 9.43233 67.7644 8.85116 70.2735 10.6434C70.7749 11.0015 71.2132 11.4402 71.5716 11.9415L94.9452 44.6642L118.391 29.0335C120.957 27.3231 124.423 28.0163 126.134 30.5821C126.869 31.6854 127.188 33.0145 127.033 34.3315L117.859 112.316C117.528 115.128 115.145 117.248 112.313 117.248H21.7432C18.912 117.248 16.5289 115.128 16.1981 112.316L7.0234 34.3315C6.66311 31.269 8.85367 28.4943 11.9161 28.134C13.2331 27.9791 14.5622 28.298 15.6656 29.0335Z" fill="#218CA3"/>
<path d="M15.6656 29.0335L39.1115 44.6642L62.4848 11.9415C64.277 9.43233 67.7644 8.85116 70.2735 10.6434C70.7749 11.0015 71.2132 11.4402 71.5716 11.9415L94.9452 44.6642L118.391 29.0335C120.957 27.3231 124.423 28.0163 126.134 30.5821C126.869 31.6854 127.188 33.0145 127.033 34.3315L117.859 112.316C117.528 115.128 115.145 117.248 112.313 117.248H21.7432C18.912 117.248 16.5289 115.128 16.1981 112.316L7.0234 34.3315C6.66311 31.269 8.85367 28.4943 11.9161 28.134C13.2331 27.9791 14.5622 28.298 15.6656 29.0335Z" fill="url(#paint0_linear_160_95)" fill-opacity="0.1"/>
<defs>
<linearGradient id="paint0_linear_160_95" x1="67.0279" y1="9.60303" x2="67.0279" y2="117.248" gradientUnits="userSpaceOnUse">
<stop stop-color="white"/>
<stop offset="1" stop-color="white" stop-opacity="0"/>
</linearGradient>
</defs>
</svg>
