<svg width="134" height="134" viewBox="0 0 134 134" fill="none" xmlns="http://www.w3.org/2000/svg">
<path d="M15.6656 29.0335L39.1115 44.6642L62.4848 11.9415C64.277 9.43233 67.7644 8.85116 70.2735 10.6434C70.7749 11.0015 71.2132 11.4402 71.5716 11.9415L94.9452 44.6642L118.391 29.0335C120.957 27.3231 124.423 28.0163 126.134 30.5821C126.869 31.6854 127.188 33.0145 127.033 34.3315L117.859 112.316C117.528 115.128 115.145 117.248 112.313 117.248H21.7432C18.912 117.248 16.5289 115.128 16.1981 112.316L7.0234 34.3315C6.66311 31.269 8.85367 28.4943 11.9161 28.134C13.2331 27.9791 14.5622 28.298 15.6656 29.0335Z" fill="#FEC240"/>
<path d="M15.6656 29.0335L39.1115 44.6642L62.4848 11.9415C64.277 9.43233 67.7644 8.85116 70.2735 10.6434C70.7749 11.0015 71.2132 11.4402 71.5716 11.9415L94.9452 44.6642L118.391 29.0335C120.957 27.3231 124.423 28.0163 126.134 30.5821C126.869 31.6854 127.188 33.0145 127.033 34.3315L117.859 112.316C117.528 115.128 115.145 117.248 112.313 117.248H21.7432C18.912 117.248 16.5289 115.128 16.1981 112.316L7.0234 34.3315C6.66311 31.269 8.85367 28.4943 11.9161 28.134C13.2331 27.9791 14.5622 28.298 15.6656 29.0335Z" fill="url(#paint0_linear_160_66)" fill-opacity="0.1"/>
<path d="M55.8662 64.1328V91H50.2627V69.4395H50.1143L43.9541 73.2988V68.3633L50.5967 64.1328H55.8662ZM72.0088 62.0547C77.167 62.0176 80.915 64.9678 80.915 69.2168C80.915 73.4287 77.167 76.416 72.0088 76.3789C66.8691 76.416 63.1211 73.4287 63.1396 69.2168C63.1211 64.9678 66.8691 62.0176 72.0088 62.0547ZM61.0615 78.457C67.0547 78.4385 75.5342 78.3271 82.7334 77.2324L83.0303 80.7207C80.2471 81.2773 77.3896 81.6299 74.5693 81.8525V93.4121H69.8564V82.1309C66.8877 82.2607 64.0859 82.2793 61.6553 82.3164L61.0615 78.457ZM67.7041 69.2168C67.6855 71.332 69.4854 72.5566 72.0088 72.5195C74.6064 72.5566 76.4248 71.332 76.4248 69.2168C76.4248 67.0645 74.6064 65.8213 72.0088 65.8398C69.4854 65.8213 67.6855 67.0645 67.7041 69.2168ZM84.7744 94.4141V60.6816H89.4502V94.4141H84.7744Z" fill="black"/>
<defs>
<linearGradient id="paint0_linear_160_66" x1="67.0279" y1="9.60303" x2="67.0279" y2="117.248" gradientUnits="userSpaceOnUse">
<stop stop-color="white"/>
<stop offset="1" stop-color="white" stop-opacity="0"/>
</linearGradient>
</defs>
</svg>
