<svg width="641" height="432" viewBox="0 0 641 432" fill="none" xmlns="http://www.w3.org/2000/svg">
<g clip-path="url(#clip0_23_20)">
<path d="M523.765 94.9517C550.058 94.9517 571.373 73.6961 571.373 47.4759C571.373 21.2557 550.058 0 523.765 0C497.472 0 476.157 21.2557 476.157 47.4759C476.157 73.6961 497.472 94.9517 523.765 94.9517Z" fill="#AC70AF"/>
<path d="M284.608 94.9517C310.901 94.9517 332.216 73.6961 332.216 47.4759C332.216 21.2557 310.901 0 284.608 0C258.315 0 237 21.2557 237 47.4759C237 73.6961 258.315 94.9517 284.608 94.9517Z" fill="#FEC240"/>
<path d="M536.161 203.878C535.067 203.878 534.211 203.878 533.546 203.878C447.154 203.547 376.928 133.554 376.928 47.5289C376.928 30.5509 390.764 16.7888 407.833 16.7888C424.903 16.7888 438.738 30.5509 438.738 47.5289C438.738 99.8344 481.53 142.398 534.116 142.398C534.592 142.398 535.067 142.398 535.495 142.398C535.495 142.398 567.208 143.012 588.699 122.535C601.014 110.806 620.603 111.185 632.394 123.481C644.186 135.729 643.805 155.214 631.443 166.942C595.498 201.182 549.711 203.878 536.113 203.878H536.161Z" fill="#4DC6E0"/>
<path d="M573.044 239.3H481.387V330.702H573.044V239.3Z" fill="#4DC6E0"/>
<path d="M281.253 203.831C264.184 203.831 250.348 190.068 250.348 173.09C250.348 156.112 264.184 142.35 281.253 142.35C333.839 142.35 376.631 99.7871 376.631 47.4816C376.631 30.5036 390.467 16.7415 407.536 16.7415C424.605 16.7415 438.441 30.5036 438.441 47.4816C438.441 133.696 367.93 203.831 281.253 203.831Z" fill="#8DC642"/>
</g>
<path d="M322.372 334.44V413.352C322.372 417.48 319.204 419.304 315.172 419.304C311.044 419.304 307.972 417.48 307.972 413.352V334.44C307.972 330.984 311.14 328.968 315.172 328.968C319.108 328.968 322.372 330.984 322.372 334.44ZM273.22 397.704C256.996 397.704 248.644 385.896 248.644 366.12C248.644 346.152 256.996 334.344 273.22 334.344C289.444 334.344 297.796 346.152 297.796 366.12C297.796 385.896 289.444 397.704 273.22 397.704ZM273.22 385.512C279.844 385.512 283.492 380.136 283.492 366.12C283.492 352.008 279.844 346.536 273.22 346.536C266.692 346.536 263.044 352.008 263.044 366.12C263.044 380.136 266.692 385.512 273.22 385.512ZM414.022 382.344H338.566C335.494 382.344 334.15 379.176 334.15 376.296C334.15 373.608 335.494 370.344 338.566 370.344H414.022C417.094 370.344 418.438 373.608 418.438 376.296C418.438 379.176 417.094 382.344 414.022 382.344ZM407.494 398.76V409.128C407.494 418.44 405.094 420.648 395.398 420.648H357.574C347.878 420.648 345.478 418.44 345.478 409.128V398.76C345.478 389.448 347.878 387.24 357.574 387.24H395.398C405.094 387.24 407.494 389.448 407.494 398.76ZM360.07 401.352V406.536C360.07 408.648 360.358 408.936 363.046 408.936H389.926C392.614 408.936 392.902 408.648 392.902 406.536V401.352C392.902 399.144 392.614 398.856 389.926 398.856H363.046C360.358 398.856 360.07 399.144 360.07 401.352ZM344.902 348.072C344.902 337.704 354.022 329.832 376.39 329.832C398.854 329.832 407.782 337.704 407.782 348.072C407.782 358.44 398.854 366.312 376.39 366.312C354.022 366.312 344.902 358.44 344.902 348.072ZM392.902 348.072C392.902 344.328 388.486 341.448 376.39 341.448C364.39 341.448 359.878 344.328 359.878 348.072C359.878 351.72 364.39 354.696 376.39 354.696C388.486 354.696 392.902 351.72 392.902 348.072Z" fill="#333333"/>
<path d="M29.8992 257.676V281.951H25.1492V257.676H29.8992ZM2.1471 268.331C2.13398 263.384 6.20166 259.815 11.3847 259.815C16.5677 259.815 20.6091 263.384 20.6091 268.331C20.6091 273.356 16.5677 276.899 11.3847 276.899C6.20166 276.899 2.13398 273.356 2.1471 268.331ZM6.77901 268.331C6.75276 271.152 8.74724 272.779 11.3847 272.779C13.9434 272.779 15.9378 271.152 15.9378 268.331C15.9378 265.588 13.9434 263.935 11.3847 263.935C8.74724 263.935 6.75276 265.588 6.77901 268.331ZM7.2645 290.834V279.497H12.0539V287.016H30.7914V290.834H7.2645ZM49.685 278.671C57.0593 278.684 61.7175 281.019 61.7437 285.061C61.7175 289.05 57.0593 291.425 49.685 291.412C42.3632 291.425 37.6394 289.05 37.6394 285.061C37.6394 281.019 42.3632 278.684 49.685 278.671ZM34.5428 276.545V272.727H46.0372V266.796H50.7216V272.727H65.2078V276.545H34.5428ZM37.9937 262.872V259.159H61.5732V261.927C61.5732 264.591 61.5732 267.491 60.6022 270.955L55.9571 270.509C56.7182 267.452 56.81 265.169 56.8232 262.872H37.9937ZM42.3894 285.061C42.3632 286.898 45.04 287.803 49.685 287.816C54.3301 287.803 57.0331 286.898 57.0462 285.061C57.0331 283.198 54.3301 282.2 49.685 282.2C45.04 282.2 42.3632 283.198 42.3894 285.061ZM77.3832 259.644C82.5793 259.657 86.6076 263.082 86.6339 267.924C86.6076 272.005 83.7734 275.062 79.7844 275.941V280.573C82.435 280.429 85.0986 280.219 87.5917 279.878L87.9198 283.381C80.8866 284.706 73.2761 284.706 67.542 284.628L66.9122 280.809C69.3397 280.796 72.1346 280.796 75.0607 280.731V275.968C70.9274 275.128 68.08 272.057 68.1062 267.924C68.08 263.082 72.0427 259.657 77.3832 259.644ZM72.725 267.924C72.7119 270.588 74.7064 272.202 77.3832 272.175C79.9812 272.202 81.9626 270.588 81.9757 267.924C81.9626 265.234 79.9812 263.673 77.3832 263.66C74.7064 263.673 72.7119 265.234 72.725 267.924ZM89.3894 291.425V257.624H94.1394V270.89H98.7319V274.865H94.1394V291.425H89.3894ZM131.01 276.519V280.39H117.809V291.451H113.125V280.39H100.121V276.519H131.01ZM103.218 266.428C103.205 261.744 108.231 258.765 115.474 258.765C122.73 258.765 127.795 261.744 127.795 266.428C127.795 271.034 122.73 273.96 115.474 273.96C108.231 273.96 103.205 271.034 103.218 266.428ZM108.099 266.428C108.073 268.856 110.947 270.22 115.474 270.22C120.04 270.22 122.9 268.856 122.9 266.428C122.9 263.948 120.04 262.557 115.474 262.544C110.947 262.557 108.073 263.948 108.099 266.428ZM154.186 265.287C154.16 271.336 156.745 277.437 162.164 280.061L159.304 283.827C155.695 282.043 153.242 278.71 151.838 274.642C150.368 279.012 147.757 282.581 143.925 284.483L141.026 280.639C146.733 278.015 149.436 271.559 149.45 265.287V260.235H154.186V265.287ZM163.66 291.425V257.624H168.397V270.653H173.383V274.655H168.397V291.425H163.66ZM205.412 273.658V277.437H174.602V273.658H181.53V269.59C179.077 268.501 177.673 266.809 177.686 264.644C177.673 260.576 182.475 258.135 189.981 258.122C197.46 258.135 202.249 260.576 202.262 264.644C202.249 266.848 200.819 268.541 198.3 269.63V273.658H205.412ZM178.119 285.271C178.119 281.36 182.554 279.182 189.941 279.195C197.25 279.182 201.685 281.36 201.711 285.271C201.685 289.233 197.25 291.385 189.941 291.372C182.554 291.385 178.119 289.233 178.119 285.271ZM182.606 264.644C182.58 266.52 185.217 267.452 189.981 267.452C194.704 267.452 197.381 266.52 197.381 264.644C197.381 262.754 194.704 261.77 189.981 261.77C185.217 261.77 182.58 262.754 182.606 264.644ZM182.947 285.271C182.921 286.977 185.27 287.856 189.941 287.843C194.534 287.856 196.948 286.977 196.961 285.271C196.948 283.578 194.534 282.791 189.941 282.765C185.27 282.791 182.921 283.578 182.947 285.271ZM186.32 273.658H193.589V270.811C192.474 270.955 191.267 271.021 189.981 271.021C188.668 271.021 187.448 270.955 186.32 270.811V273.658ZM219.909 266.835C219.883 271.992 222.626 277.936 228.176 280.494L225.539 284.208C221.773 282.476 219.096 279.038 217.6 274.983C216.078 279.458 213.296 283.237 209.412 285.074L206.657 281.334C212.286 278.71 215.12 272.425 215.146 266.835V264.762H207.995V260.891H226.706V264.762H219.909V266.835ZM229.344 291.425V257.624H234.081V270.535H239.067V274.485H234.081V291.425H229.344ZM279.905 272.792V276.663H249.044V272.792H279.905ZM252.744 291.005V279.104H276.258V282.883H257.441V287.213H276.546V291.005H252.744ZM252.849 270.43V258.477H276.14V262.347H257.533V266.664H276.481V270.43H252.849ZM310.254 257.624V291.425H305.465V257.624H310.254ZM281.99 281.859C290.703 277.726 294.548 272.398 295.309 264.893H283.801V261.18H300.137C300.124 271.414 296.529 279.93 284.457 285.625L281.99 281.859ZM354.294 276.61V280.324H341.632V284.483H336.948V280.324H323.485V276.61H354.294ZM324.955 264.014V260.471H336.488V257.453H341.238V260.471H352.68V264.014H324.955ZM327.067 290.834V282.397H331.791V287.095H350.935V290.834H327.067ZM327.513 270.076C327.487 266.717 331.647 264.945 338.863 264.959C346.08 264.945 350.227 266.717 350.227 270.076C350.227 273.448 346.08 275.298 338.863 275.298C331.647 275.298 327.487 273.448 327.513 270.076ZM332.342 270.076C332.329 271.375 334.336 271.913 338.863 271.926C343.351 271.913 345.385 271.375 345.385 270.076C345.385 268.79 343.351 268.239 338.863 268.239C334.336 268.239 332.329 268.79 332.342 270.076ZM372.545 259.959V270.785H362.323V274.642C366.968 274.603 370.144 274.406 373.752 273.789L374.277 277.595C369.947 278.356 366.194 278.448 360.185 278.448H357.586V267.242H367.782V263.738H357.56V259.959H372.545ZM362.126 290.782V280.691H366.837V286.924H385.64V290.782H362.126ZM374.513 274.183V270.391H380.064V266.559H374.513V262.794H380.064V257.676H384.787V282.607H380.064V274.183H374.513ZM397.068 259.5C401.595 259.474 404.875 262.689 404.875 267.32C404.875 271.913 401.595 275.154 397.068 275.154C392.528 275.154 389.3 271.913 389.313 267.32C389.3 262.689 392.528 259.474 397.068 259.5ZM393.538 267.32C393.525 269.827 394.981 271.257 397.068 271.257C399.115 271.257 400.571 269.827 400.584 267.32C400.571 264.735 399.115 263.305 397.068 263.305C394.981 263.305 393.525 264.735 393.538 267.32ZM395.1 291.044V277.372H399.784V280.455H413.496V277.372H418.18V291.044H395.1ZM399.784 287.252H413.496V284.195H399.784V287.252ZM406.463 275.784V258.267H410.858V264.696H413.693V257.676H418.18V276.02H413.693V268.554H410.858V275.784H406.463Z" fill="black"/>
<path d="M529.961 393.6C529.261 393.6 528.661 393.35 528.161 392.85C527.661 392.35 527.411 391.75 527.411 391.05C527.411 390.317 527.661 389.7 528.161 389.2C528.661 388.7 529.261 388.45 529.961 388.45H540.511C540.278 387.983 540.044 387.517 539.811 387.05C539.611 386.583 539.428 386.167 539.261 385.8C538.928 385.033 538.861 384.25 539.061 383.45C539.261 382.65 539.778 382.067 540.611 381.7H533.011C532.344 381.7 531.761 381.467 531.261 381C530.794 380.5 530.561 379.917 530.561 379.25C530.561 378.583 530.794 378.017 531.261 377.55C531.761 377.05 532.344 376.8 533.011 376.8H547.761V374.25C547.761 373.283 548.078 372.5 548.711 371.9C549.378 371.3 550.161 371 551.061 371C551.961 371 552.728 371.3 553.361 371.9C554.028 372.5 554.361 373.283 554.361 374.25V376.8H568.961C569.628 376.8 570.194 377.05 570.661 377.55C571.161 378.017 571.411 378.583 571.411 379.25C571.411 379.917 571.161 380.5 570.661 381C570.194 381.467 569.628 381.7 568.961 381.7H561.811C562.578 382.1 563.044 382.683 563.211 383.45C563.378 384.217 563.294 384.967 562.961 385.7C562.794 386.067 562.594 386.5 562.361 387C562.128 387.467 561.894 387.95 561.661 388.45H572.011C572.744 388.45 573.361 388.7 573.861 389.2C574.361 389.7 574.611 390.317 574.611 391.05C574.611 391.75 574.361 392.35 573.861 392.85C573.361 393.35 572.744 393.6 572.011 393.6H529.961ZM546.911 417.8C544.178 417.8 542.028 417.517 540.461 416.95C538.928 416.417 537.844 415.483 537.211 414.15C536.611 412.85 536.311 411.067 536.311 408.8V405.15C536.311 402.85 536.611 401.05 537.211 399.75C537.844 398.45 538.928 397.533 540.461 397C542.028 396.433 544.178 396.15 546.911 396.15H555.261C558.028 396.15 560.161 396.433 561.661 397C563.194 397.533 564.261 398.45 564.861 399.75C565.494 401.05 565.811 402.85 565.811 405.15V408.8C565.811 411.067 565.494 412.85 564.861 414.15C564.261 415.483 563.194 416.417 561.661 416.95C560.161 417.517 558.028 417.8 555.261 417.8H546.911ZM547.011 388.45H555.161C555.494 387.65 555.844 386.767 556.211 385.8C556.578 384.833 556.911 383.933 557.211 383.1C557.444 382.533 557.828 382.067 558.361 381.7H543.711C544.311 382.033 544.728 382.517 544.961 383.15C545.261 383.917 545.594 384.8 545.961 385.8C546.361 386.8 546.711 387.683 547.011 388.45ZM546.861 412.8H555.261C556.928 412.8 558.044 412.583 558.611 412.15C559.178 411.683 559.478 410.733 559.511 409.3H542.661C542.694 410.733 542.994 411.683 543.561 412.15C544.128 412.583 545.228 412.8 546.861 412.8ZM542.661 404.55H559.511C559.478 403.117 559.161 402.183 558.561 401.75C557.994 401.317 556.894 401.1 555.261 401.1H546.861C545.228 401.1 544.128 401.317 543.561 401.75C543.028 402.183 542.728 403.117 542.661 404.55Z" fill="#4DC6E0"/>
<path d="M505.761 417.2C504.928 417.2 504.194 416.917 503.561 416.35C502.961 415.783 502.661 415.033 502.661 414.1V408.1C499.528 408.4 496.278 408.717 492.911 409.05C489.578 409.383 486.394 409.683 483.361 409.95C480.328 410.217 477.661 410.45 475.361 410.65C474.461 410.717 473.694 410.5 473.061 410C472.428 409.467 472.078 408.783 472.011 407.95C471.944 407.083 472.178 406.35 472.711 405.75C473.244 405.15 473.978 404.817 474.911 404.75C475.878 404.683 476.894 404.617 477.961 404.55C479.061 404.45 480.228 404.35 481.461 404.25V378.05H475.011C474.278 378.05 473.644 377.783 473.111 377.25C472.578 376.717 472.311 376.083 472.311 375.35C472.311 374.617 472.578 374 473.111 373.5C473.644 372.967 474.278 372.7 475.011 372.7H514.961C515.728 372.7 516.361 372.967 516.861 373.5C517.394 374 517.661 374.617 517.661 375.35C517.661 376.083 517.394 376.717 516.861 377.25C516.361 377.783 515.728 378.05 514.961 378.05H508.861V401.85C510.128 401.717 511.311 401.6 512.411 401.5C513.544 401.367 514.578 401.25 515.511 401.15C516.411 401.05 517.144 401.233 517.711 401.7C518.278 402.133 518.594 402.75 518.661 403.55C518.728 404.417 518.494 405.117 517.961 405.65C517.461 406.183 516.778 406.5 515.911 406.6C514.978 406.733 513.911 406.867 512.711 407C511.511 407.133 510.228 407.283 508.861 407.45V414.1C508.861 415.033 508.561 415.783 507.961 416.35C507.361 416.917 506.628 417.2 505.761 417.2ZM487.661 403.75C490.128 403.55 492.628 403.35 495.161 403.15C497.728 402.917 500.228 402.683 502.661 402.45V398H487.661V403.75ZM487.661 382.85H502.661V378.05H487.661V382.85ZM487.661 392.8H502.661V388.05H487.661V392.8Z" fill="#8DC642"/>
<defs>
<clipPath id="clip0_23_20">
<rect width="404" height="331" fill="white" transform="translate(237)"/>
</clipPath>
</defs>
</svg>
