<svg width="92" height="92" viewBox="0 0 92 92" fill="none" xmlns="http://www.w3.org/2000/svg">
<path d="M88.7107 45.8554C88.7107 69.522 69.522 88.7107 45.8554 88.7107C22.1888 88.7107 3 69.522 3 45.8554C3 22.1888 22.1888 3 45.8554 3C69.522 3 88.7107 22.1888 88.7107 45.8554Z" stroke="#FF0000" stroke-width="5"/>
<path d="M47.4624 12.2327C47.4624 12.9147 46.9118 13.4653 46.2297 13.4653C45.5477 13.4653 44.9971 12.9147 44.9971 12.2327C44.9971 11.5506 45.5477 11 46.2297 11C46.9118 11 47.4624 11.5506 47.4624 12.2327Z" fill="#FF0000"/>
<path d="M47.4624 80.2219C47.4624 80.904 46.9118 81.4546 46.2297 81.4546C45.5477 81.4546 44.9971 80.904 44.9971 80.2219C44.9971 79.5398 45.5477 78.9893 46.2297 78.9893C46.9118 78.9893 47.4624 79.5398 47.4624 80.2219Z" fill="#FF0000"/>
<path d="M38.6198 13.0708C38.7965 13.7282 38.4061 14.4021 37.7487 14.5788C37.0913 14.7554 36.4174 14.3651 36.2407 13.7077C36.0641 13.0503 36.4544 12.3764 37.1118 12.1997C37.7692 12.023 38.4431 12.4134 38.6198 13.0708Z" fill="#FF0000"/>
<path d="M56.2179 78.7427C56.3946 79.4001 56.0043 80.0781 55.3468 80.2506C54.6894 80.4273 54.0156 80.037 53.8389 79.3796C53.6622 78.7221 54.0525 78.0442 54.71 77.8716C55.3674 77.6949 56.0412 78.0853 56.2179 78.7427Z" fill="#FF0000"/>
<path d="M30.2996 16.1691C30.6406 16.7567 30.4393 17.5127 29.8476 17.8538C29.2559 18.1948 28.504 17.9894 28.163 17.4018C27.8219 16.8142 28.0233 16.0582 28.6149 15.7172C29.2066 15.3761 29.9585 15.5775 30.2996 16.1691Z" fill="#FF0000"/>
<path d="M64.2923 75.049C64.6333 75.6366 64.432 76.3926 63.8403 76.7337C63.2527 77.0747 62.4967 76.8734 62.1556 76.2817C61.8146 75.6941 62.0159 74.9381 62.6076 74.597C63.1952 74.256 63.9512 74.4573 64.2923 75.049Z" fill="#FF0000"/>
<path d="M23.0637 21.3176C23.5444 21.7983 23.5444 22.579 23.0637 23.0597C22.5829 23.5405 21.8022 23.5405 21.3215 23.0597C20.8408 22.579 20.8408 21.7983 21.3215 21.3176C21.8022 20.8368 22.5829 20.8368 23.0637 21.3176Z" fill="#FF0000"/>
<path d="M71.1374 69.3952C71.6181 69.876 71.6181 70.6566 71.1374 71.1374C70.6566 71.6181 69.876 71.6181 69.3952 71.1374C68.9145 70.6566 68.9145 69.876 69.3952 69.3952C69.876 68.9145 70.6566 68.9145 71.1374 69.3952Z" fill="#FF0000"/>
<path d="M17.4014 28.1588C17.989 28.4998 18.1944 29.2517 17.8534 29.8434C17.5123 30.431 16.7604 30.6364 16.1687 30.2954C15.5812 29.9544 15.3757 29.2024 15.7168 28.6108C16.0578 28.0232 16.8097 27.8219 17.4014 28.1588Z" fill="#FF0000"/>
<path d="M76.2856 62.1554C76.8732 62.4965 77.0786 63.2484 76.7376 63.8401C76.3965 64.4276 75.6446 64.629 75.0529 64.2921C74.4613 63.951 74.2599 63.1991 74.601 62.6115C74.942 62.0198 75.6939 61.8185 76.2856 62.1596V62.1554Z" fill="#FF0000"/>
<path d="M13.7116 36.2368C14.369 36.4135 14.7593 37.0874 14.5827 37.7448C14.406 38.4022 13.7321 38.7926 13.0747 38.6159C12.4173 38.4392 12.027 37.7653 12.2036 37.1079C12.3803 36.4505 13.0542 36.0602 13.7116 36.2368Z" fill="#FF0000"/>
<path d="M79.3835 53.835C80.0409 54.0076 80.4312 54.6855 80.2545 55.3429C80.0779 56.0004 79.404 56.3907 78.7466 56.214C78.0892 56.0373 77.6988 55.3635 77.8755 54.7061C78.0522 54.0486 78.726 53.6583 79.3835 53.835Z" fill="#FF0000"/>
<path d="M12.2327 44.9927C12.9147 44.9927 13.4653 45.5474 13.4653 46.2253C13.4653 46.9074 12.9147 47.458 12.2327 47.458C11.5506 47.458 11 46.9074 11 46.2253C11 45.5433 11.5506 44.9927 12.2327 44.9927Z" fill="#FF0000"/>
<path d="M80.2219 44.9927C80.904 44.9927 81.4546 45.5474 81.4546 46.2253C81.4546 46.9033 80.904 47.458 80.2219 47.458C79.5398 47.458 78.9893 46.9074 78.9893 46.2253C78.9893 45.5433 79.5398 44.9927 80.2219 44.9927Z" fill="#FF0000"/>
<path d="M13.0708 53.835C13.7282 53.6583 14.4062 54.0486 14.5788 54.7061C14.7554 55.3635 14.3651 56.0414 13.7077 56.214C13.0503 56.3907 12.3723 56.0004 12.1997 55.3429C12.023 54.6855 12.4134 54.0117 13.0708 53.835Z" fill="#FF0000"/>
<path d="M78.7471 36.2368C79.4045 36.0602 80.0784 36.4505 80.255 37.1079C80.4317 37.7653 80.0414 38.4433 79.3839 38.6159C78.7265 38.7926 78.0486 38.4022 77.876 37.7448C77.6993 37.0874 78.0897 36.4094 78.7471 36.2368Z" fill="#FF0000"/>
<path d="M16.1735 62.1552C16.7611 61.8142 17.5171 62.0196 17.8582 62.6072C18.1992 63.1989 17.9979 63.9508 17.4062 64.2919C16.8186 64.6329 16.0626 64.4316 15.7216 63.8399C15.3805 63.2523 15.5819 62.4963 16.1735 62.1552Z" fill="#FF0000"/>
<path d="M75.0537 28.1586C75.6413 27.8175 76.3973 28.0189 76.7383 28.6105C77.0794 29.2022 76.878 29.9541 76.2864 30.2952C75.6988 30.6362 74.9428 30.4349 74.6058 29.8432C74.2648 29.2515 74.4661 28.4996 75.0578 28.1586H75.0537Z" fill="#FF0000"/>
<path d="M21.3176 69.3952C21.7983 68.9145 22.579 68.9145 23.0597 69.3952C23.5405 69.876 23.5405 70.6566 23.0597 71.1374C22.579 71.6181 21.7983 71.6181 21.3176 71.1374C20.8368 70.6566 20.8368 69.876 21.3176 69.3952Z" fill="#FF0000"/>
<path d="M69.3952 21.3176C69.876 20.8368 70.6566 20.8368 71.1374 21.3176C71.6181 21.7983 71.6181 22.579 71.1374 23.0597C70.6566 23.5405 69.876 23.5405 69.3952 23.0597C68.9145 22.579 68.9145 21.7983 69.3952 21.3176Z" fill="#FF0000"/>
<path d="M28.1627 75.049C28.5037 74.4573 29.2556 74.256 29.8432 74.597C30.4308 74.9381 30.6362 75.69 30.2952 76.2817C29.9541 76.8693 29.2022 77.0706 28.6105 76.7337C28.0189 76.3926 27.8175 75.6407 28.1586 75.049H28.1627Z" fill="#FF0000"/>
<path d="M62.1595 16.1689C62.5006 15.5813 63.2525 15.38 63.8442 15.7169C64.4318 16.0579 64.6331 16.8098 64.2962 17.4015C63.9551 17.9891 63.2032 18.1945 62.6115 17.8535C62.0198 17.5125 61.8185 16.7564 62.1595 16.1689Z" fill="#FF0000"/>
<path d="M36.2407 78.7427C36.4174 78.0853 37.0913 77.6949 37.7487 77.8716C38.4061 78.0483 38.7965 78.7221 38.6198 79.3796C38.4431 80.037 37.7692 80.4273 37.1118 80.2506C36.4544 80.074 36.0641 79.4001 36.2407 78.7427Z" fill="#FF0000"/>
<path d="M53.835 13.0708C54.0117 12.4134 54.6855 12.023 55.3429 12.1997C56.0004 12.3764 56.3907 13.0544 56.214 13.7077C56.0373 14.3651 55.3635 14.7554 54.7061 14.5788C54.0486 14.4021 53.6583 13.7282 53.835 13.0708Z" fill="#FF0000"/>
<path fill-rule="evenodd" clip-rule="evenodd" d="M40.7037 27.9233H37.1976C33.0001 27.9233 33.5344 32.3886 35.2595 32.6091C35.7449 32.6804 35.8147 32.8568 35.235 32.9145C31.7325 33.6678 32.7487 38.6182 35.5214 38.435C35.9788 38.4045 36.0452 38.4621 35.5668 38.6182C33.489 39.2527 33.7544 43.433 37.2989 43.3922C38.6817 43.3753 38.2103 43.4465 37.5573 43.7485C36.1919 44.4746 36.4852 48 39.2649 48H50.3349C52.9784 47.7727 53.9038 47.4605 55.3809 46.3951C56.5019 45.5875 56.1841 44.4509 58 44.1251V31.7744C57.0432 31.9475 56.027 31.5607 55.6184 30.4919C54.8222 28.4119 51.6199 27.774 49.5177 25.6432C47.3351 23.4275 45.0897 22.4402 43.7977 19.4305C42.1738 14.497 37.8716 17.941 39.2021 22.0873C40.0332 24.0858 40.6583 25.1275 41.9084 26.5797C42.5021 27.2685 42.1878 27.9267 40.6932 27.9267L40.7037 27.9233Z" fill="#FF0000"/>
<path d="M62.3555 65.6562V67.9414H45.9688V65.6562H50.0312V63.1172H47.8047V56.9453H57.7461V55.3047H47.7852V53.0586H60.5195V59.1719H50.6172V60.8516H60.9297V63.1172H58.5078V65.6562H62.3555ZM52.7656 65.6562H55.7344V63.1172H52.7656V65.6562Z" fill="#FF0000"/>
<path d="M34.0547 52.6484C36.6719 52.6582 38.5664 54.1523 38.5859 56.3398C38.5664 58.0488 37.3457 59.3672 35.5 59.8262V61.0078C36.8086 60.9297 38.127 60.8027 39.3477 60.6367L39.5625 62.6484C35.9102 63.3125 31.8672 63.3906 28.8984 63.3906L28.625 61.1836C29.8164 61.1836 31.2129 61.1738 32.668 61.1348V59.8359C30.7734 59.4062 29.5137 58.0684 29.5234 56.3398C29.5137 54.1523 31.418 52.6582 34.0547 52.6484ZM30.9102 69.5625V64.4258H33.7422V67.3164H43.7227V69.5625H30.9102ZM32.1406 56.3398C32.1211 57.3262 32.9316 57.8633 34.0547 57.8633C35.1875 57.8633 35.9395 57.3262 35.9492 56.3398C35.9395 55.2852 35.1875 54.7676 34.0547 54.7578C32.9316 54.7676 32.1211 55.2852 32.1406 56.3398ZM40.3047 65.6367V51.9648H43.1172V57.4727H45.2852V59.7969H43.1172V65.6367H40.3047Z" fill="#FF0000"/>
</svg>
