<svg width="276" height="313" viewBox="0 0 276 313" fill="none" xmlns="http://www.w3.org/2000/svg">
<g clip-path="url(#clip0_162_1329)">
<path fill-rule="evenodd" clip-rule="evenodd" d="M105.029 0L100.104 10.008C138.45 25.5229 138.609 46.5449 134.372 81.2815L140.992 82.0228C145.706 43.4207 147.666 17.2624 105.029 0Z" fill="#8A550F"/>
<path fill-rule="evenodd" clip-rule="evenodd" d="M82.731 66.0845C117.847 66.0845 132.041 77.4692 138.026 77.4692C144.011 77.4692 158.206 66.0845 193.322 66.0845C228.437 66.0845 280.396 121.366 275.735 189.516C271.127 257.718 208.682 312.947 176.585 312.947C144.488 312.947 142.899 309.452 138.026 309.452C133.154 309.452 131.618 312.947 99.4679 312.947C67.3183 312.947 4.92563 257.718 0.26472 189.516C-4.34322 121.366 47.6153 66.0845 82.731 66.0845Z" fill="#E13529"/>
<path opacity="0.84" fill-rule="evenodd" clip-rule="evenodd" d="M56.9901 100.98C63.8756 106.063 56.7783 113.582 48.8865 129.203C41.0477 144.824 35.3804 162.669 28.495 157.639C21.6096 152.555 22.404 135.769 30.2958 120.148C38.1346 104.528 50.1047 95.9494 56.9901 101.033V100.98Z" fill="#FEFEFE"/>
<path fill-rule="evenodd" clip-rule="evenodd" d="M20.1797 250.569C42.372 272.227 65.4117 289.171 120.071 288.007C174.731 286.895 215.143 270.321 234.052 225.841C264.666 153.773 235.641 55.5997 140.887 76.8864C148.143 74.6095 162.867 66.0312 193.322 66.0312C228.438 66.0312 280.396 121.313 275.735 189.463C271.127 257.665 208.682 312.894 176.585 312.894C144.488 312.894 142.899 309.399 138.027 309.399C133.154 309.399 131.618 312.894 99.4681 312.894C77.8055 312.894 42.372 287.742 20.1797 250.516V250.569Z" fill="#C91B0E"/>
<path fill-rule="evenodd" clip-rule="evenodd" d="M250.153 7.731C239.878 74.5036 204.444 75.9863 141.098 75.9863C164.032 17.4212 175.208 -4.07733 250.153 7.731Z" fill="#79B309"/>
<g opacity="0.6">
<path d="M113.663 104.792C128.969 115.171 150.95 115.065 166.151 104.422C169.541 102.039 171.394 97.4318 168.958 93.6193C166.786 90.2833 161.808 88.2711 158.153 90.8128C156.617 91.8719 154.975 92.878 153.28 93.7252C152.91 93.937 152.486 94.0959 152.062 94.3077C151.003 94.8372 153.227 93.884 152.062 94.3077C151.215 94.5724 150.42 94.9431 149.573 95.2079C147.772 95.7903 145.918 96.161 144.064 96.5317C143.217 96.6905 143.482 96.5317 144.17 96.5317C143.747 96.5317 143.27 96.6376 142.846 96.6376C141.84 96.7435 140.834 96.7435 139.827 96.7435C138.927 96.7435 138.026 96.7435 137.179 96.6905C136.755 96.6905 136.279 96.6376 135.855 96.5846C135.696 96.5846 134.213 96.4258 135.272 96.5846C136.332 96.7435 134.849 96.5317 134.69 96.4787C134.266 96.4258 133.842 96.3199 133.366 96.2139C132.412 96.0021 131.406 95.7903 130.452 95.4726C129.605 95.2079 128.758 94.9431 127.91 94.6254C127.486 94.4665 127.063 94.3077 126.692 94.1488C127.381 94.4136 127.433 94.5195 126.745 94.1488C124.944 93.2486 123.196 92.2955 121.554 91.1835C118.112 88.8536 112.656 90.4422 110.75 93.99C108.631 97.9614 109.902 102.303 113.557 104.792H113.663Z" fill="#FEFEFE"/>
</g>
<g opacity="0.84">
<path d="M70.708 98.5441L73.674 97.591C74.6804 97.3262 75.5808 96.9026 76.3752 96.1613C77.2227 95.6317 77.9112 94.8904 78.3879 93.9373C78.9705 93.0371 79.2883 92.031 79.3413 91.0249C79.5531 89.9659 79.5531 88.9068 79.1824 87.9007L78.3879 85.9945C77.6994 84.8295 76.746 83.8764 75.5808 83.188L73.674 82.3937C72.2969 82.0231 70.8669 82.0231 69.4898 82.3937L66.5238 83.3469C65.5174 83.6116 64.617 84.0352 63.8226 84.7766C62.9751 85.3061 62.2866 86.0474 61.8099 87.0006C61.2273 87.9007 60.9095 88.9068 60.8565 89.9129C60.6447 90.972 60.6447 92.031 61.0154 93.0371L61.8099 94.9434C62.4984 96.1083 63.4518 97.0615 64.617 97.7498L66.5238 98.5441C67.9009 98.9148 69.3309 98.9148 70.708 98.5441Z" fill="#FEFEFE"/>
</g>
</g>
<defs>
<clipPath id="clip0_162_1329">
<rect width="276" height="313" fill="white"/>
</clipPath>
</defs>
</svg>
