<svg width="627" height="296" viewBox="0 0 627 296" fill="none" xmlns="http://www.w3.org/2000/svg">
<path d="M605.224 172.849C579.215 168.106 570.732 158.367 542.598 168.975C533.863 154.419 521.609 146.028 504.188 147.36C497.489 128.134 486.143 110.061 469.59 97.7719C487.254 90.8839 504.756 104.311 516.077 117.047C504.861 99.9975 483.807 83.3787 462.567 93.0446C448.991 85.6124 433.938 80.5032 422.706 69.3346C524.95 45.8115 494.196 100.274 538.461 114.675C546.15 130.206 559.11 142.844 574.284 150.999C560.553 142.414 549.102 129.954 542.387 115.162C559.718 116.032 576.765 111.385 593.123 106.268C574.584 110.265 554.325 115.398 535.728 109.72C526.329 105.724 522.038 95.5057 516.986 87.1069C520.092 85.6611 523.32 84.4589 526.612 83.4598C527.375 83.7035 528.316 83.4193 528.827 82.8101C537.772 80.3652 547.082 79.5448 556.336 80.4464C547.464 78.3183 538.153 77.8147 529.086 78.9193C527.878 67.2065 534.885 55.9729 545.331 50.8394C533.425 55.0307 524.877 66.7598 524.942 79.5041C521.268 80.1296 517.635 80.9743 514.082 82.1196C485.381 26.4553 422.43 82.2983 407.605 8.76433L393.737 26.3173C392.755 23.7018 391.806 21.0051 391.133 18.3409C390.168 14.7832 387.338 12.2408 383.996 11.461L381.815 0L322.595 17.6099L272.174 11.6398L267.251 17.0007C263.318 13.2399 257 13.5404 253.399 17.6099C238.85 34.0419 222.151 48.5732 203.384 59.9773C198.226 58.7833 192.987 57.9549 187.748 57.3944C183.685 50.3602 177.107 44.4632 169.143 42.4569C175.777 45.1536 180.895 50.6607 183.936 57.0451C175.883 56.4684 167.667 56.7527 159.719 58.1823C172.168 57.7274 184.634 60.1154 196.401 64.0468C183.141 71.6089 168.365 77.1323 153.799 81.7053C142.112 79.2117 130.271 77.5547 118.333 76.848C103.184 67.9132 86.8257 59.2869 69.0726 57.6462C82.5516 60.7896 94.3356 68.5061 105.373 76.5475C92.3 76.7587 78.8453 78.6837 67.3614 85.3605C45.8453 94.5878 21.0527 88.3822 -0.00927734 80.4383C16.2353 88.1954 34.0613 93.8325 52.2685 93.3695C42.5039 105.042 34.1505 118.078 28.7086 132.326C35.9672 117.421 46.4779 104.116 58.5133 92.8171C64.2471 92.1835 69.7539 89.9417 75.0336 87.6674C94.3356 81.3074 115.333 84.727 134.854 88.5771C110.832 98.0318 84.2547 112.653 77.0611 139.514C58.9918 144.826 41.9686 157.546 35.8861 175.895C42.9662 159.593 58.9512 148.977 75.804 144.997C73.4845 157.611 75.5283 170.607 78.6912 182.848C68.6022 195.292 61.3356 209.929 57.4265 225.443C62.106 211.188 69.8025 197.924 79.7617 186.731C85.6821 206.859 94.5546 226.004 104.984 244.141C88.253 207.224 61.4897 151.186 98.8205 118.736C101.318 132.017 104.489 145.346 110.775 157.449C117.514 169.373 121.699 182.596 123.824 196.137C122.981 181.321 119.161 166.717 113.046 153.184C127.66 155.694 143.507 162.079 150.741 175.895C143.986 160.641 127.303 152.981 111.829 149.578C108.228 137.971 106.582 125.714 105.698 113.603C122.981 102.402 143.167 96.8784 163.085 91.4769C147.676 110.898 143.248 123.561 160.993 143.559C146.922 123.919 149.776 113.384 165.802 96.6428C173.085 85.6611 186.864 85.3362 197.829 79.5692C211.446 73.4772 224.454 66.0043 236.554 57.2482C281.728 35.1465 302.117 52.9594 278.938 84.0853C265.305 87.115 251.68 90.2503 238.614 95.327C224.057 102.361 208.688 107.56 192.906 111.288C205.744 109.168 218.623 106.585 230.975 102.304C226.417 111.824 218.947 119.995 209.507 124.812C220.764 120.361 229.969 111.361 235.451 100.607C247.414 96.2123 260.195 94.3361 272.766 92.3542C264.932 102.67 254.072 109.631 243.359 116.478C231.469 124.731 220.375 134.754 212.792 147.239C197.821 148.449 181.836 155.873 175.85 170.429C182.809 159.179 196.223 154.183 208.972 154.435C205.663 161.697 203.636 169.34 202.646 177.105C190.554 179.599 176.442 182.994 169.119 193.814C177.221 184.538 190.554 182.946 202.135 181.947C201.316 190.451 201.973 199.102 202.103 207.565C189.962 208.995 177.862 211.903 166.881 217.41C152.745 211.22 136.346 211.862 122.015 217.004C135.478 213.3 150.385 213.511 163.182 219.416C155.737 223.396 150.376 229.902 145.348 236.506C136.76 246.895 127.173 256.471 116.638 264.911C152.023 240.145 152.039 215.615 201.916 212.723C199.289 249.705 169.597 278.703 138.171 295.013C162.939 283.861 185.915 266.121 199.029 241.867C206.142 254.75 211.892 268.387 216.328 282.431C212.695 267.218 207.618 252.353 200.862 238.228C218.793 199.768 195.72 168.755 237.317 135.786C238.825 143.421 240.812 150.959 243.553 158.253C236.798 172.573 234.446 188.591 234.194 204.308C235.443 189.866 238.558 175.31 245.151 162.33C247.625 169.21 252.158 175.099 255.467 181.54C262.231 199.337 258.719 219.367 254.835 237.505C273.837 174.1 249.32 183.539 244.089 130.79C252.304 125.015 261.923 120.889 269.895 114.773C272.928 130.287 277.819 146.646 289.392 157.977C278.824 144.55 276.343 126.664 275.694 110.061C289.043 98.3242 299.148 83.3786 307.112 67.6533C327.534 86.5383 331.354 118.671 307.794 136.736C335.579 118.623 331.581 82.542 310.397 60.7734C310.77 59.9612 311.143 59.1489 311.508 58.3367C313.341 52.3178 349.682 35.7233 364.978 70.3012C359.431 81.6323 354.557 93.67 353.251 106.301C356.292 95.5463 362.05 85.8804 368.376 76.7993C374.013 87.8948 379.146 99.0959 382.974 110.841C371.263 117.177 359.966 125.421 352.683 136.736C361.515 127.647 373.234 122.156 385.148 118.42C387.743 128.264 388.911 139.278 383.356 148.343C374.288 150.813 365.246 153.331 356.243 156.027C346.398 149.48 334.297 146.751 322.595 147.645C332.87 148.091 343.089 151.365 351.385 157.497C330.616 163.549 311.605 174.311 292.839 184.789C319.399 171.46 347.347 161.867 376.713 157.294C356.949 179.144 324.833 189.444 311.103 216.866C295.337 226.613 282.458 241.851 277.729 259.981C283.001 243.776 294.996 230.325 309.472 221.65C308.378 226.207 309.01 231.072 310.543 235.393C312.197 255.456 314.444 275.625 319.878 295.038C316.747 278.671 316.042 262.019 315.806 245.408C332.586 267.811 357.59 282.058 381.815 295.038C369.212 287.744 357.087 279.556 345.741 270.451C364.662 265.171 385.326 265.723 403.801 272.571C384.799 264.619 363.242 263.351 343.292 268.444C302.66 234.402 306.05 216.094 350.518 189.419C355.116 209.377 367.744 227.726 385.862 237.521C375.643 230.203 367.63 220.131 362.853 208.532C373.331 207.898 384.183 209.076 393.688 213.795C384.15 207.833 372.715 205.583 361.58 205.299C359.228 198.817 357.72 191.994 357.29 185.122C396.51 161.088 409.089 142.544 393.412 96.9352C404.345 100.371 412.747 109.371 417.272 119.792C414.19 105.7 404.15 93.1908 390.371 88.2929C386.486 77.7903 381.985 67.6288 377.184 57.6462C382.017 56.176 387.84 56.5983 393.688 62.3248L393.59 61.7969C406.429 78.1315 423.582 91.2495 443.095 98.5111C446.598 136.785 428.415 139.343 433.89 162.46C422.787 181.354 419.105 203.845 420.865 225.484C420.297 211.708 421.895 197.713 426.299 184.619C435.512 198.598 442.559 214.697 443.297 231.624C442.827 214.396 435.877 197.932 426.655 183.604C428.772 177.422 431.408 171.403 434.814 165.823C437.661 174.726 442.616 182.816 448.585 189.89C440.167 176.821 432.089 158.61 440.686 143.892C442.113 141.602 443.889 138.929 445.057 136.501C460.937 148.059 473.353 164.158 481.447 182.028C474.57 162.777 462.924 145.062 447.215 131.879C451.091 122.668 453.046 112.693 453.759 102.743C491.853 121.376 507.319 167.7 506.84 207.898C502.347 208.329 497.911 209.287 493.637 210.717C484.578 206.217 474.059 205.331 464.173 206.915C473.175 206.241 482.502 207.63 490.539 211.846C455.681 223.453 460.061 264.505 434.984 285.152C465.333 260.695 456.249 216.403 506.629 212.228C505.04 224.533 508.389 237.026 514.569 247.618C507.813 260.435 506.102 275.592 509.297 289.644C507.067 276.218 509.354 262.003 516.061 250.144C523.96 262.799 534.617 273.586 546.498 282.456C529.119 267.388 512.396 247.439 510.725 223.607C512.931 200.596 513.628 177.252 506.581 154.858C515.461 154.013 525.08 156.141 531.397 162.737C525.047 172.516 523.158 185.131 527.034 196.177C524.723 185.61 527.448 174.311 534.155 165.88C541.632 174.782 549.191 183.823 558.769 190.654C556.912 209.58 561.964 229.529 574.308 244.182C562.711 229.569 558.258 210.132 560.359 191.751C568.899 197.631 579.207 201.002 589.563 200.84C570.837 200.011 555.898 187.048 545.266 172.557C554.073 168.837 563.789 166.652 573.367 167.521C575.889 167.708 578.623 168.341 581.072 169.007C595.857 173.393 611.306 175.099 626.651 175.936C619.465 175.229 612.32 174.206 605.232 172.89L605.224 172.849Z" fill="#7A4224"/>
</svg>
