<svg width="334" height="563" viewBox="0 0 334 563" fill="none" xmlns="http://www.w3.org/2000/svg">
<g filter="url(#filter0_i_144_2065)">
<path fill-rule="evenodd" clip-rule="evenodd" d="M171.342 36.6399C171.81 38.9603 172.271 41.2869 172.72 43.6073L172.714 43.6011C172.72 43.6073 172.72 43.6136 172.72 43.6136C173.16 45.8828 174.319 51.0272 175.082 54.3735H175.178C175.258 54.8383 175.355 55.4004 175.464 56.0432C175.668 56.9347 175.795 57.4861 175.795 57.4861L175.711 57.5101C177.017 65.2729 179.509 80.5009 180.168 84.9379L179.877 85.0737C180.352 88.4319 180.827 91.871 181.291 95.3798C184.453 92.4294 188.888 87.8384 193.317 81.8191C196.698 77.222 200.066 71.789 202.854 65.6013C205.218 60.3554 207.177 54.5669 208.356 48.2918C209.304 43.258 210.545 38.636 211.961 34.4131C212.498 32.8038 213.065 31.2568 213.652 29.7598H213.658C215.704 31.2319 218.105 32.548 220.918 33.5211C220.875 33.6708 220.831 33.8189 220.787 33.9669C220.744 34.1151 220.7 34.2633 220.656 34.4131C217.825 44.3122 215.498 54.4796 215.186 61.9086C215.136 63.0501 214.98 64.2914 214.737 65.6013L214.73 65.6049C213.881 70.2388 211.898 75.845 209.291 81.8191C204.757 92.211 198.357 103.682 192.793 113.007C189.805 118.016 187.054 122.407 184.971 125.663C185.102 126.842 185.233 128.034 185.364 129.225C186.474 139.374 187.516 149.822 188.483 160.413C188.969 165.79 189.443 171.205 189.886 176.631L189.88 176.634C190.735 187.018 191.496 197.466 192.157 207.819L192.163 207.819C192.356 210.838 192.544 213.851 192.718 216.852C196.149 213.951 199.935 210.888 203.99 207.819H203.998C208.823 204.166 214.035 200.494 219.484 197.066C218.03 192.275 215.86 184.778 213.882 176.637L231.317 181.628L243.212 176.637C244.16 178.166 245.032 179.58 245.803 180.833C246.036 181.21 246.26 181.574 246.474 181.921C248.339 180.386 250.142 178.609 251.882 176.637L262.505 181.628L273.003 176.637C268.948 183.911 263.964 190.179 257.845 194.77C252.705 198.625 247.578 203.054 242.563 207.826L242.544 207.832C237.178 212.937 231.936 218.428 226.932 224.037C217.444 234.666 208.805 245.694 201.782 255.225C199.187 258.743 196.816 262.056 194.702 265.068C194.745 267.227 194.789 269.341 194.833 271.443H194.839C194.92 275.572 194.994 279.595 195.066 283.528L195.066 283.534L195.066 283.541L195.067 283.549V283.549V283.55V283.551C195.187 290.138 195.303 296.473 195.444 302.632C195.569 308.158 195.712 313.547 195.899 318.849C195.974 321.033 196.055 323.209 196.149 325.368C197.69 323.334 199.405 321.139 201.27 318.849C205.381 313.791 210.252 308.227 215.791 302.632C225.834 292.477 238.06 282.228 251.87 274.78C253.803 273.739 255.725 272.622 257.64 271.443L257.646 271.443C265.168 266.815 272.541 261.214 279.502 255.225C285.483 250.081 291.35 244.94 296.927 240.053C302.461 235.203 307.71 230.604 312.5 226.5C315.993 223.506 318.705 221.396 320.895 219.692L320.896 219.691C324.182 217.135 326.293 215.493 328.1 213.153C330.341 210.249 332.976 206.377 333.586 205.479C333.659 205.373 333.703 205.308 333.714 205.292C333.658 205.429 329.747 214.669 328.094 218C327.236 219.725 325.819 221.158 324.135 222.859L324.135 222.86C322.136 224.88 319.762 227.279 317.5 231C316.027 233.425 314.537 234.846 312.89 236.418C311.287 237.948 309.534 239.62 307.5 242.5C305.756 244.97 303.438 246.87 301.018 248.854L301.018 248.854C298.739 250.722 296.37 252.663 294.304 255.225C290.069 260.478 285.391 265.911 280.245 271.443L280.226 271.451C275.206 276.85 269.75 282.33 263.821 287.805C258.644 292.583 253.716 297.567 249.044 302.632C244.116 307.977 239.469 313.423 235.122 318.849L235.128 318.849C226.47 329.653 219.004 340.369 212.803 350.038C209.042 355.901 205.749 361.378 202.942 366.255L202.934 366.258C201.843 368.153 200.82 369.961 199.879 371.663C200.927 379.928 202.237 388.455 203.871 397.444L203.86 397.45H203.871C204.825 402.683 205.892 408.079 207.083 413.668C207.221 414.316 207.358 414.959 207.501 415.614V415.62C208.843 421.814 211.15 435.219 211.15 435.219L210.579 435.506L211.356 435.493C212.111 440.833 214.045 455.616 214.675 461.068C215.885 471.553 216.87 482.113 217.675 492.256C218.292 500.065 218.804 507.625 219.228 514.711C219.833 524.854 220.251 534.017 220.544 541.533C220.571 542.152 220.594 542.766 220.616 543.363L220.625 543.629V543.666C221.05 555.169 221.156 562.286 221.156 562.286H197.272C194.889 562.616 192.007 562.541 188.963 562.286H174.317L174.935 541.533L175.733 514.711L175.621 518.441L175.614 518.443L174.311 562.286H92.1486H92.1423C92.1423 562.286 93.4398 559.872 95.5606 555.562C99.0412 548.476 104.749 536.25 110.543 521.167L136.498 530.305L136.502 530.304L110.55 521.167C113.999 512.191 117.486 502.205 120.555 491.688L120.563 491.689C123.612 481.23 126.25 470.241 128.046 459.209L148.98 466.058L148.992 466.07L175.986 460.285L175.985 460.265L148.986 466.051L128.052 459.203C129.25 451.811 130.08 444.401 130.385 437.109C130.566 432.792 130.739 428.508 130.91 424.263L130.911 424.238L131.034 421.178C131.29 414.772 131.546 408.453 131.801 402.215C132.388 388 133.005 374.221 133.797 360.847C134.59 347.43 135.556 334.425 136.848 321.806L144.932 268.225C147.863 252.375 150.845 235.67 153.452 218.835C151.069 214.508 148.083 209.654 144.9 204.479L144.9 204.478C137.579 192.576 129.216 178.979 124.734 166.202C118.328 147.938 115.035 135.176 113.562 126.25C116.263 126.506 119.769 128.957 122.919 131.714C125.264 138.538 128.221 144.626 132.413 150.234C141.669 162.615 151.419 172.24 158.411 178.465C158.474 178.524 158.539 178.584 158.603 178.642C158.654 178.688 158.705 178.733 158.754 178.777C158.792 178.418 158.826 178.061 158.86 177.704C158.895 177.347 158.929 176.99 158.966 176.631C159.521 171.167 160.002 165.747 160.382 160.413L160.388 160.413C161.056 151.119 161.43 142.056 161.43 133.373C161.43 132.096 161.418 130.712 161.399 129.229L161.393 129.225C161.337 124.672 161.193 119.189 160.981 113.007C160.669 103.875 160.208 93.2278 159.659 81.8191L159.592 80.4123L159.592 80.4036C159.291 74.04 158.601 59.4615 158.336 54.3735H158.531L158.236 54.1801C158.236 54.1801 157.513 40.9626 157.139 34.4068C156.908 30.265 156.671 26.1544 156.434 22.1062C155.985 14.4464 155.542 7.01112 155.118 -0.00622559C160.102 3.12507 165.422 10.3545 169.159 25.8675C169.745 28.7056 170.325 31.5562 170.899 34.4131C171.036 35.2115 171.186 35.9538 171.342 36.6399ZM100.245 265.737C113.722 283.094 127.23 301.599 136.841 321.806L144.932 268.225C133.626 259.919 117.939 247.81 101.34 233.227L101.337 233.219C98.299 230.549 95.2363 227.799 92.1611 224.979L92.1487 224.973C65.1272 200.153 56.17 165.279 49.8013 132.35L48.5538 112.39C47.8696 112.402 47.0149 113.307 46.1487 114.223C45.2381 115.187 44.3149 116.164 43.5637 116.132C42.9439 116.107 42.5076 116.537 42.0786 116.959C41.6484 117.382 41.2254 117.798 40.632 117.742C41.524 133.386 43.807 157.114 48.7222 177.611C45.2936 176.437 41.7274 176.9 37.8842 177.399C31.7361 178.198 24.8791 179.088 16.7419 173.519C9.23174 168.373 -8.83246 172.895 5.17727 174.704C8.04035 175.783 11.6956 177.635 15.1263 180.767C17.4155 182.9 19.5925 185.626 21.3764 189.1C21.6072 189.549 21.8193 189.992 22.0189 190.435C22.337 190.622 22.6551 190.803 22.9795 190.984C30.2775 195.011 36.0995 196.719 41.4604 198.292C47.0367 199.928 52.1142 201.418 57.8354 205.218C59.0143 207.813 60.2619 210.314 61.603 212.679C67.747 223.538 75.9869 234.66 84.9754 246.231C75.3507 250.529 57.2491 255.481 38.1806 244.478C37.9561 245.956 37.5943 247.329 37.1639 248.589C36.8271 250.017 36.3904 251.427 35.8166 252.699C48.9645 263.858 69.4095 272.259 100.245 265.737ZM158.754 271.418L158.752 271.418L165.903 270.614L158.754 271.418ZM165.903 270.614L164.319 240.821L165.085 255.225L165.903 270.614ZM165.947 271.444L168.472 318.849L167.612 302.632L165.953 271.448L165.947 271.444ZM170.132 350.038L170.992 366.255L170.99 366.255L170.855 363.717L168.822 325.418L170.132 350.038ZM172.669 397.45L172.649 397.445L172.649 397.45H172.669ZM174.706 436.114L174.698 435.965L174.911 436.111L174.706 436.114ZM152.722 334.443L152.722 334.45L168.69 325.492L152.722 334.443ZM251.882 176.631L262.505 181.621L273.003 176.631C274.088 174.691 275.111 172.677 276.066 170.606C280.273 168.316 284.64 165.179 288.97 161.573L293.676 160.348C330.86 153.703 334.637 140.751 328.77 144.399C321.306 149.044 302.205 152.846 286.066 148.24C287.948 141.249 289.376 134.105 290.47 127.121C291.404 121.187 292.087 115.365 292.582 109.843C292.617 109.484 292.651 109.112 292.686 108.746C293.857 95.1764 287.773 95.9938 283.585 109.843C281.899 115.418 279.996 121.246 277.878 127.121C273.739 138.618 268.777 150.247 263 160.348L263.18 160.413H262.885C259.523 166.576 255.856 172.128 251.876 176.631H251.882ZM213.882 176.631C212.585 171.306 211.376 165.714 210.509 160.42L210.508 160.42C209.56 154.637 209.011 149.223 209.21 144.938C209.435 140.097 210.726 134.646 212.504 129.231C212.946 127.886 213.351 126.482 213.757 125.074L213.757 125.074L213.757 125.073L213.757 125.073L213.757 125.073L213.757 125.073L213.757 125.073L213.758 125.072C215.076 120.499 216.41 115.874 219.085 113.014C222.505 109.355 222.242 122.992 222.13 128.839L222.122 129.231C221.966 137.372 222.921 145.293 226.277 150.24H226.283C228.365 153.319 230.665 156.823 232.978 160.413H232.982C236.612 166.052 240.274 171.897 243.212 176.631L231.317 181.621L213.882 176.631Z" fill="#BBBBBB"/>
</g>
<defs>
<filter id="filter0_i_144_2065" x="0.00341797" y="-0.00622559" width="333.711" height="562.513" filterUnits="userSpaceOnUse" color-interpolation-filters="sRGB">
<feFlood flood-opacity="0" result="BackgroundImageFix"/>
<feBlend mode="normal" in="SourceGraphic" in2="BackgroundImageFix" result="shape"/>
<feColorMatrix in="SourceAlpha" type="matrix" values="0 0 0 0 0 0 0 0 0 0 0 0 0 0 0 0 0 0 127 0" result="hardAlpha"/>
<feOffset dx="-10" dy="10"/>
<feComposite in2="hardAlpha" operator="arithmetic" k2="-1" k3="1"/>
<feColorMatrix type="matrix" values="0 0 0 0 0 0 0 0 0 0 0 0 0 0 0 0 0 0 0.1 0"/>
<feBlend mode="normal" in2="shape" result="effect1_innerShadow_144_2065"/>
</filter>
</defs>
</svg>
