<svg width="362" height="275" viewBox="0 0 362 275" fill="none" xmlns="http://www.w3.org/2000/svg">
<path d="M193.428 260.575C176.267 266.106 163.035 257.352 161.504 256.228C153.245 259.503 123.516 280.78 77.4854 272.532C41.041 266.001 24.3923 236.201 21.784 231.202C18.6698 230.729 19.9969 213.786 5.62152 179.494C-7.46613 148.345 7.9999 118.965 10.0366 115.289C8.90657 111.796 0.897613 84.8307 17.6317 60.1669C23.7222 51.2484 32.0465 44.0795 41.6848 39.0481C56.6975 31.1754 74.8179 28.6564 92.3601 33.1682C93.6544 30.6163 104.029 11.1287 125.769 5.65659C144.711 0.868527 164.52 8.59652 175.564 25.2298C177.193 23.3685 200.839 -2.7291 235.174 0.907988C243.367 1.79589 250.351 4.09127 256.251 7.10354C272.788 15.7984 280.764 29.9126 281.914 32.1093C311.138 28.7353 332.471 42.7312 334.436 59.2066C335.599 69.5786 333.628 78.885 329.817 83.4692C331.624 84.2914 362.766 101.872 361.386 126.147C360.44 142.708 342.234 162.084 313.122 171.483C300.619 175.666 286.106 177.909 270.029 177.303C270.85 180.737 274.227 196.633 264.392 212.504C263.728 213.602 262.986 214.733 262.217 215.786C252.506 229.032 236.107 236.733 219.025 236.26C218.368 237.904 211.588 254.643 193.428 260.582V260.575Z" fill="#42A527"/>
<path d="M193.428 260.575C176.267 266.106 163.035 257.352 161.504 256.228C153.245 259.503 123.516 280.78 77.4854 272.532C41.041 266.001 24.3923 236.201 21.784 231.202C18.6698 230.729 19.9969 213.786 5.62152 179.494C-7.46613 148.345 7.9999 118.965 10.0366 115.289C8.90657 111.796 0.897613 84.8307 17.6317 60.1669C23.7222 51.2484 32.0465 44.0795 41.6848 39.0481C56.6975 31.1754 74.8179 28.6564 92.3601 33.1682C93.6544 30.6163 104.029 11.1287 125.769 5.65659C144.711 0.868527 164.52 8.59652 175.564 25.2298C177.193 23.3685 200.839 -2.7291 235.174 0.907988C243.367 1.79589 250.351 4.09127 256.251 7.10354C272.788 15.7984 280.764 29.9126 281.914 32.1093C311.138 28.7353 332.471 42.7312 334.436 59.2066C335.599 69.5786 333.628 78.885 329.817 83.4692C331.624 84.2914 362.766 101.872 361.386 126.147C360.44 142.708 342.234 162.084 313.122 171.483C300.619 175.666 286.106 177.909 270.029 177.303C270.85 180.737 274.227 196.633 264.392 212.504C263.728 213.602 262.986 214.733 262.217 215.786C252.506 229.032 236.107 236.733 219.025 236.26C218.368 237.904 211.588 254.643 193.428 260.582V260.575Z" fill="url(#paint0_linear_50_1013)" fill-opacity="0.2"/>
<defs>
<linearGradient id="paint0_linear_50_1013" x1="180.923" y1="0.560822" x2="180.923" y2="274.418" gradientUnits="userSpaceOnUse">
<stop stop-color="white"/>
<stop offset="1" stop-color="white" stop-opacity="0"/>
</linearGradient>
</defs>
</svg>
