<svg width="203" height="141" viewBox="0 0 203 141" fill="none" xmlns="http://www.w3.org/2000/svg">
<path d="M116.027 140.138C107.184 142.94 100.279 138.106 99.4774 137.488C95.2265 139.165 86.1992 141.993 75.4111 139.777C56.4957 135.955 47.6786 119.756 46.2924 117.046C44.6761 116.757 9.68046 122.547 2 104C-4.99059 87.1563 19.0724 62.306 20.1039 60.346C19.4929 58.4584 15.1632 43.9101 23.6518 30.8416C26.7463 26.1127 31.0037 22.3506 35.9576 19.7461C43.6709 15.6684 53.0333 14.4977 62.1395 17.0956C62.7899 15.7407 68.0263 5.38192 79.2415 2.65904C89.0112 0.278157 99.3131 4.61901 105.147 13.6558C105.975 12.6758 118.031 -1.09643 135.83 1.19237C140.081 1.75142 143.707 3.05367 146.782 4.72423C155.402 9.55175 159.627 17.2074 160.238 18.3979C175.336 16.872 186.479 24.6 187.609 33.4592C188.279 39.0365 184.882 44.1403 182.938 46.5606C183.877 47.021 202.562 56.6366 202.017 69.6525C201.643 78.5315 192.352 88.7521 177.353 93.5073C170.914 95.6251 163.418 96.6906 155.093 96.2039C155.54 98.0521 157.399 106.622 152.419 115.04C152.084 115.626 151.71 116.224 151.316 116.777C146.381 123.788 137.945 127.76 129.102 127.339C128.774 128.214 125.383 137.133 116.027 140.138Z" fill="#067104"/>
<path d="M116.027 140.138C107.184 142.94 100.279 138.106 99.4774 137.488C95.2265 139.165 86.1992 141.993 75.4111 139.777C56.4957 135.955 47.6786 119.756 46.2924 117.046C44.6761 116.757 9.68046 122.547 2 104C-4.99059 87.1563 19.0724 62.306 20.1039 60.346C19.4929 58.4584 15.1632 43.9101 23.6518 30.8416C26.7463 26.1127 31.0037 22.3506 35.9576 19.7461C43.6709 15.6684 53.0333 14.4977 62.1395 17.0956C62.7899 15.7407 68.0263 5.38192 79.2415 2.65904C89.0112 0.278157 99.3131 4.61901 105.147 13.6558C105.975 12.6758 118.031 -1.09643 135.83 1.19237C140.081 1.75142 143.707 3.05367 146.782 4.72423C155.402 9.55175 159.627 17.2074 160.238 18.3979C175.336 16.872 186.479 24.6 187.609 33.4592C188.279 39.0365 184.882 44.1403 182.938 46.5606C183.877 47.021 202.562 56.6366 202.017 69.6525C201.643 78.5315 192.352 88.7521 177.353 93.5073C170.914 95.6251 163.418 96.6906 155.093 96.2039C155.54 98.0521 157.399 106.622 152.419 115.04C152.084 115.626 151.71 116.224 151.316 116.777C146.381 123.788 137.945 127.76 129.102 127.339C128.774 128.214 125.383 137.133 116.027 140.138Z" fill="url(#paint0_linear_50_1012)" fill-opacity="0.2"/>
<defs>
<linearGradient id="paint0_linear_50_1012" x1="101.379" y1="0.936157" x2="101.379" y2="141.005" gradientUnits="userSpaceOnUse">
<stop stop-color="white"/>
<stop offset="1" stop-color="white" stop-opacity="0"/>
</linearGradient>
</defs>
</svg>
