<svg width="154" height="175" viewBox="0 0 154 175" fill="none" xmlns="http://www.w3.org/2000/svg">
<path d="M0.0449188 100.852C0.76362 109.724 7.64878 114.453 8.50403 114.979C8.54716 119.353 9.30898 128.402 15.2598 137.452C25.6379 153.348 59.3019 156.215 62.2485 156.616C63.0966 157.984 73.0722 173.834 92.628 174.939C110.387 175.952 121.62 163.989 123.008 162.443C124.934 162.397 139.653 161.74 148.327 149.948C151.461 145.666 153.294 140.628 153.833 135.334C154.681 127.08 152.309 118.248 146.631 110.829C147.616 109.816 155.04 101.819 153.387 90.8293C151.957 81.247 144.26 73.3023 133.975 70.8689C134.557 69.81 142.563 54.5783 133.975 39.2085C131.919 35.5452 129.411 32.6712 126.774 30.4219C119.256 24.1543 110.804 22.7403 109.503 22.5627C105.342 8.4359 94.2954 0.793725 85.8794 2.56287C80.597 3.7138 77.2478 8.38986 75.7673 10.9088C75.0055 10.205 59.4815 -3.66531 47.9392 0.931829C40.0622 4.06893 34.2479 15.6769 35.4553 30.7376C35.9009 37.2289 21.8791 44.3383 25.372 51.7108C23.5393 51.8884 15.1305 52.9012 9.35929 60.0567C8.95682 60.5434 8.55434 61.0696 8.19499 61.6023C3.67436 68.2711 3.18564 77.1431 6.8079 85.0023C6.13951 85.5745 -0.659407 91.4475 0.0521073 100.852H0.0449188Z" fill="#067104"/>
<path d="M0.0449188 100.852C0.76362 109.724 7.64878 114.453 8.50403 114.979C8.54716 119.353 9.30898 128.402 15.2598 137.452C25.6379 153.348 59.3019 156.215 62.2485 156.616C63.0966 157.984 73.0722 173.834 92.628 174.939C110.387 175.952 121.62 163.989 123.008 162.443C124.934 162.397 139.653 161.74 148.327 149.948C151.461 145.666 153.294 140.628 153.833 135.334C154.681 127.08 152.309 118.248 146.631 110.829C147.616 109.816 155.04 101.819 153.387 90.8293C151.957 81.247 144.26 73.3023 133.975 70.8689C134.557 69.81 142.563 54.5783 133.975 39.2085C131.919 35.5452 129.411 32.6712 126.774 30.4219C119.256 24.1543 110.804 22.7403 109.503 22.5627C105.342 8.4359 94.2954 0.793725 85.8794 2.56287C80.597 3.7138 77.2478 8.38986 75.7673 10.9088C75.0055 10.205 59.4815 -3.66531 47.9392 0.931829C40.0622 4.06893 34.2479 15.6769 35.4553 30.7376C35.9009 37.2289 21.8791 44.3383 25.372 51.7108C23.5393 51.8884 15.1305 52.9012 9.35929 60.0567C8.95682 60.5434 8.55434 61.0696 8.19499 61.6023C3.67436 68.2711 3.18564 77.1431 6.8079 85.0023C6.13951 85.5745 -0.659407 91.4475 0.0521073 100.852H0.0449188Z" fill="url(#paint0_linear_50_1016)" fill-opacity="0.2"/>
<defs>
<linearGradient id="paint0_linear_50_1016" x1="77" y1="0" x2="77" y2="175" gradientUnits="userSpaceOnUse">
<stop stop-color="white"/>
<stop offset="1" stop-color="white" stop-opacity="0"/>
</linearGradient>
</defs>
</svg>
