<svg width="232" height="206" viewBox="0 0 232 206" fill="none" xmlns="http://www.w3.org/2000/svg">
<path d="M57.1664 190.54C65.609 197.584 76.5745 193.9 77.882 193.394C81.7321 197.215 90.3718 204.371 104.169 205.588C128.334 207.811 148.583 189.954 151.868 186.935C153.905 187.179 177.629 189.823 198.036 168.454C216.584 149.058 217.333 125.618 217.365 122.665C219.238 120.429 233.298 103.019 231.668 82.6568C231.051 75.284 228.495 68.7267 224.415 63.4191C218.068 55.132 208.023 50.0151 195.914 49.9362C196.006 47.9105 196.433 32.3427 185.218 24.4897C175.448 17.6365 160.876 19.386 148.53 28.995C148.189 27.3902 142.887 4.73898 120.962 0.944046C115.726 0.049572 110.733 0.371841 106.147 1.39128C93.2101 4.42328 83.5717 12.8353 82.1263 14.1638C65.6879 6.39639 48.0471 12.2565 41.2208 23.4374C36.9699 30.488 37.7058 38.4725 38.4351 42.3858C37.0619 42.6291 9.55287 48.0881 2.06952 65.3461C-3.02889 77.1256 1.29424 94.0614 15.6105 106.018C21.7076 111.26 29.6771 115.516 39.5651 118.061C37.8963 120.317 30.413 130.827 30.9057 143.757C30.9254 144.645 30.9911 145.579 31.0963 146.454C32.4103 157.523 39.644 165.955 50.097 168.776C49.9262 170.052 48.2837 183.029 57.1796 190.54H57.1664Z" fill="#7FC456"/>
<path d="M57.1664 190.54C65.609 197.584 76.5745 193.9 77.882 193.394C81.7321 197.215 90.3718 204.371 104.169 205.588C128.334 207.811 148.583 189.954 151.868 186.935C153.905 187.179 177.629 189.823 198.036 168.454C216.584 149.058 217.333 125.618 217.365 122.665C219.238 120.429 233.298 103.019 231.668 82.6568C231.051 75.284 228.495 68.7267 224.415 63.4191C218.068 55.132 208.023 50.0151 195.914 49.9362C196.006 47.9105 196.433 32.3427 185.218 24.4897C175.448 17.6365 160.876 19.386 148.53 28.995C148.189 27.3902 142.887 4.73898 120.962 0.944046C115.726 0.049572 110.733 0.371841 106.147 1.39128C93.2101 4.42328 83.5717 12.8353 82.1263 14.1638C65.6879 6.39639 48.0471 12.2565 41.2208 23.4374C36.9699 30.488 37.7058 38.4725 38.4351 42.3858C37.0619 42.6291 9.55287 48.0881 2.06952 65.3461C-3.02889 77.1256 1.29424 94.0614 15.6105 106.018C21.7076 111.26 29.6771 115.516 39.5651 118.061C37.8963 120.317 30.413 130.827 30.9057 143.757C30.9254 144.645 30.9911 145.579 31.0963 146.454C32.4103 157.523 39.644 165.955 50.097 168.776C49.9262 170.052 48.2837 183.029 57.1796 190.54H57.1664Z" fill="url(#paint0_linear_50_1015)" fill-opacity="0.2"/>
<defs>
<linearGradient id="paint0_linear_50_1015" x1="115.906" y1="0.421448" x2="115.906" y2="205.779" gradientUnits="userSpaceOnUse">
<stop stop-color="white"/>
<stop offset="1" stop-color="white" stop-opacity="0"/>
</linearGradient>
</defs>
</svg>
