<svg width="317" height="276" viewBox="0 0 317 276" fill="none" xmlns="http://www.w3.org/2000/svg">
<path d="M95.3063 240.673C107.803 252.347 122.112 250.301 123.807 249.973C129.602 256.115 142.381 267.987 161.27 273.268C194.351 282.634 219.107 264.047 223.101 260.864C225.9 261.726 258.449 271.539 282.883 248.289C305.096 227.183 302.587 195.962 302.186 192.009C304.387 189.503 320.825 169.884 315.543 142.149C313.598 132.099 309.144 122.635 302.817 114.44C292.968 101.654 278.586 92.1374 262.161 88.8357C261.983 86.1457 248.462 72.6234 243.83 51.8992C236.064 17.1134 202.071 19.3364 186.788 28.952C186.079 26.7092 183.49 14.2327 153.215 3.3477C145.975 0.749778 139.26 -0.138118 133.196 0.0197301C116.127 0.670854 104.327 9.39855 102.573 10.7929C79.1241 -3.95936 56.1025 -0.769512 48.5337 12.4108C43.8361 20.7373 46.0371 31.6354 47.6073 37.0812C45.7874 37.0483 9.32332 37.0878 1.7874 58.2526C-3.35042 72.6957 5.05932 96.544 26.2545 116.361C35.3081 124.996 46.7466 132.803 60.5307 138.834C58.6057 141.412 50.0514 153.527 52.6598 170.996C52.824 172.199 53.0474 173.456 53.3233 174.666C56.7661 189.859 67.8433 203.065 82.4289 209.609C82.3961 211.273 82.1135 228.236 95.3063 240.666V240.673Z" fill="#7BC74B"/>
<path d="M95.3063 240.673C107.803 252.347 122.112 250.301 123.807 249.973C129.602 256.115 142.381 267.987 161.27 273.268C194.351 282.634 219.107 264.047 223.101 260.864C225.9 261.726 258.449 271.539 282.883 248.289C305.096 227.183 302.587 195.962 302.186 192.009C304.387 189.503 320.825 169.884 315.543 142.149C313.598 132.099 309.144 122.635 302.817 114.44C292.968 101.654 278.586 92.1374 262.161 88.8357C261.983 86.1457 248.462 72.6234 243.83 51.8992C236.064 17.1134 202.071 19.3364 186.788 28.952C186.079 26.7092 183.49 14.2327 153.215 3.3477C145.975 0.749778 139.26 -0.138118 133.196 0.0197301C116.127 0.670854 104.327 9.39855 102.573 10.7929C79.1241 -3.95936 56.1025 -0.769512 48.5337 12.4108C43.8361 20.7373 46.0371 31.6354 47.6073 37.0812C45.7874 37.0483 9.32332 37.0878 1.7874 58.2526C-3.35042 72.6957 5.05932 96.544 26.2545 116.361C35.3081 124.996 46.7466 132.803 60.5307 138.834C58.6057 141.412 50.0514 153.527 52.6598 170.996C52.824 172.199 53.0474 173.456 53.3233 174.666C56.7661 189.859 67.8433 203.065 82.4289 209.609C82.3961 211.273 82.1135 228.236 95.3063 240.666V240.673Z" fill="url(#paint0_linear_50_1008)" fill-opacity="0.2"/>
<defs>
<linearGradient id="paint0_linear_50_1008" x1="158.452" y1="0.00213623" x2="158.452" y2="275.881" gradientUnits="userSpaceOnUse">
<stop stop-color="white"/>
<stop offset="1" stop-color="white" stop-opacity="0"/>
</linearGradient>
</defs>
</svg>
