<svg width="207" height="193" viewBox="0 0 207 193" fill="none" xmlns="http://www.w3.org/2000/svg">
<path d="M0.0853724 111.27C1.1565 121.059 11.4801 126.272 12.7484 126.856C12.8141 131.677 13.9509 141.666 22.8683 151.647C38.4161 169.183 65.1549 172.347 69.5775 172.785C70.8523 174.297 85.7956 191.78 115.078 193C119.605 187.038 137.078 191.097 144.642 188.145C153.855 184.55 159.441 180.146 160.578 179.211C163.462 179.165 185.509 178.429 198.507 165.429C203.199 160.707 205.946 155.149 206.748 149.306C208.023 140.2 204.468 130.457 195.958 122.273C197.43 121.152 208.555 112.337 206.078 100.207C203.935 89.6349 192.409 80.8669 176.993 78.1875C177.86 77.0202 189.86 60.2138 176.993 43.2615C173.911 39.2158 170.159 36.0522 166.203 33.565C154.946 26.6475 142.276 25.0889 140.338 24.8966C134.108 9.31056 117.555 0.880842 104.958 2.83075C97.0523 4.09753 92.0252 9.25749 89.8107 12.0364C88.6738 11.2538 65.4178 -4.04036 48.1286 1.02675C36.333 4.4822 27.6259 17.2959 29.433 33.9033C30.1033 41.0662 32.7844 48.9057 38.0087 57.0435C35.2618 57.2359 22.6646 58.3567 14.0166 66.2492C13.4121 66.7865 12.8075 67.3701 12.2752 67.9538C5.50674 75.309 4.77075 85.0984 10.1987 93.7668C9.19327 94.3969 -0.992331 100.877 0.0787996 111.256L0.0853724 111.27Z" fill="#34960F"/>
<path d="M0.0853724 111.27C1.1565 121.059 11.4801 126.272 12.7484 126.856C12.8141 131.677 13.9509 141.666 22.8683 151.647C38.4161 169.183 65.1549 172.347 69.5775 172.785C70.8523 174.297 85.7956 191.78 115.078 193C119.605 187.038 137.078 191.097 144.642 188.145C153.855 184.55 159.441 180.146 160.578 179.211C163.462 179.165 185.509 178.429 198.507 165.429C203.199 160.707 205.946 155.149 206.748 149.306C208.023 140.2 204.468 130.457 195.958 122.273C197.43 121.152 208.555 112.337 206.078 100.207C203.935 89.6349 192.409 80.8669 176.993 78.1875C177.86 77.0202 189.86 60.2138 176.993 43.2615C173.911 39.2158 170.159 36.0522 166.203 33.565C154.946 26.6475 142.276 25.0889 140.338 24.8966C134.108 9.31056 117.555 0.880842 104.958 2.83075C97.0523 4.09753 92.0252 9.25749 89.8107 12.0364C88.6738 11.2538 65.4178 -4.04036 48.1286 1.02675C36.333 4.4822 27.6259 17.2959 29.433 33.9033C30.1033 41.0662 32.7844 48.9057 38.0087 57.0435C35.2618 57.2359 22.6646 58.3567 14.0166 66.2492C13.4121 66.7865 12.8075 67.3701 12.2752 67.9538C5.50674 75.309 4.77075 85.0984 10.1987 93.7668C9.19327 94.3969 -0.992331 100.877 0.0787996 111.256L0.0853724 111.27Z" fill="url(#paint0_linear_50_1017)" fill-opacity="0.2"/>
<defs>
<linearGradient id="paint0_linear_50_1017" x1="103.5" y1="0" x2="103.5" y2="193" gradientUnits="userSpaceOnUse">
<stop stop-color="white"/>
<stop offset="1" stop-color="white" stop-opacity="0"/>
</linearGradient>
</defs>
</svg>
